<svg width="34" height="34" viewBox="0 0 34 34" fill="none" xmlns="http://www.w3.org/2000/svg">
<path d="M25.9294 13.9772L31.8067 6.29156H20.3347L25.9294 13.9772Z" fill="#FF3055"/>
<path d="M25.7536 24.4355C25.0768 24.6289 23.4298 25.4995 22.772 25.7918C22.3928 25.9603 22.1218 26.0417 23.4501 26.0417C25.9876 26.0417 26.8221 26.0417 29.3596 26.0417C27.5755 24.8876 26.2556 24.5471 25.7536 24.4355ZM25.7536 24.4355V20.6328L25.7977 14.1504M25.7977 14.1504C24.9195 13.1331 23.7115 11.2682 23.1111 10.3075C22.2634 8.95125 21.5763 8.34821 20.9681 7.19937C20.2855 6.12564 19.6436 5.22145 18.703 4.11854C18.251 3.40453 18.703 3.60486 19.6436 3.60486C20.5196 3.60486 21.697 3.60486 22.5459 3.60486C25.9725 3.60486 29.1051 3.60486 32.4647 3.60486C33.3536 3.60486 33.2832 3.86516 32.4647 5.22145C31.504 6.4082 31.1567 7.23493 30.6837 7.70798C29.2709 9.57288 27.5755 11.7203 25.7977 14.1504Z" stroke="#C7E0E8" stroke-width="0.764677" stroke-linecap="round" stroke-linejoin="round"/>
<path d="M16.0964 8.83453H1.29028C1.29028 11.6827 7.04139 14.5505 8.93715 15.7816C14.0458 12.8429 16.2001 10.1681 16.0964 8.83453Z" fill="#E6B964"/>
<path d="M8.99605 23.3569C7.65935 24.3695 6.56608 24.8262 4.87067 25.8999C7.1312 26.0695 8.1135 26.0695 10.1263 26.0695C10.3792 26.0695 12.8893 26.0533 12.5563 25.7869C12.0153 25.3541 11.2 25.1087 10.5219 24.6001C9.84373 24.2611 9.02781 23.9286 8.99605 23.3569ZM8.99605 23.3569C8.88203 21.3045 8.84207 18.4403 8.84207 16.2189M8.84207 16.2189C9.03318 15.55 9.50491 15.3322 10.1265 14.8236C10.9742 14.2584 12.7482 13.2769 13.4042 12.6761C14.3084 12.1675 15.6564 10.7822 16.0602 9.56795C16.3641 8.88433 16.6022 8.24161 16.6438 7.49348C16.7031 6.42524 17.0511 6.2915 15.7423 6.2915C14.1634 6.2915 12.8452 6.2915 11.313 6.2915C8.14116 6.2915 5.49947 6.29151 2.32759 6.29151C0.632248 6.29151 0.745571 6.40327 1.14085 8.94631C1.22089 9.46121 1.87684 10.8126 2.32759 11.2633C2.58869 11.5244 2.90896 11.9796 3.55084 12.3948C4.05945 12.7238 4.71648 13.1994 5.09691 13.4108C5.77396 13.7869 5.87903 13.8518 6.56623 14.2156C6.98963 14.4398 7.41391 14.7105 7.87381 15.0615C8.26448 15.3596 8.84207 15.3275 8.84207 16.2189Z" stroke="#C7E0E8" stroke-width="0.764677" stroke-linecap="round" stroke-linejoin="round"/>
<rect x="10.8408" y="24.2624" width="12.9978" height="6.32935" fill="#D36500"/>
<path d="M10.8408 20.2425C10.8408 18.8586 10.9136 17.621 10.9136 16.1704C11.4478 16.1704 13.318 16.1246 13.8522 16.1246H16.6213H21.6509H23.5158C23.9114 16.1246 23.8622 16.8839 23.8622 17.4268C23.8622 18.5928 23.7997 19.3343 23.8622 20.5219C23.9335 21.8772 23.8622 23.4242 23.8622 24.8168C23.8622 26.2615 23.9361 27.7428 23.8622 29.146C23.8434 29.5029 23.9636 30.5483 23.5874 30.5483H21.7588H17.8078H13.5453H11.0266C11.0266 30.5483 10.9136 27.0277 10.9136 26.5121C10.9136 25.8947 10.8408 24.4777 10.8408 23.743C10.8853 22.0692 10.8408 21.4801 10.8408 20.2425Z" stroke="#C7E0E8" stroke-width="0.764677" stroke-linecap="round" stroke-linejoin="round"/>
</svg>
