<svg width="22" height="30" viewBox="0 0 22 30" fill="none" xmlns="http://www.w3.org/2000/svg">
<path d="M7.90634 9.26263C4.30669 8.74494 6.54875 0.60975 5.3763 0.60975L3.52505 0.609741C3.13288 2.003 4.03929 8.84354 0.912733 9.26264C0.912745 10.3227 0.893555 28.6275 0.893555 28.6275H4.73633H8.45545C8.45545 28.6275 8.64202 9.36843 7.90634 9.26263Z" fill="#C7E0E8" stroke="#B6CDD5" stroke-width="0.46018" stroke-linecap="round" stroke-linejoin="round"/>
<ellipse cx="4.70977" cy="16.4898" rx="3.12676" ry="4.40702" fill="#F1EBD3"/>
<path d="M20.3643 11.3003C16.7647 10.8463 19.0068 4.69672 17.8343 4.69672L15.9831 4.69672C15.5909 5.91858 16.4973 10.9328 13.3707 11.3003C13.3708 12.2299 13.3516 28.2829 13.3516 28.2829H17.1943H20.9135C20.9135 28.2829 21.1 11.3931 20.3643 11.3003Z" fill="#007428" stroke="#006523" stroke-width="0.46018" stroke-linecap="round" stroke-linejoin="round"/>
<path d="M20.0791 28.2828C20.0791 28.2828 20.2402 14.1967 19.6048 14.1194C17.4574 13.8578 15.9852 14.1194 13.5649 14.1194C13.5649 14.8947 13.5483 28.2828 13.5483 28.2828H16.8671H20.0791Z" fill="#DFD25C"/>
<path d="M18.7581 19.5226C13.1015 19.266 16.6248 15.2341 14.7823 15.2341L11.8732 15.2341C11.257 15.9246 12.6813 19.3149 7.76817 19.5226C7.76819 20.0479 7.73804 29.1199 7.73804 29.1199H13.7767H19.621C19.621 29.1199 19.9142 19.575 18.7581 19.5226Z" fill="#D36500" stroke="#C25E01" stroke-width="0.46018" stroke-linecap="round" stroke-linejoin="round"/>
<path d="M18.8378 26.9534C18.8378 26.9534 19.091 21.3136 18.0925 21.2826C11.9979 21.0934 14.9298 21.0995 8.60122 21.2826C8.60124 21.593 8.5752 26.9534 8.5752 26.9534H13.7904H18.8378Z" fill="#F1EBD3"/>
<path d="M12.0957 27.7658C12.0957 27.7658 13.5483 24.7129 10.6185 22.3231C8.8957 20.9178 4.83127 20.4161 3.13399 22.3231C1.33672 24.7129 2.52904 27.3674 4.93126 28.6768C7.04013 29.8263 10.8401 29.8832 12.0957 27.7658Z" fill="#FFD53F" stroke="#F4CD43" stroke-width="0.46018" stroke-linecap="round" stroke-linejoin="round"/>
<path d="M14.5055 28.4244C14.5055 28.4244 16.3742 26.4991 14.7675 24.4338C13.7705 23.1523 10.8379 22.0788 9.59794 23.4712C8.09597 25.1578 8.10958 27.4935 9.59794 28.8269C10.7506 29.8596 12.9922 30.0171 14.5055 28.4244Z" fill="#44AF69" stroke="#389357" stroke-width="0.46018" stroke-linecap="round" stroke-linejoin="round"/>
</svg>
