<svg width="105" height="43" viewBox="0 0 105 43" fill="none" xmlns="http://www.w3.org/2000/svg">
<mask id="path-1-outside-1_1608_2870" maskUnits="userSpaceOnUse" x="25.02" y="11" width="77" height="25" fill="black">
<rect fill="white" x="25.02" y="11" width="77" height="25"/>
<path d="M32.7092 16.7224C32.9023 15.4285 33.0375 14.1975 33.1147 13.0292V12.8554C33.1533 12.6043 33.2692 12.4016 33.4623 12.2471C33.6651 12.0926 33.9016 12.0154 34.172 12.0154C34.3458 12.0154 34.5051 12.0974 34.6499 12.2616C34.7948 12.4161 34.8672 12.585 34.8672 12.7685C34.8672 15.2596 34.9589 18.8031 35.1424 23.3991C35.3162 28.1205 35.4031 31.6641 35.4031 34.0296C35.4031 34.329 35.3451 34.6138 35.2293 34.8841C35.1134 35.1545 34.9637 35.3717 34.7803 35.5359C34.5968 35.7 34.4134 35.7821 34.2299 35.7821C34.0368 35.7821 33.8775 35.6759 33.752 35.4635C33.6361 35.2607 33.5782 34.9759 33.5782 34.609C33.5782 32.9193 33.5589 30.8385 33.5203 28.3668C33.4816 25.895 33.4623 23.8142 33.4623 22.1245V20.6183C33.3368 21.3811 33.0327 22.7135 32.5499 24.6156C32.0671 26.5274 31.763 27.9902 31.6375 29.004V29.1923L31.5506 29.7426C31.5119 30.0323 31.4685 30.2737 31.4202 30.4668C31.3816 30.6502 31.3188 30.853 31.2319 31.0751C31.0581 31.5482 30.754 31.7848 30.3195 31.7848C29.6146 31.7848 29.2622 30.8627 29.2622 29.0185C29.2622 27.995 29.156 26.8943 28.9436 25.7163C28.7408 24.5384 28.4077 23.0853 27.9443 21.3569C27.4808 19.6769 27.1911 18.5665 27.0753 18.0258C27.0367 19.4259 27.0173 20.6183 27.0173 21.6032C27.0173 22.9549 27.0608 24.9874 27.1477 27.7005C27.2249 30.5875 27.2636 32.6199 27.2636 33.7979C27.2636 34.2324 27.1139 34.6041 26.8146 34.9131C26.3318 34.9131 25.9939 34.7586 25.8008 34.4496C25.6077 34.1407 25.5111 33.6869 25.5111 33.0882C25.5111 32.6634 25.5352 31.8572 25.5835 30.6696C25.6318 29.4916 25.6559 28.695 25.6559 28.2799C25.6559 26.9957 25.6415 25.0791 25.6125 22.5301C25.5739 20.2611 25.5546 18.3493 25.5546 16.7948C25.5546 15.5106 25.569 14.2313 25.598 12.9568L26.4235 12.4933C26.7132 12.503 27.0415 12.9423 27.4084 13.8113C27.9394 15.1244 28.5815 17.5817 29.3346 21.1831C29.6146 22.5156 29.8705 23.8094 30.1022 25.0646C30.3533 26.426 30.4981 27.1888 30.5367 27.3529C30.614 26.9571 30.7588 26.3005 30.9712 25.3832C31.0292 25.1129 31.0823 24.857 31.1305 24.6156C31.1885 24.3742 31.2416 24.1473 31.2899 23.9349C31.6857 22.1487 31.9706 20.8211 32.1444 19.9521C32.3182 19.0831 32.5064 18.0065 32.7092 16.7224ZM41.4738 28.2943C41.5221 29.8585 41.5462 30.9061 41.5462 31.4372V32.3206V32.7406C41.5365 32.8662 41.5317 33.0013 41.5317 33.1462H41.9228C42.0579 33.1462 42.1883 33.1413 42.3138 33.1317C42.4393 33.122 42.5938 33.1172 42.7773 33.1172C43.5883 33.1172 43.9938 33.3634 43.9938 33.8558C43.9938 34.1069 43.8925 34.3241 43.6897 34.5076C43.4966 34.6814 43.2697 34.7683 43.009 34.7683H41.7055C40.7786 34.7683 40.2041 34.749 39.982 34.7103L39.6199 34.7393C38.9151 34.7393 38.5627 34.5172 38.5627 34.0731C38.5627 33.8993 38.6206 33.7303 38.7365 33.5662C38.8523 33.3924 38.9682 33.3007 39.0841 33.291H39.9241L39.9531 33.1027L39.982 32.9C39.982 32.1082 39.9482 31.0558 39.8806 29.7426C39.8131 28.4295 39.7793 27.3819 39.7793 26.5998C39.7793 25.8564 39.8082 24.7556 39.8662 23.2977C39.9144 21.6756 39.9386 20.5749 39.9386 19.9955C39.9386 18.8272 39.8903 17.7651 39.7937 16.8093H39.2289C39.113 16.8093 39.002 16.8141 38.8958 16.8237C38.7896 16.8334 38.6737 16.8382 38.5482 16.8382C38.2392 16.8382 38.0075 16.7803 37.853 16.6644C37.6985 16.5486 37.6213 16.341 37.6213 16.0417C37.6213 15.5878 38.1089 15.3609 39.0841 15.3609H42.6179C43.0428 15.3609 43.3469 15.4189 43.5304 15.5347C43.7235 15.6699 43.82 15.8196 43.82 15.9837C43.82 16.1672 43.7331 16.3361 43.5593 16.4906C43.3855 16.6451 43.1876 16.7224 42.9655 16.7224H41.4448C41.5221 17.5913 41.5607 18.5086 41.5607 19.4741C41.5607 19.9569 41.5365 20.8983 41.4883 22.2983C41.4303 23.5535 41.4014 24.4998 41.4014 25.137C41.4014 25.6777 41.4255 26.7302 41.4738 28.2943ZM48.9783 20.9369L49.1666 22.0521C49.1859 21.917 49.2294 21.6707 49.297 21.3135C49.3066 21.2459 49.3163 21.188 49.3259 21.1397C49.3356 21.0914 49.3452 21.048 49.3549 21.0093C49.4514 20.4783 49.5142 20.0728 49.5432 19.7928C49.6204 19.1555 49.659 18.6341 49.659 18.2286V17.7217C49.6494 17.5769 49.6446 17.4224 49.6446 17.2582C49.6446 16.7079 49.7363 16.2879 49.9197 15.9982C50.1032 15.6989 50.4556 15.4816 50.977 15.3465L51.5274 16.0417C51.3825 16.2637 51.2667 16.5292 51.1798 16.8382C51.0929 17.1472 51.0446 17.4224 51.0349 17.6638C51.0253 17.8086 51.0204 18.1176 51.0204 18.5907V18.9383C50.7887 19.5562 50.5425 20.6521 50.2818 22.2259C50.0211 23.7998 49.8908 24.9391 49.8908 25.6439C49.8908 26.2233 50.0163 26.9715 50.2673 27.8888C50.5184 28.8061 50.8853 29.9985 51.368 31.4661L51.4984 31.8717C51.8556 32.9434 52.0343 33.7255 52.0343 34.2179C52.0343 34.4207 51.9522 34.5945 51.788 34.7393C51.6336 34.8841 51.4501 34.9566 51.2377 34.9566C51.0735 34.9566 50.9094 34.8648 50.7453 34.6814C50.5908 34.4979 50.4508 34.2421 50.3253 33.9138C50.0452 33.1896 49.828 32.4365 49.6735 31.6544C49.4708 30.6406 49.3308 29.902 49.2535 29.4385L49.1232 28.7288C49.0749 29.0185 48.988 29.7571 48.8625 30.9447C48.7369 32.0744 48.5728 32.9772 48.37 33.6531C48.3797 33.7014 48.3845 33.8172 48.3845 34.0007C48.3845 34.7345 48.1287 35.1014 47.6169 35.1014C47.3755 35.1014 47.1631 35.0386 46.9797 34.9131C46.8059 34.7876 46.719 34.6234 46.719 34.4207C46.719 33.7738 46.801 33.0738 46.9652 32.3206C47.1293 31.5675 47.3755 30.5827 47.7038 29.3661L47.979 28.3233C48.259 27.2516 48.399 26.2908 48.399 25.4412C48.399 25.0743 48.2735 24.268 48.0224 23.0225C47.7811 21.777 47.5107 20.57 47.2114 19.4017C46.9217 18.2334 46.7045 17.5479 46.5597 17.3451V17.0265C46.3762 16.843 46.2845 16.5968 46.2845 16.2879C46.2845 16.1044 46.3714 15.9596 46.5452 15.8534C46.7286 15.7375 46.9362 15.6796 47.1679 15.6796C47.3804 15.6796 47.5783 15.8534 47.7617 16.201C47.9259 16.5099 48.0755 16.9106 48.2107 17.4031C48.3459 17.8858 48.4956 18.5038 48.6597 19.2569L48.7321 19.619C48.8383 20.15 48.9204 20.5893 48.9783 20.9369ZM67.1592 34.2034V34.3772L66.4206 34.8841L65.6385 34.9131C65.1654 34.9421 64.755 34.9566 64.4074 34.9566C62.6984 34.9566 61.8439 34.6621 61.8439 34.0731C61.8439 33.6 62.1433 33.3634 62.7419 33.3634C62.8771 33.3634 62.9929 33.3682 63.0895 33.3779L63.3647 33.4069C63.5191 33.4069 63.6302 33.3586 63.6978 33.262C63.7654 33.1558 63.7992 32.9724 63.7992 32.7117C63.7992 31.1089 63.7074 28.8206 63.524 25.8467C63.3405 22.8825 63.2488 20.599 63.2488 18.9962L63.2778 17.4755L63.3067 15.9692C63.3067 15.3803 63.2826 14.8299 63.2343 14.3182C62.9736 14.4051 62.7419 14.4485 62.5391 14.4485C62.0757 14.4485 61.8439 14.212 61.8439 13.7388C61.8439 13.5071 61.9888 13.3043 62.2784 13.1306C62.5681 12.9471 62.9447 12.8119 63.4081 12.725C64.2095 12.5802 64.9095 12.5078 65.5082 12.5078C65.7399 12.5078 65.9426 12.5899 66.1164 12.754C66.2902 12.9085 66.3771 13.0968 66.3771 13.3188C66.3771 13.5313 66.3096 13.7195 66.1744 13.8837C66.0489 14.0382 65.8847 14.1154 65.682 14.1154C65.5661 14.1154 65.4695 14.1106 65.3923 14.1009H65.1606C64.9578 14.1009 64.813 14.1444 64.7261 14.2313C64.6392 14.3182 64.5957 14.4775 64.5957 14.7092C64.5957 16.7175 64.7164 19.6093 64.9578 23.3846C65.1992 27.1598 65.3199 30.0516 65.3199 32.0599V33.2041C65.5226 33.1751 65.7254 33.1606 65.9282 33.1606C66.7489 33.1606 67.1592 33.5082 67.1592 34.2034ZM72.1148 33.3779L72.0858 32.2482L72.1292 31.2344C72.052 31.0027 71.8975 28.8206 71.6658 24.688C71.4341 20.5459 71.3037 17.9245 71.2747 16.8237C70.1354 16.7948 69.3968 16.6693 69.0588 16.4472C68.8561 16.312 68.7547 16.143 68.7547 15.9403C68.7547 15.7665 68.8561 15.6168 69.0588 15.4913C69.2616 15.3658 69.474 15.303 69.6961 15.303C70.1402 15.303 70.8113 15.3465 71.7092 15.4334C72.5686 15.5299 73.2396 15.5782 73.7224 15.5782C73.8093 15.5782 73.8865 15.5734 73.9541 15.5637H74.2003C74.8183 15.5637 75.1272 15.8003 75.1272 16.2734C75.1272 16.5051 75.0259 16.6982 74.8231 16.8527C74.63 17.0072 74.4031 17.0844 74.1424 17.0844C73.9396 17.0844 73.6838 17.0506 73.3748 16.9831L72.781 16.8817L72.752 17.012L72.723 17.1858C72.723 19.1169 72.8872 21.9218 73.2155 25.6005C73.5438 29.2792 73.7079 32.0889 73.7079 34.0296C73.7079 34.2614 73.6017 34.469 73.3893 34.6524C73.1865 34.8262 72.9548 34.9131 72.6941 34.9131L72.1437 34.5221L72.1148 33.3779ZM84.9369 16.4037C84.9466 15.7085 84.9514 14.9796 84.9514 14.2168C84.8066 14.0526 84.7341 13.8499 84.7341 13.6085C84.7341 13.3671 84.8162 13.1547 84.9804 12.9712C85.1542 12.7878 85.3569 12.6961 85.5886 12.6961C86.3031 12.6961 86.6604 13.4009 86.6604 14.8106C86.6604 16.0561 86.7087 17.77 86.8052 19.9521C86.8921 22.2501 86.9356 23.9736 86.9356 25.1225C87.0418 25.3639 87.1383 25.8708 87.2252 26.6433C87.3121 27.4157 87.3556 28.0578 87.3556 28.5695C87.3556 29.004 87.428 29.5399 87.5728 30.1771C87.7177 30.8144 87.9108 31.4613 88.1522 32.1179C88.4128 32.8034 88.7508 33.3731 89.166 33.8269C89.5908 34.271 90.0301 34.4931 90.4839 34.4931C90.7639 34.4931 90.9957 34.4062 91.1791 34.2324C91.3626 34.0489 91.4881 33.7882 91.5557 33.4503C91.6233 33.122 91.6667 32.8517 91.686 32.6393C91.7053 32.4172 91.715 32.1468 91.715 31.8282V26.035C91.715 25.3591 91.6522 24.4274 91.5267 23.2397C91.4012 22.0521 91.3384 21.1204 91.3384 20.4445V20.2417L91.3095 19.3728L91.2805 18.5183C91.2805 17.881 91.2467 17.0362 91.1791 15.9837C91.1019 14.7768 91.0633 13.9271 91.0633 13.4347C91.0633 13.203 91.1791 13.0099 91.4108 12.8554C91.6426 12.7009 91.8984 12.6236 92.1784 12.6236L92.9026 13.3188V13.8113C92.9026 14.0333 92.8688 14.3278 92.8012 14.6947C92.724 15.1292 92.6854 15.4382 92.6854 15.6216C92.6854 17.3596 92.7771 19.8459 92.9605 23.0804C93.1343 26.3922 93.2212 28.975 93.2212 30.8289C93.2212 31.3696 93.2019 31.833 93.1633 32.2192C93.1247 32.6055 93.0523 33.0062 92.9461 33.4213C92.8302 33.8751 92.666 34.2469 92.4536 34.5365C92.2509 34.8165 91.9709 35.0531 91.6136 35.2462C91.2274 35.4393 90.7881 35.5359 90.2956 35.5359C89.697 35.5359 89.1515 35.4007 88.6591 35.1303C88.1666 34.86 87.7418 34.4641 87.3846 33.9427C87.008 33.402 86.6845 32.8082 86.4142 32.1613C86.1438 31.5144 85.9266 30.7709 85.7624 29.9309C85.579 29.004 85.4293 28.1254 85.3135 27.295C85.2073 26.455 85.1252 25.5377 85.0673 24.5432C84.9707 22.8052 84.9224 20.908 84.9224 18.8514C84.9224 17.9148 84.9273 17.0989 84.9369 16.4037ZM96.4243 19.3583C96.4243 18.132 96.3471 17.2148 96.1926 16.6065C96.2505 16.3265 96.3471 16.0851 96.4822 15.8823C96.6271 15.6699 96.796 15.5637 96.9892 15.5637H98.2926C98.8526 15.5637 99.3402 15.6892 99.7554 15.9403C100.171 16.1913 100.484 16.5389 100.697 16.9831C101.102 17.8327 101.305 18.7983 101.305 19.8797C101.305 20.6618 101.291 21.2845 101.262 21.748C101.242 22.0763 101.213 22.3418 101.175 22.5446C101.136 22.7377 101.073 22.9935 100.986 23.3122C100.909 23.5729 100.818 23.7901 100.711 23.9639C100.615 24.128 100.47 24.326 100.277 24.5577C100.113 24.7605 99.9196 24.9343 99.6975 25.0791C99.4851 25.2239 99.2195 25.3688 98.9009 25.5136C98.5919 25.6584 98.2588 25.7888 97.9016 25.9046V29.0764C97.9016 29.6171 97.9402 30.5537 98.0174 31.8861C98.0947 33.2186 98.1333 34.1552 98.1333 34.6959C98.1333 34.9276 98.0319 35.1303 97.8292 35.3041C97.6264 35.4779 97.3947 35.5648 97.134 35.5648L96.5112 35.2028C96.2698 34.1407 96.1491 32.6875 96.1491 30.8434C96.1491 30.1192 96.1684 29.2357 96.2071 28.193C96.2457 27.1502 96.265 26.2715 96.265 25.557C96.1491 25.2963 96.0912 25.055 96.0912 24.8329V24.7315C96.2843 24.326 96.3809 23.4763 96.3809 22.1825L96.4098 20.8211C96.4195 20.3962 96.4243 19.9086 96.4243 19.3583ZM98.8864 17.3741C98.6933 17.2679 98.4568 17.2148 98.1768 17.2148C98.1768 17.1858 98.0706 17.1713 97.8581 17.1713V18.8514L97.8871 21.9652L97.9161 24.6301V24.6736C99.094 24.5094 99.683 22.839 99.683 19.6624C99.683 19.3341 99.6733 19.0879 99.654 18.9238C99.6444 18.75 99.6154 18.5521 99.5671 18.33C99.5092 18.0886 99.4271 17.8955 99.3209 17.7507C99.2244 17.6058 99.0795 17.4803 98.8864 17.3741Z"/>
</mask>
<path d="M32.7092 16.7224C32.9023 15.4285 33.0375 14.1975 33.1147 13.0292V12.8554C33.1533 12.6043 33.2692 12.4016 33.4623 12.2471C33.6651 12.0926 33.9016 12.0154 34.172 12.0154C34.3458 12.0154 34.5051 12.0974 34.6499 12.2616C34.7948 12.4161 34.8672 12.585 34.8672 12.7685C34.8672 15.2596 34.9589 18.8031 35.1424 23.3991C35.3162 28.1205 35.4031 31.6641 35.4031 34.0296C35.4031 34.329 35.3451 34.6138 35.2293 34.8841C35.1134 35.1545 34.9637 35.3717 34.7803 35.5359C34.5968 35.7 34.4134 35.7821 34.2299 35.7821C34.0368 35.7821 33.8775 35.6759 33.752 35.4635C33.6361 35.2607 33.5782 34.9759 33.5782 34.609C33.5782 32.9193 33.5589 30.8385 33.5203 28.3668C33.4816 25.895 33.4623 23.8142 33.4623 22.1245V20.6183C33.3368 21.3811 33.0327 22.7135 32.5499 24.6156C32.0671 26.5274 31.763 27.9902 31.6375 29.004V29.1923L31.5506 29.7426C31.5119 30.0323 31.4685 30.2737 31.4202 30.4668C31.3816 30.6502 31.3188 30.853 31.2319 31.0751C31.0581 31.5482 30.754 31.7848 30.3195 31.7848C29.6146 31.7848 29.2622 30.8627 29.2622 29.0185C29.2622 27.995 29.156 26.8943 28.9436 25.7163C28.7408 24.5384 28.4077 23.0853 27.9443 21.3569C27.4808 19.6769 27.1911 18.5665 27.0753 18.0258C27.0367 19.4259 27.0173 20.6183 27.0173 21.6032C27.0173 22.9549 27.0608 24.9874 27.1477 27.7005C27.2249 30.5875 27.2636 32.6199 27.2636 33.7979C27.2636 34.2324 27.1139 34.6041 26.8146 34.9131C26.3318 34.9131 25.9939 34.7586 25.8008 34.4496C25.6077 34.1407 25.5111 33.6869 25.5111 33.0882C25.5111 32.6634 25.5352 31.8572 25.5835 30.6696C25.6318 29.4916 25.6559 28.695 25.6559 28.2799C25.6559 26.9957 25.6415 25.0791 25.6125 22.5301C25.5739 20.2611 25.5546 18.3493 25.5546 16.7948C25.5546 15.5106 25.569 14.2313 25.598 12.9568L26.4235 12.4933C26.7132 12.503 27.0415 12.9423 27.4084 13.8113C27.9394 15.1244 28.5815 17.5817 29.3346 21.1831C29.6146 22.5156 29.8705 23.8094 30.1022 25.0646C30.3533 26.426 30.4981 27.1888 30.5367 27.3529C30.614 26.9571 30.7588 26.3005 30.9712 25.3832C31.0292 25.1129 31.0823 24.857 31.1305 24.6156C31.1885 24.3742 31.2416 24.1473 31.2899 23.9349C31.6857 22.1487 31.9706 20.8211 32.1444 19.9521C32.3182 19.0831 32.5064 18.0065 32.7092 16.7224ZM41.4738 28.2943C41.5221 29.8585 41.5462 30.9061 41.5462 31.4372V32.3206V32.7406C41.5365 32.8662 41.5317 33.0013 41.5317 33.1462H41.9228C42.0579 33.1462 42.1883 33.1413 42.3138 33.1317C42.4393 33.122 42.5938 33.1172 42.7773 33.1172C43.5883 33.1172 43.9938 33.3634 43.9938 33.8558C43.9938 34.1069 43.8925 34.3241 43.6897 34.5076C43.4966 34.6814 43.2697 34.7683 43.009 34.7683H41.7055C40.7786 34.7683 40.2041 34.749 39.982 34.7103L39.6199 34.7393C38.9151 34.7393 38.5627 34.5172 38.5627 34.0731C38.5627 33.8993 38.6206 33.7303 38.7365 33.5662C38.8523 33.3924 38.9682 33.3007 39.0841 33.291H39.9241L39.9531 33.1027L39.982 32.9C39.982 32.1082 39.9482 31.0558 39.8806 29.7426C39.8131 28.4295 39.7793 27.3819 39.7793 26.5998C39.7793 25.8564 39.8082 24.7556 39.8662 23.2977C39.9144 21.6756 39.9386 20.5749 39.9386 19.9955C39.9386 18.8272 39.8903 17.7651 39.7937 16.8093H39.2289C39.113 16.8093 39.002 16.8141 38.8958 16.8237C38.7896 16.8334 38.6737 16.8382 38.5482 16.8382C38.2392 16.8382 38.0075 16.7803 37.853 16.6644C37.6985 16.5486 37.6213 16.341 37.6213 16.0417C37.6213 15.5878 38.1089 15.3609 39.0841 15.3609H42.6179C43.0428 15.3609 43.3469 15.4189 43.5304 15.5347C43.7235 15.6699 43.82 15.8196 43.82 15.9837C43.82 16.1672 43.7331 16.3361 43.5593 16.4906C43.3855 16.6451 43.1876 16.7224 42.9655 16.7224H41.4448C41.5221 17.5913 41.5607 18.5086 41.5607 19.4741C41.5607 19.9569 41.5365 20.8983 41.4883 22.2983C41.4303 23.5535 41.4014 24.4998 41.4014 25.137C41.4014 25.6777 41.4255 26.7302 41.4738 28.2943ZM48.9783 20.9369L49.1666 22.0521C49.1859 21.917 49.2294 21.6707 49.297 21.3135C49.3066 21.2459 49.3163 21.188 49.3259 21.1397C49.3356 21.0914 49.3452 21.048 49.3549 21.0093C49.4514 20.4783 49.5142 20.0728 49.5432 19.7928C49.6204 19.1555 49.659 18.6341 49.659 18.2286V17.7217C49.6494 17.5769 49.6446 17.4224 49.6446 17.2582C49.6446 16.7079 49.7363 16.2879 49.9197 15.9982C50.1032 15.6989 50.4556 15.4816 50.977 15.3465L51.5274 16.0417C51.3825 16.2637 51.2667 16.5292 51.1798 16.8382C51.0929 17.1472 51.0446 17.4224 51.0349 17.6638C51.0253 17.8086 51.0204 18.1176 51.0204 18.5907V18.9383C50.7887 19.5562 50.5425 20.6521 50.2818 22.2259C50.0211 23.7998 49.8908 24.9391 49.8908 25.6439C49.8908 26.2233 50.0163 26.9715 50.2673 27.8888C50.5184 28.8061 50.8853 29.9985 51.368 31.4661L51.4984 31.8717C51.8556 32.9434 52.0343 33.7255 52.0343 34.2179C52.0343 34.4207 51.9522 34.5945 51.788 34.7393C51.6336 34.8841 51.4501 34.9566 51.2377 34.9566C51.0735 34.9566 50.9094 34.8648 50.7453 34.6814C50.5908 34.4979 50.4508 34.2421 50.3253 33.9138C50.0452 33.1896 49.828 32.4365 49.6735 31.6544C49.4708 30.6406 49.3308 29.902 49.2535 29.4385L49.1232 28.7288C49.0749 29.0185 48.988 29.7571 48.8625 30.9447C48.7369 32.0744 48.5728 32.9772 48.37 33.6531C48.3797 33.7014 48.3845 33.8172 48.3845 34.0007C48.3845 34.7345 48.1287 35.1014 47.6169 35.1014C47.3755 35.1014 47.1631 35.0386 46.9797 34.9131C46.8059 34.7876 46.719 34.6234 46.719 34.4207C46.719 33.7738 46.801 33.0738 46.9652 32.3206C47.1293 31.5675 47.3755 30.5827 47.7038 29.3661L47.979 28.3233C48.259 27.2516 48.399 26.2908 48.399 25.4412C48.399 25.0743 48.2735 24.268 48.0224 23.0225C47.7811 21.777 47.5107 20.57 47.2114 19.4017C46.9217 18.2334 46.7045 17.5479 46.5597 17.3451V17.0265C46.3762 16.843 46.2845 16.5968 46.2845 16.2879C46.2845 16.1044 46.3714 15.9596 46.5452 15.8534C46.7286 15.7375 46.9362 15.6796 47.1679 15.6796C47.3804 15.6796 47.5783 15.8534 47.7617 16.201C47.9259 16.5099 48.0755 16.9106 48.2107 17.4031C48.3459 17.8858 48.4956 18.5038 48.6597 19.2569L48.7321 19.619C48.8383 20.15 48.9204 20.5893 48.9783 20.9369ZM67.1592 34.2034V34.3772L66.4206 34.8841L65.6385 34.9131C65.1654 34.9421 64.755 34.9566 64.4074 34.9566C62.6984 34.9566 61.8439 34.6621 61.8439 34.0731C61.8439 33.6 62.1433 33.3634 62.7419 33.3634C62.8771 33.3634 62.9929 33.3682 63.0895 33.3779L63.3647 33.4069C63.5191 33.4069 63.6302 33.3586 63.6978 33.262C63.7654 33.1558 63.7992 32.9724 63.7992 32.7117C63.7992 31.1089 63.7074 28.8206 63.524 25.8467C63.3405 22.8825 63.2488 20.599 63.2488 18.9962L63.2778 17.4755L63.3067 15.9692C63.3067 15.3803 63.2826 14.8299 63.2343 14.3182C62.9736 14.4051 62.7419 14.4485 62.5391 14.4485C62.0757 14.4485 61.8439 14.212 61.8439 13.7388C61.8439 13.5071 61.9888 13.3043 62.2784 13.1306C62.5681 12.9471 62.9447 12.8119 63.4081 12.725C64.2095 12.5802 64.9095 12.5078 65.5082 12.5078C65.7399 12.5078 65.9426 12.5899 66.1164 12.754C66.2902 12.9085 66.3771 13.0968 66.3771 13.3188C66.3771 13.5313 66.3096 13.7195 66.1744 13.8837C66.0489 14.0382 65.8847 14.1154 65.682 14.1154C65.5661 14.1154 65.4695 14.1106 65.3923 14.1009H65.1606C64.9578 14.1009 64.813 14.1444 64.7261 14.2313C64.6392 14.3182 64.5957 14.4775 64.5957 14.7092C64.5957 16.7175 64.7164 19.6093 64.9578 23.3846C65.1992 27.1598 65.3199 30.0516 65.3199 32.0599V33.2041C65.5226 33.1751 65.7254 33.1606 65.9282 33.1606C66.7489 33.1606 67.1592 33.5082 67.1592 34.2034ZM72.1148 33.3779L72.0858 32.2482L72.1292 31.2344C72.052 31.0027 71.8975 28.8206 71.6658 24.688C71.4341 20.5459 71.3037 17.9245 71.2747 16.8237C70.1354 16.7948 69.3968 16.6693 69.0588 16.4472C68.8561 16.312 68.7547 16.143 68.7547 15.9403C68.7547 15.7665 68.8561 15.6168 69.0588 15.4913C69.2616 15.3658 69.474 15.303 69.6961 15.303C70.1402 15.303 70.8113 15.3465 71.7092 15.4334C72.5686 15.5299 73.2396 15.5782 73.7224 15.5782C73.8093 15.5782 73.8865 15.5734 73.9541 15.5637H74.2003C74.8183 15.5637 75.1272 15.8003 75.1272 16.2734C75.1272 16.5051 75.0259 16.6982 74.8231 16.8527C74.63 17.0072 74.4031 17.0844 74.1424 17.0844C73.9396 17.0844 73.6838 17.0506 73.3748 16.9831L72.781 16.8817L72.752 17.012L72.723 17.1858C72.723 19.1169 72.8872 21.9218 73.2155 25.6005C73.5438 29.2792 73.7079 32.0889 73.7079 34.0296C73.7079 34.2614 73.6017 34.469 73.3893 34.6524C73.1865 34.8262 72.9548 34.9131 72.6941 34.9131L72.1437 34.5221L72.1148 33.3779ZM84.9369 16.4037C84.9466 15.7085 84.9514 14.9796 84.9514 14.2168C84.8066 14.0526 84.7341 13.8499 84.7341 13.6085C84.7341 13.3671 84.8162 13.1547 84.9804 12.9712C85.1542 12.7878 85.3569 12.6961 85.5886 12.6961C86.3031 12.6961 86.6604 13.4009 86.6604 14.8106C86.6604 16.0561 86.7087 17.77 86.8052 19.9521C86.8921 22.2501 86.9356 23.9736 86.9356 25.1225C87.0418 25.3639 87.1383 25.8708 87.2252 26.6433C87.3121 27.4157 87.3556 28.0578 87.3556 28.5695C87.3556 29.004 87.428 29.5399 87.5728 30.1771C87.7177 30.8144 87.9108 31.4613 88.1522 32.1179C88.4128 32.8034 88.7508 33.3731 89.166 33.8269C89.5908 34.271 90.0301 34.4931 90.4839 34.4931C90.7639 34.4931 90.9957 34.4062 91.1791 34.2324C91.3626 34.0489 91.4881 33.7882 91.5557 33.4503C91.6233 33.122 91.6667 32.8517 91.686 32.6393C91.7053 32.4172 91.715 32.1468 91.715 31.8282V26.035C91.715 25.3591 91.6522 24.4274 91.5267 23.2397C91.4012 22.0521 91.3384 21.1204 91.3384 20.4445V20.2417L91.3095 19.3728L91.2805 18.5183C91.2805 17.881 91.2467 17.0362 91.1791 15.9837C91.1019 14.7768 91.0633 13.9271 91.0633 13.4347C91.0633 13.203 91.1791 13.0099 91.4108 12.8554C91.6426 12.7009 91.8984 12.6236 92.1784 12.6236L92.9026 13.3188V13.8113C92.9026 14.0333 92.8688 14.3278 92.8012 14.6947C92.724 15.1292 92.6854 15.4382 92.6854 15.6216C92.6854 17.3596 92.7771 19.8459 92.9605 23.0804C93.1343 26.3922 93.2212 28.975 93.2212 30.8289C93.2212 31.3696 93.2019 31.833 93.1633 32.2192C93.1247 32.6055 93.0523 33.0062 92.9461 33.4213C92.8302 33.8751 92.666 34.2469 92.4536 34.5365C92.2509 34.8165 91.9709 35.0531 91.6136 35.2462C91.2274 35.4393 90.7881 35.5359 90.2956 35.5359C89.697 35.5359 89.1515 35.4007 88.6591 35.1303C88.1666 34.86 87.7418 34.4641 87.3846 33.9427C87.008 33.402 86.6845 32.8082 86.4142 32.1613C86.1438 31.5144 85.9266 30.7709 85.7624 29.9309C85.579 29.004 85.4293 28.1254 85.3135 27.295C85.2073 26.455 85.1252 25.5377 85.0673 24.5432C84.9707 22.8052 84.9224 20.908 84.9224 18.8514C84.9224 17.9148 84.9273 17.0989 84.9369 16.4037ZM96.4243 19.3583C96.4243 18.132 96.3471 17.2148 96.1926 16.6065C96.2505 16.3265 96.3471 16.0851 96.4822 15.8823C96.6271 15.6699 96.796 15.5637 96.9892 15.5637H98.2926C98.8526 15.5637 99.3402 15.6892 99.7554 15.9403C100.171 16.1913 100.484 16.5389 100.697 16.9831C101.102 17.8327 101.305 18.7983 101.305 19.8797C101.305 20.6618 101.291 21.2845 101.262 21.748C101.242 22.0763 101.213 22.3418 101.175 22.5446C101.136 22.7377 101.073 22.9935 100.986 23.3122C100.909 23.5729 100.818 23.7901 100.711 23.9639C100.615 24.128 100.47 24.326 100.277 24.5577C100.113 24.7605 99.9196 24.9343 99.6975 25.0791C99.4851 25.2239 99.2195 25.3688 98.9009 25.5136C98.5919 25.6584 98.2588 25.7888 97.9016 25.9046V29.0764C97.9016 29.6171 97.9402 30.5537 98.0174 31.8861C98.0947 33.2186 98.1333 34.1552 98.1333 34.6959C98.1333 34.9276 98.0319 35.1303 97.8292 35.3041C97.6264 35.4779 97.3947 35.5648 97.134 35.5648L96.5112 35.2028C96.2698 34.1407 96.1491 32.6875 96.1491 30.8434C96.1491 30.1192 96.1684 29.2357 96.2071 28.193C96.2457 27.1502 96.265 26.2715 96.265 25.557C96.1491 25.2963 96.0912 25.055 96.0912 24.8329V24.7315C96.2843 24.326 96.3809 23.4763 96.3809 22.1825L96.4098 20.8211C96.4195 20.3962 96.4243 19.9086 96.4243 19.3583ZM98.8864 17.3741C98.6933 17.2679 98.4568 17.2148 98.1768 17.2148C98.1768 17.1858 98.0706 17.1713 97.8581 17.1713V18.8514L97.8871 21.9652L97.9161 24.6301V24.6736C99.094 24.5094 99.683 22.839 99.683 19.6624C99.683 19.3341 99.6733 19.0879 99.654 18.9238C99.6444 18.75 99.6154 18.5521 99.5671 18.33C99.5092 18.0886 99.4271 17.8955 99.3209 17.7507C99.2244 17.6058 99.0795 17.4803 98.8864 17.3741Z" fill="white"/>
<path d="M32.7092 16.7224L32.8109 16.7384L32.8111 16.7376L32.7092 16.7224ZM33.1147 13.0292L33.2177 13.036V13.0292H33.1147ZM33.1147 12.8554L33.0129 12.8397L33.0117 12.8475V12.8554H33.1147ZM33.4623 12.2471L33.3999 12.1651L33.398 12.1667L33.4623 12.2471ZM34.6499 12.2616L34.5727 12.3297L34.5748 12.332L34.6499 12.2616ZM35.1424 23.3991L35.2453 23.3953L35.2453 23.3949L35.1424 23.3991ZM34.7803 35.5359L34.7116 35.4591L34.7803 35.5359ZM33.752 35.4635L33.6625 35.5146L33.6633 35.5159L33.752 35.4635ZM33.4623 20.6183H33.5653L33.3607 20.6016L33.4623 20.6183ZM32.5499 24.6156L32.4501 24.5903L32.45 24.5904L32.5499 24.6156ZM31.6375 29.004L31.5345 28.9913V29.004H31.6375ZM31.6375 29.1923L31.7392 29.2083L31.7404 29.2004V29.1923H31.6375ZM31.5506 29.7426L31.4488 29.7266L31.4485 29.729L31.5506 29.7426ZM31.4202 30.4668L31.3202 30.4418L31.3194 30.4456L31.4202 30.4668ZM31.2319 31.0751L31.136 31.0375L31.1353 31.0396L31.2319 31.0751ZM28.9436 25.7163L28.8421 25.7338L28.8422 25.7346L28.9436 25.7163ZM27.9443 21.3569L28.0437 21.3303L28.0435 21.3296L27.9443 21.3569ZM27.0753 18.0258L27.176 18.0043L26.9723 18.023L27.0753 18.0258ZM27.1477 27.7005L27.2507 27.6978L27.2506 27.6972L27.1477 27.7005ZM26.8146 34.9131V35.0161H26.8582L26.8886 34.9848L26.8146 34.9131ZM25.5835 30.6696L25.4806 30.6653L25.4806 30.6654L25.5835 30.6696ZM25.6125 22.5301L25.7155 22.5289L25.7155 22.5283L25.6125 22.5301ZM25.598 12.9568L25.5476 12.8669L25.4964 12.8957L25.495 12.9544L25.598 12.9568ZM26.4235 12.4933L26.427 12.3904L26.3982 12.3894L26.3731 12.4035L26.4235 12.4933ZM27.4084 13.8113L27.5039 13.7726L27.5033 13.7712L27.4084 13.8113ZM29.3346 21.1831L29.2338 21.2042L29.2339 21.2043L29.3346 21.1831ZM30.1022 25.0646L30.2035 25.0459L30.2035 25.0459L30.1022 25.0646ZM30.5367 27.3529L30.4365 27.3765L30.6378 27.3727L30.5367 27.3529ZM30.9712 25.3832L31.0716 25.4065L31.0719 25.4048L30.9712 25.3832ZM31.1305 24.6156L31.0303 24.5916L31.0296 24.5954L31.1305 24.6156ZM31.2899 23.9349L31.3903 23.9578L31.3904 23.9572L31.2899 23.9349ZM32.8111 16.7376C33.0045 15.4413 33.14 14.2074 33.2175 13.036L33.012 13.0224C32.9349 14.1876 32.8001 15.4158 32.6073 16.7072L32.8111 16.7376ZM33.2177 13.0292V12.8554H33.0117V13.0292H33.2177ZM33.2165 12.871C33.2513 12.6448 33.3543 12.4654 33.5267 12.3275L33.398 12.1667C33.1841 12.3378 33.0554 12.5639 33.0129 12.8397L33.2165 12.871ZM33.5247 12.329C33.7084 12.189 33.9227 12.1183 34.172 12.1183V11.9124C33.8805 11.9124 33.6217 11.9962 33.3999 12.1652L33.5247 12.329ZM34.172 12.1183C34.3089 12.1183 34.442 12.1815 34.5727 12.3297L34.7272 12.1934C34.5682 12.0133 34.3827 11.9124 34.172 11.9124V12.1183ZM34.5748 12.332C34.7047 12.4706 34.7642 12.6152 34.7642 12.7685H34.9702C34.9702 12.5548 34.8848 12.3615 34.7251 12.1911L34.5748 12.332ZM34.7642 12.7685C34.7642 15.2616 34.856 18.8068 35.0394 23.4032L35.2453 23.3949C35.0618 18.7994 34.9702 15.2575 34.9702 12.7685H34.7642ZM35.0394 23.4028C35.2132 28.124 35.3001 31.666 35.3001 34.0296H35.506C35.506 31.6621 35.4191 28.117 35.2453 23.3953L35.0394 23.4028ZM35.3001 34.0296C35.3001 34.3153 35.2449 34.5863 35.1346 34.8436L35.3239 34.9247C35.4454 34.6413 35.506 34.3426 35.506 34.0296H35.3001ZM35.1346 34.8436C35.0235 35.1028 34.8819 35.3068 34.7116 35.4591L34.849 35.6126C35.0456 35.4367 35.2033 35.2062 35.3239 34.9247L35.1346 34.8436ZM34.7116 35.4591C34.5405 35.6122 34.3804 35.6791 34.2299 35.6791V35.8851C34.4463 35.8851 34.6532 35.7878 34.849 35.6126L34.7116 35.4591ZM34.2299 35.6791C34.0835 35.6791 33.9536 35.6021 33.8406 35.4111L33.6633 35.5159C33.8014 35.7496 33.9901 35.8851 34.2299 35.8851V35.6791ZM33.8414 35.4124C33.7381 35.2316 33.6812 34.9672 33.6812 34.609H33.4752C33.4752 34.9845 33.5341 35.2898 33.6626 35.5146L33.8414 35.4124ZM33.6812 34.609C33.6812 32.9185 33.6619 30.8372 33.6232 28.3651L33.4173 28.3684C33.4559 30.8398 33.4752 32.92 33.4752 34.609H33.6812ZM33.6232 28.3651C33.5846 25.8937 33.5653 23.8135 33.5653 22.1245H33.3593C33.3593 23.815 33.3786 25.8963 33.4173 28.3684L33.6232 28.3651ZM33.5653 22.1245V20.6183H33.3593V22.1245H33.5653ZM33.3607 20.6016C33.236 21.3595 32.9329 22.688 32.4501 24.5903L32.6497 24.641C33.1324 22.739 33.4376 21.4027 33.5639 20.635L33.3607 20.6016ZM32.45 24.5904C31.967 26.5033 31.6616 27.971 31.5352 28.9914L31.7397 29.0167C31.8644 28.0093 32.1672 26.5515 32.6497 24.6408L32.45 24.5904ZM31.5345 29.004V29.1923H31.7404V29.004H31.5345ZM31.5357 29.1762L31.4488 29.7266L31.6523 29.7587L31.7392 29.2083L31.5357 29.1762ZM31.4485 29.729C31.4101 30.0165 31.3673 30.2537 31.3203 30.4418L31.5201 30.4918C31.5697 30.2936 31.6137 30.0481 31.6526 29.7563L31.4485 29.729ZM31.3194 30.4456C31.2822 30.6222 31.2214 30.8194 31.136 31.0376L31.3278 31.1126C31.4163 30.8866 31.4809 30.6783 31.521 30.488L31.3194 30.4456ZM31.1353 31.0396C31.053 31.2635 30.9431 31.4227 30.8102 31.526C30.6785 31.6285 30.5169 31.6818 30.3195 31.6818V31.8877C30.5566 31.8877 30.7643 31.8228 30.9367 31.6886C31.108 31.5554 31.2371 31.3598 31.3286 31.1106L31.1353 31.0396ZM30.3195 31.6818C30.168 31.6818 30.0379 31.6331 29.9246 31.5342C29.8093 31.4337 29.7071 31.2772 29.6227 31.0564C29.4534 30.6133 29.3652 29.937 29.3652 29.0185H29.1592C29.1592 29.9442 29.2473 30.651 29.4303 31.13C29.5222 31.3702 29.6403 31.5596 29.7892 31.6895C29.9403 31.8212 30.1185 31.8877 30.3195 31.8877V31.6818ZM29.3652 29.0185C29.3652 27.988 29.2583 26.8811 29.045 25.6981L28.8422 25.7346C29.0538 26.9075 29.1592 28.0021 29.1592 29.0185H29.3652ZM29.0451 25.6989C28.8416 24.5167 28.5077 23.0603 28.0437 21.3303L27.8448 21.3836C28.3078 23.1102 28.6401 24.5601 28.8421 25.7338L29.0451 25.6989ZM28.0435 21.3296C27.5799 19.6489 27.2911 18.5415 27.176 18.0043L26.9746 18.0474C27.0912 18.5916 27.3817 19.7049 27.845 21.3843L28.0435 21.3296ZM26.9723 18.023C26.9337 19.4236 26.9144 20.6171 26.9144 21.6032H27.1203C27.1203 20.6196 27.1396 19.4281 27.1782 18.0287L26.9723 18.023ZM26.9144 21.6032C26.9144 22.9566 26.9579 24.9904 27.0448 27.7038L27.2506 27.6972C27.1637 24.9843 27.1203 22.9532 27.1203 21.6032H26.9144ZM27.0447 27.7033C27.122 30.5903 27.1606 32.6215 27.1606 33.7979H27.3666C27.3666 32.6184 27.3279 30.5847 27.2507 27.6978L27.0447 27.7033ZM27.1606 33.7979C27.1606 34.2059 27.0211 34.5519 26.7406 34.8414L26.8886 34.9848C27.2067 34.6564 27.3666 34.2588 27.3666 33.7979H27.1606ZM26.8146 34.8101C26.3544 34.8101 26.0564 34.6644 25.8881 34.3951L25.7134 34.5042C25.9313 34.8529 26.3093 35.0161 26.8146 35.0161V34.8101ZM25.8881 34.3951C25.7099 34.1099 25.6141 33.6787 25.6141 33.0882H25.4081C25.4081 33.695 25.5055 34.1715 25.7134 34.5042L25.8881 34.3951ZM25.6141 33.0882C25.6141 32.6658 25.6381 31.8616 25.6864 30.6737L25.4806 30.6654C25.4324 31.8528 25.4081 32.661 25.4081 33.0882H25.6141ZM25.6864 30.6738C25.7347 29.4961 25.7589 28.6975 25.7589 28.2799H25.5529C25.5529 28.6926 25.5289 29.4871 25.4806 30.6653L25.6864 30.6738ZM25.7589 28.2799C25.7589 26.9951 25.7444 25.078 25.7155 22.5289L25.5095 22.5312C25.5385 25.0802 25.5529 26.9963 25.5529 28.2799H25.7589ZM25.7155 22.5283C25.6769 20.2596 25.6575 18.3485 25.6575 16.7948H25.4516C25.4516 18.3501 25.4709 20.2625 25.5095 22.5318L25.7155 22.5283ZM25.6575 16.7948C25.6575 15.5114 25.672 14.2328 25.701 12.9591L25.495 12.9544C25.4661 14.2297 25.4516 15.5098 25.4516 16.7948H25.6575ZM25.6484 13.0466L26.474 12.5831L26.3731 12.4035L25.5476 12.8669L25.6484 13.0466ZM26.4201 12.5962C26.5148 12.5994 26.6437 12.6764 26.8045 12.8917C26.9613 13.1016 27.1313 13.4198 27.3135 13.8513L27.5033 13.7712C27.3185 13.3337 27.1409 12.9978 26.9695 12.7684C26.8021 12.5443 26.622 12.3969 26.427 12.3904L26.4201 12.5962ZM27.3129 13.8499C27.8401 15.1534 28.4806 17.6022 29.2338 21.2042L29.4355 21.1621C28.6824 17.5611 28.0388 15.0954 27.5039 13.7726L27.3129 13.8499ZM29.2339 21.2043C29.5137 22.536 29.7694 23.829 30.001 25.0833L30.2035 25.0459C29.9716 23.7898 29.7156 22.4952 29.4354 21.162L29.2339 21.2043ZM30.001 25.0833C30.2516 26.4428 30.3971 27.2092 30.4365 27.3765L30.637 27.3293C30.5991 27.1684 30.4549 26.4093 30.2035 25.0459L30.001 25.0833ZM30.6378 27.3727C30.7147 26.9787 30.8592 26.3237 31.0716 25.4065L30.8709 25.36C30.6585 26.2773 30.5133 26.9354 30.4357 27.3332L30.6378 27.3727ZM31.0719 25.4048C31.13 25.1341 31.1832 24.8777 31.2315 24.6358L31.0296 24.5954C30.9814 24.8363 30.9284 25.0917 30.8705 25.3617L31.0719 25.4048ZM31.2307 24.6397C31.2887 24.3979 31.3419 24.1706 31.3903 23.9578L31.1894 23.9121C31.1413 24.1241 31.0882 24.3506 31.0304 24.5916L31.2307 24.6397ZM31.3904 23.9572C31.7863 22.1708 32.0713 20.8424 32.2453 19.9723L32.0434 19.9319C31.8698 20.7998 31.5851 22.1265 31.1893 23.9126L31.3904 23.9572ZM32.2453 19.9723C32.4195 19.1015 32.608 18.0234 32.8109 16.7384L32.6075 16.7063C32.4048 17.9896 32.2168 19.0647 32.0434 19.9319L32.2453 19.9723ZM41.5462 32.7406L41.6492 32.7486V32.7406H41.5462ZM41.5317 33.1462H41.4287V33.2492H41.5317V33.1462ZM43.6897 34.5076L43.7586 34.5841L43.7588 34.5839L43.6897 34.5076ZM39.982 34.7103L39.9997 34.6089L39.9868 34.6066L39.9738 34.6077L39.982 34.7103ZM39.6199 34.7393V34.8426L39.6282 34.842L39.6199 34.7393ZM38.7365 33.5662L38.8206 33.6256L38.8222 33.6233L38.7365 33.5662ZM39.0841 33.291V33.1876L39.0755 33.1884L39.0841 33.291ZM39.9241 33.291V33.394H40.0124L40.0259 33.3067L39.9241 33.291ZM39.9531 33.1027L40.0549 33.1184L40.055 33.1173L39.9531 33.1027ZM39.982 32.9L40.084 32.9145L40.085 32.9073V32.9H39.982ZM39.8662 23.2977L39.9691 23.3018L39.9691 23.3007L39.8662 23.2977ZM39.7937 16.8093L39.8962 16.7989L39.8869 16.7063H39.7937V16.8093ZM43.5304 15.5347L43.5895 15.4503L43.5854 15.4477L43.5304 15.5347ZM41.4448 16.7224V16.6194H41.3323L41.3422 16.7315L41.4448 16.7224ZM41.4883 22.2983L41.5911 22.3031L41.5912 22.3019L41.4883 22.2983ZM41.3708 28.2975C41.4191 29.8619 41.4432 30.908 41.4432 31.4372H41.6492C41.6492 30.9043 41.625 29.8551 41.5767 28.2912L41.3708 28.2975ZM41.4432 31.4372V32.3206H41.6492V31.4372H41.4432ZM41.4432 32.3206V32.7406H41.6492V32.3206H41.4432ZM41.4435 32.7327C41.4336 32.8612 41.4287 32.9991 41.4287 33.1462H41.6347C41.6347 33.0036 41.6395 32.8711 41.6489 32.7485L41.4435 32.7327ZM41.5317 33.2492H41.9228V33.0432H41.5317V33.2492ZM41.9228 33.2492C42.0604 33.2492 42.1934 33.2442 42.3217 33.2344L42.3059 33.029C42.1832 33.0384 42.0555 33.0432 41.9228 33.0432V33.2492ZM42.3217 33.2344C42.4437 33.225 42.5954 33.2202 42.7773 33.2202V33.0142C42.5922 33.0142 42.4349 33.0191 42.3059 33.029L42.3217 33.2344ZM42.7773 33.2202C43.1757 33.2202 43.4573 33.2813 43.6362 33.3899C43.8068 33.4935 43.8908 33.6439 43.8908 33.8558H44.0968C44.0968 33.5753 43.9781 33.3565 43.7431 33.2138C43.5165 33.0762 43.1898 33.0142 42.7773 33.0142V33.2202ZM43.8908 33.8558C43.8908 34.075 43.8039 34.2653 43.6206 34.4312L43.7588 34.5839C43.981 34.3829 44.0968 34.1388 44.0968 33.8558H43.8908ZM43.6208 34.431C43.4467 34.5877 43.2443 34.6653 43.009 34.6653V34.8713C43.295 34.8713 43.5465 34.775 43.7586 34.5841L43.6208 34.431ZM43.009 34.6653H41.7055V34.8713H43.009V34.6653ZM41.7055 34.6653C40.7751 34.6653 40.211 34.6456 39.9997 34.6089L39.9644 34.8118C40.1972 34.8523 40.7821 34.8713 41.7055 34.8713V34.6653ZM39.9738 34.6077L39.6117 34.6366L39.6282 34.842L39.9902 34.813L39.9738 34.6077ZM39.6199 34.6363C39.275 34.6363 39.0339 34.5814 38.8819 34.4856C38.7379 34.3949 38.6657 34.2626 38.6657 34.0731H38.4597C38.4597 34.3277 38.5636 34.5285 38.7721 34.6599C38.9725 34.7862 39.26 34.8423 39.6199 34.8423V34.6363ZM38.6657 34.0731C38.6657 33.9237 38.715 33.7751 38.8206 33.6256L38.6523 33.5068C38.5262 33.6855 38.4597 33.8748 38.4597 34.0731H38.6657ZM38.8222 33.6233C38.9338 33.4559 39.0258 33.3992 39.0926 33.3936L39.0755 33.1884C38.9106 33.2021 38.7709 33.3288 38.6508 33.509L38.8222 33.6233ZM39.0841 33.394H39.9241V33.188H39.0841V33.394ZM40.0259 33.3067L40.0548 33.1184L39.8513 33.0871L39.8223 33.2753L40.0259 33.3067ZM40.055 33.1173L40.084 32.9145L39.8801 32.8854L39.8511 33.0882L40.055 33.1173ZM40.085 32.9C40.085 32.1057 40.0511 31.0513 39.9835 29.7373L39.7778 29.7479C39.8453 31.0603 39.879 32.1107 39.879 32.9H40.085ZM39.9835 29.7373C39.9159 28.425 39.8822 27.3794 39.8822 26.5998H39.6763C39.6763 27.3845 39.7102 28.4341 39.7778 29.7479L39.9835 29.7373ZM39.8822 26.5998C39.8822 25.8585 39.9111 24.7594 39.9691 23.3018L39.7632 23.2936C39.7053 24.7519 39.6763 25.8542 39.6763 26.5998H39.8822ZM39.9691 23.3007C40.0174 21.6788 40.0416 20.5766 40.0416 19.9955H39.8356C39.8356 20.5731 39.8115 21.6723 39.7632 23.2946L39.9691 23.3007ZM40.0416 19.9955C40.0416 18.8245 39.9932 17.7589 39.8962 16.7989L39.6913 16.8196C39.7874 17.7714 39.8356 18.83 39.8356 19.9955H40.0416ZM39.7937 16.7063H39.2289V16.9122H39.7937V16.7063ZM39.2289 16.7063C39.1102 16.7063 38.996 16.7112 38.8865 16.7212L38.9051 16.9263C39.008 16.917 39.1159 16.9122 39.2289 16.9122V16.7063ZM38.8865 16.7212C38.7838 16.7305 38.6711 16.7352 38.5482 16.7352V16.9412C38.6763 16.9412 38.7953 16.9363 38.9051 16.9263L38.8865 16.7212ZM38.5482 16.7352C38.2491 16.7352 38.0436 16.6786 37.9148 16.582L37.7912 16.7468C37.9714 16.8819 38.2293 16.9412 38.5482 16.9412V16.7352ZM37.9148 16.582C37.798 16.4944 37.7243 16.3268 37.7243 16.0417H37.5183C37.5183 16.3552 37.599 16.6027 37.7912 16.7468L37.9148 16.582ZM37.7243 16.0417C37.7243 15.9478 37.7491 15.8699 37.7964 15.8038C37.8445 15.7367 37.9201 15.6758 38.0304 15.6245C38.2537 15.5206 38.6012 15.4639 39.0841 15.4639V15.258C38.5917 15.258 38.2079 15.3147 37.9435 15.4377C37.81 15.4999 37.7028 15.5808 37.629 15.6839C37.5544 15.7879 37.5183 15.9086 37.5183 16.0417H37.7243ZM39.0841 15.4639H42.6179V15.258H39.0841V15.4639ZM42.6179 15.4639C43.0388 15.4639 43.3178 15.5223 43.4754 15.6218L43.5854 15.4477C43.376 15.3154 43.0468 15.258 42.6179 15.258V15.4639ZM43.4713 15.6191C43.6497 15.744 43.717 15.8663 43.717 15.9837H43.923C43.923 15.7729 43.7973 15.5958 43.5894 15.4504L43.4713 15.6191ZM43.717 15.9837C43.717 16.1303 43.649 16.2731 43.4909 16.4137L43.6278 16.5676C43.8172 16.3992 43.923 16.2041 43.923 15.9837H43.717ZM43.4909 16.4137C43.335 16.5522 43.1611 16.6194 42.9655 16.6194V16.8253C43.2141 16.8253 43.4361 16.738 43.6278 16.5676L43.4909 16.4137ZM42.9655 16.6194H41.4448V16.8253H42.9655V16.6194ZM41.3422 16.7315C41.4192 17.5971 41.4577 18.5113 41.4577 19.4741H41.6637C41.6637 18.5059 41.6249 17.5856 41.5474 16.7132L41.3422 16.7315ZM41.4577 19.4741C41.4577 19.9549 41.4336 20.8945 41.3853 22.2948L41.5912 22.3019C41.6395 20.9021 41.6637 19.959 41.6637 19.4741H41.4577ZM41.3854 22.2936C41.3274 23.5492 41.2984 24.4973 41.2984 25.137H41.5044C41.5044 24.5022 41.5332 23.5579 41.5911 22.3031L41.3854 22.2936ZM41.2984 25.137C41.2984 25.6796 41.3226 26.7336 41.3708 28.2975L41.5767 28.2912C41.5284 26.7268 41.5044 25.6759 41.5044 25.137H41.2984ZM48.9783 20.9369L48.8767 20.9539L48.8768 20.9541L48.9783 20.9369ZM49.1666 22.0521L49.0651 22.0693L49.2686 22.0667L49.1666 22.0521ZM49.297 21.3135L49.3983 21.3327L49.3989 21.3281L49.297 21.3135ZM49.3549 21.0093L49.455 21.0344L49.4562 21.0278L49.3549 21.0093ZM49.5432 19.7928L49.4409 19.7804L49.4407 19.7822L49.5432 19.7928ZM49.659 17.7217H49.7623L49.7618 17.7148L49.659 17.7217ZM49.9197 15.9982L50.0067 16.0533L50.0075 16.052L49.9197 15.9982ZM50.977 15.3465L51.0577 15.2825L51.0161 15.2299L50.9511 15.2468L50.977 15.3465ZM51.5274 16.0417L51.6136 16.0979L51.6541 16.0358L51.6081 15.9777L51.5274 16.0417ZM51.0349 17.6638L51.1377 17.6706L51.1378 17.6679L51.0349 17.6638ZM51.0204 18.9383L51.1169 18.9744L51.1234 18.9569V18.9383H51.0204ZM50.2673 27.8888L50.168 27.916L50.2673 27.8888ZM51.368 31.4661L51.4661 31.4346L51.4659 31.4339L51.368 31.4661ZM51.4984 31.8717L51.4003 31.9032L51.4007 31.9042L51.4984 31.8717ZM51.788 34.7393L51.7199 34.662L51.7176 34.6642L51.788 34.7393ZM50.7453 34.6814L50.6664 34.7477L50.6685 34.75L50.7453 34.6814ZM50.3253 33.9138L50.4215 33.877L50.4213 33.8766L50.3253 33.9138ZM49.6735 31.6544L49.7746 31.6345L49.7745 31.6342L49.6735 31.6544ZM49.2535 29.4385L49.3551 29.4216L49.3548 29.4199L49.2535 29.4385ZM49.1232 28.7288L49.2245 28.7102L49.0216 28.7119L49.1232 28.7288ZM48.8625 30.9447L48.9648 30.9561L48.9649 30.9556L48.8625 30.9447ZM48.37 33.6531L48.2714 33.6235L48.264 33.6481L48.269 33.6733L48.37 33.6531ZM46.9797 34.9131L46.9193 34.9966L46.9215 34.9981L46.9797 34.9131ZM47.7038 29.3661L47.8033 29.3929L47.8034 29.3924L47.7038 29.3661ZM47.979 28.3233L48.0786 28.3496L48.0786 28.3493L47.979 28.3233ZM48.0224 23.0225L47.9213 23.0421L47.9215 23.0428L48.0224 23.0225ZM47.2114 19.4017L47.1114 19.4265L47.1116 19.4273L47.2114 19.4017ZM46.5597 17.3451H46.4567V17.3781L46.4758 17.405L46.5597 17.3451ZM46.5597 17.0265H46.6626V16.9838L46.6325 16.9537L46.5597 17.0265ZM46.5452 15.8534L46.5989 15.9413L46.6002 15.9404L46.5452 15.8534ZM47.7617 16.201L47.6707 16.249L47.6708 16.2493L47.7617 16.201ZM48.2107 17.4031L48.1114 17.4303L48.1115 17.4308L48.2107 17.4031ZM48.6597 19.2569L48.7607 19.2367L48.7603 19.235L48.6597 19.2569ZM48.7321 19.619L48.8331 19.5988L48.7321 19.619ZM48.8768 20.9541L49.0651 22.0693L49.2682 22.035L49.0799 20.9198L48.8768 20.9541ZM49.2686 22.0667C49.2875 21.9341 49.3305 21.6901 49.3982 21.3326L49.1958 21.2943C49.1282 21.6514 49.0843 21.8998 49.0647 22.0376L49.2686 22.0667ZM49.3989 21.3281C49.4084 21.2617 49.4177 21.2057 49.4269 21.1599L49.2249 21.1195C49.2148 21.1702 49.2048 21.2301 49.195 21.2989L49.3989 21.3281ZM49.4269 21.1599C49.4363 21.1129 49.4456 21.071 49.4548 21.0343L49.255 20.9844C49.2448 21.0249 49.2348 21.07 49.2249 21.1195L49.4269 21.1599ZM49.4562 21.0278C49.5529 20.496 49.6162 20.0874 49.6456 19.8034L49.4407 19.7822C49.4122 20.0582 49.35 20.4606 49.2536 20.9909L49.4562 21.0278ZM49.6454 19.8052C49.7229 19.1659 49.762 18.6399 49.762 18.2286H49.556C49.556 18.6283 49.5179 19.1452 49.4409 19.7804L49.6454 19.8052ZM49.762 18.2286V17.7217H49.556V18.2286H49.762ZM49.7618 17.7148C49.7523 17.5726 49.7475 17.4204 49.7475 17.2582H49.5416C49.5416 17.4244 49.5464 17.5812 49.5563 17.7285L49.7618 17.7148ZM49.7475 17.2582C49.7475 16.7167 49.8383 16.3193 50.0067 16.0533L49.8327 15.9431C49.6343 16.2564 49.5416 16.6991 49.5416 17.2582H49.7475ZM50.0075 16.052C50.1712 15.785 50.4938 15.5781 51.0028 15.4462L50.9511 15.2468C50.4174 15.3852 50.0352 15.6128 49.8319 15.9444L50.0075 16.052ZM50.8962 15.4104L51.4466 16.1056L51.6081 15.9777L51.0577 15.2825L50.8962 15.4104ZM51.4411 15.9854C51.2895 16.2178 51.1698 16.4933 51.0806 16.8103L51.2789 16.8661C51.3635 16.5651 51.4755 16.3096 51.6136 16.0979L51.4411 15.9854ZM51.0806 16.8103C50.9922 17.1247 50.9421 17.4081 50.932 17.6596L51.1378 17.6679C51.1471 17.4367 51.1935 17.1697 51.2789 16.8661L51.0806 16.8103ZM50.9322 17.6569C50.9222 17.8058 50.9175 18.1183 50.9175 18.5907H51.1234C51.1234 18.1168 51.1283 17.8114 51.1377 17.6706L50.9322 17.6569ZM50.9175 18.5907V18.9383H51.1234V18.5907H50.9175ZM50.924 18.9021C50.6884 19.5305 50.4409 20.6353 50.1802 22.2091L50.3834 22.2428C50.6441 20.6689 50.889 19.582 51.1169 18.9744L50.924 18.9021ZM50.1802 22.2091C49.9194 23.7833 49.7878 24.9299 49.7878 25.6439H49.9938C49.9938 24.9483 50.1228 23.8162 50.3834 22.2428L50.1802 22.2091ZM49.7878 25.6439C49.7878 26.2364 49.9159 26.9948 50.168 27.916L50.3667 27.8616C50.1167 26.9483 49.9938 26.2101 49.9938 25.6439H49.7878ZM50.168 27.916C50.4197 28.8356 50.7872 30.0299 51.2702 31.4983L51.4659 31.4339C50.9834 29.9671 50.617 28.7765 50.3667 27.8616L50.168 27.916ZM51.27 31.4976L51.4003 31.9032L51.5964 31.8401L51.4661 31.4346L51.27 31.4976ZM51.4007 31.9042C51.7578 32.9755 51.9313 33.7437 51.9313 34.2179H52.1372C52.1372 33.7073 51.9535 32.9113 51.5961 31.8391L51.4007 31.9042ZM51.9313 34.2179C51.9313 34.3886 51.8639 34.535 51.7199 34.6621L51.8562 34.8165C52.0405 34.6539 52.1372 34.4528 52.1372 34.2179H51.9313ZM51.7176 34.6642C51.5823 34.791 51.424 34.8536 51.2377 34.8536V35.0595C51.4762 35.0595 51.6848 34.9772 51.8585 34.8144L51.7176 34.6642ZM51.2377 34.8536C51.1149 34.8536 50.9764 34.7853 50.822 34.6127L50.6685 34.75C50.8424 34.9444 51.0322 35.0595 51.2377 35.0595V34.8536ZM50.824 34.615C50.6796 34.4435 50.5446 34.1991 50.4215 33.877L50.2291 33.9506C50.357 34.2851 50.502 34.5524 50.6665 34.7477L50.824 34.615ZM50.4213 33.8766C50.1435 33.1582 49.9279 32.4108 49.7746 31.6345L49.5725 31.6744C49.7281 32.4622 49.947 33.221 50.2292 33.9509L50.4213 33.8766ZM49.7745 31.6342C49.5718 30.6205 49.432 29.8833 49.3551 29.4216L49.1519 29.4554C49.2295 29.9206 49.3697 30.6607 49.5725 31.6746L49.7745 31.6342ZM49.3548 29.4199L49.2245 28.7102L49.0219 28.7474L49.1522 29.4571L49.3548 29.4199ZM49.0216 28.7119C48.9727 29.0053 48.8854 29.7475 48.76 30.9339L48.9649 30.9556C49.0905 29.7668 49.1771 29.0317 49.2247 28.7458L49.0216 28.7119ZM48.7601 30.9334C48.6349 32.0601 48.4716 32.956 48.2714 33.6235L48.4687 33.6827C48.674 32.9984 48.839 32.0887 48.9648 30.9561L48.7601 30.9334ZM48.269 33.6733C48.2763 33.7094 48.2815 33.8139 48.2815 34.0007H48.4875C48.4875 33.8206 48.4831 33.6933 48.471 33.6329L48.269 33.6733ZM48.2815 34.0007C48.2815 34.3588 48.2185 34.609 48.1081 34.7673C48.0025 34.9188 47.8447 34.9984 47.6169 34.9984V35.2044C47.9009 35.2044 48.1269 35.1005 48.2771 34.8851C48.4226 34.6765 48.4875 34.3764 48.4875 34.0007H48.2815ZM47.6169 34.9984C47.3944 34.9984 47.2027 34.9409 47.0378 34.8281L46.9215 34.9981C47.1236 35.1364 47.3566 35.2044 47.6169 35.2044V34.9984ZM47.04 34.8296C46.8912 34.7221 46.822 34.5882 46.822 34.4207H46.616C46.616 34.6587 46.7206 34.853 46.9194 34.9966L47.04 34.8296ZM46.822 34.4207C46.822 33.7824 46.9029 33.0898 47.0658 32.3426L46.8646 32.2987C46.6991 33.0577 46.616 33.7651 46.616 34.4207H46.822ZM47.0658 32.3426C47.2294 31.5918 47.4752 30.6087 47.8033 29.3929L47.6044 29.3393C47.2759 30.5566 47.0292 31.5432 46.8646 32.2987L47.0658 32.3426ZM47.8034 29.3924L48.0786 28.3496L47.8794 28.297L47.6042 29.3398L47.8034 29.3924ZM48.0786 28.3493C48.3602 27.2715 48.502 26.3018 48.502 25.4412H48.296C48.296 26.2799 48.1578 27.2316 47.8793 28.2973L48.0786 28.3493ZM48.502 25.4412C48.502 25.0619 48.3739 24.2449 48.1234 23.0021L47.9215 23.0428C48.1731 24.2912 48.296 25.0866 48.296 25.4412H48.502ZM48.1236 23.0029C47.8818 21.7555 47.611 20.5465 47.3112 19.3762L47.1116 19.4273C47.4104 20.5935 47.6803 21.7984 47.9213 23.0421L48.1236 23.0029ZM47.3114 19.3769C47.1663 18.7919 47.039 18.326 46.9294 17.9802C46.8215 17.6398 46.7268 17.402 46.6435 17.2853L46.4758 17.405C46.5373 17.491 46.6237 17.6974 46.733 18.0425C46.8407 18.3822 46.9668 18.8433 47.1114 19.4265L47.3114 19.3769ZM46.6626 17.3451V17.0265H46.4567V17.3451H46.6626ZM46.6325 16.9537C46.472 16.7932 46.3875 16.5751 46.3875 16.2879H46.1815C46.1815 16.6186 46.2804 16.8929 46.4868 17.0993L46.6325 16.9537ZM46.3875 16.2879C46.3875 16.1448 46.4517 16.0312 46.5989 15.9413L46.4915 15.7655C46.2911 15.8879 46.1815 16.064 46.1815 16.2879H46.3875ZM46.6002 15.9404C46.766 15.8357 46.9543 15.7826 47.1679 15.7826V15.5766C46.9181 15.5766 46.6912 15.6393 46.4902 15.7663L46.6002 15.9404ZM47.1679 15.7826C47.318 15.7826 47.4898 15.9064 47.6707 16.249L47.8528 16.1529C47.6668 15.8003 47.4427 15.5766 47.1679 15.5766V15.7826ZM47.6708 16.2493C47.8302 16.5493 47.9774 16.9422 48.1114 17.4303L48.31 17.3758C48.1737 16.8791 48.0216 16.4706 47.8527 16.1526L47.6708 16.2493ZM48.1115 17.4308C48.246 17.9109 48.3952 18.5267 48.5591 19.2788L48.7603 19.235C48.596 18.4808 48.4458 17.8607 48.3099 17.3753L48.1115 17.4308ZM48.5587 19.2771L48.6311 19.6392L48.8331 19.5988L48.7607 19.2367L48.5587 19.2771ZM48.6311 19.6392C48.7372 20.1696 48.8191 20.6078 48.8767 20.9539L49.0799 20.92C49.0217 20.5709 48.9394 20.1304 48.8331 19.5988L48.6311 19.6392ZM67.1592 34.3772L67.2175 34.4621L67.2622 34.4315V34.3772H67.1592ZM66.4206 34.8841L66.4244 34.9871L66.4542 34.986L66.4789 34.9691L66.4206 34.8841ZM65.6385 34.9131L65.6347 34.8102L65.6322 34.8103L65.6385 34.9131ZM63.0895 33.3779L63.1003 33.2755L63.0997 33.2754L63.0895 33.3779ZM63.3647 33.4069L63.3538 33.5099H63.3647V33.4069ZM63.6978 33.262L63.7822 33.3211L63.7847 33.3173L63.6978 33.262ZM63.524 25.8467L63.6268 25.8404L63.6268 25.8403L63.524 25.8467ZM63.2488 18.9962L63.1458 18.9942V18.9962H63.2488ZM63.2778 17.4755L63.1748 17.4735L63.1748 17.4735L63.2778 17.4755ZM63.3067 15.9692L63.4097 15.9712V15.9692H63.3067ZM63.2343 14.3182L63.3368 14.3085L63.3247 14.1795L63.2017 14.2205L63.2343 14.3182ZM62.2784 13.1306L62.3314 13.2189L62.3335 13.2176L62.2784 13.1306ZM63.4081 12.725L63.3898 12.6237L63.3891 12.6238L63.4081 12.725ZM66.1164 12.754L66.0457 12.8289L66.048 12.831L66.1164 12.754ZM66.1744 13.8837L66.0949 13.8182L66.0944 13.8187L66.1744 13.8837ZM65.3923 14.1009L65.4052 13.9979H65.3923V14.1009ZM65.3199 33.2041H65.2169V33.3228L65.3344 33.3061L65.3199 33.2041ZM67.0562 34.2034V34.3772H67.2622V34.2034H67.0562ZM67.101 34.2923L66.3623 34.7992L66.4789 34.9691L67.2175 34.4621L67.101 34.2923ZM66.4168 34.7812L65.6347 34.8102L65.6423 35.016L66.4244 34.9871L66.4168 34.7812ZM65.6322 34.8103C65.1605 34.8392 64.7523 34.8536 64.4074 34.8536V35.0595C64.7577 35.0595 65.1703 35.045 65.6448 35.0159L65.6322 34.8103ZM64.4074 34.8536C63.5561 34.8536 62.9291 34.7799 62.5184 34.6383C62.1065 34.4964 61.9469 34.3012 61.9469 34.0731H61.7409C61.7409 34.434 62.0087 34.6805 62.4513 34.8331C62.895 34.986 63.5498 35.0595 64.4074 35.0595V34.8536ZM61.9469 34.0731C61.9469 33.8597 62.0132 33.7157 62.1323 33.6216C62.256 33.5239 62.4534 33.4664 62.7419 33.4664V33.2604C62.4318 33.2604 62.1802 33.3212 62.0046 33.46C61.8243 33.6025 61.7409 33.8134 61.7409 34.0731H61.9469ZM62.7419 33.4664C62.8749 33.4664 62.9871 33.4712 63.0792 33.4804L63.0997 33.2754C62.9987 33.2653 62.8793 33.2604 62.7419 33.2604V33.4664ZM63.0787 33.4803L63.3539 33.5093L63.3754 33.3044L63.1003 33.2755L63.0787 33.4803ZM63.3647 33.5099C63.5412 33.5099 63.6895 33.4534 63.7821 33.3211L63.6134 33.203C63.5709 33.2637 63.4971 33.3039 63.3647 33.3039V33.5099ZM63.7847 33.3173C63.8692 33.1845 63.9021 32.975 63.9021 32.7117H63.6962C63.6962 32.9697 63.6615 33.1271 63.6109 33.2067L63.7847 33.3173ZM63.9021 32.7117C63.9021 31.1057 63.8103 28.8149 63.6268 25.8404L63.4212 25.853C63.6046 28.8262 63.6962 31.1121 63.6962 32.7117H63.9021ZM63.6268 25.8403C63.4434 22.8768 63.3518 20.5958 63.3518 18.9962H63.1458C63.1458 20.6022 63.2377 22.8882 63.4212 25.8531L63.6268 25.8403ZM63.3518 18.9982L63.3807 17.4774L63.1748 17.4735L63.1458 18.9942L63.3518 18.9982ZM63.3807 17.4775L63.4097 15.9712L63.2038 15.9673L63.1748 17.4735L63.3807 17.4775ZM63.4097 15.9692C63.4097 15.3775 63.3855 14.8239 63.3368 14.3085L63.1318 14.3278C63.1797 14.8359 63.2037 15.383 63.2037 15.9692H63.4097ZM63.2017 14.2205C62.9481 14.305 62.7277 14.3455 62.5391 14.3455V14.5515C62.7561 14.5515 62.9992 14.5051 63.2669 14.4159L63.2017 14.2205ZM62.5391 14.3455C62.3238 14.3455 62.1811 14.2907 62.0913 14.199C62.0011 14.1069 61.9469 13.9601 61.9469 13.7388H61.7409C61.7409 13.9907 61.8026 14.1987 61.9442 14.3432C62.0861 14.488 62.291 14.5515 62.5391 14.5515V14.3455ZM61.9469 13.7388C61.9469 13.5583 62.0573 13.3834 62.3314 13.2189L62.2254 13.0422C61.9203 13.2253 61.7409 13.4559 61.7409 13.7388H61.9469ZM62.3335 13.2176C62.6089 13.0432 62.972 12.9116 63.4271 12.8263L63.3891 12.6238C62.9173 12.7123 62.5273 12.851 62.2233 13.0435L62.3335 13.2176ZM63.4264 12.8264C64.2238 12.6823 64.9174 12.6108 65.5082 12.6108V12.4048C64.9016 12.4048 64.1952 12.4781 63.3898 12.6237L63.4264 12.8264ZM65.5082 12.6108C65.7127 12.6108 65.8904 12.6822 66.0457 12.8289L66.1872 12.6791C65.9949 12.4976 65.7671 12.4048 65.5082 12.4048V12.6108ZM66.048 12.831C66.201 12.967 66.2742 13.1277 66.2742 13.3188H66.4801C66.4801 13.0658 66.3795 12.85 66.1849 12.677L66.048 12.831ZM66.2742 13.3188C66.2742 13.5073 66.2149 13.6725 66.0949 13.8182L66.2539 13.9491C66.4042 13.7666 66.4801 13.5552 66.4801 13.3188H66.2742ZM66.0944 13.8187C65.9889 13.9486 65.8544 14.0124 65.682 14.0124V14.2184C65.9151 14.2184 66.1088 14.1277 66.2543 13.9486L66.0944 13.8187ZM65.682 14.0124C65.5685 14.0124 65.4766 14.0077 65.4051 13.9987L65.3795 14.2031C65.4625 14.2135 65.5637 14.2184 65.682 14.2184V14.0124ZM65.3923 13.9979H65.1606V14.2039H65.3923V13.9979ZM65.1606 13.9979C64.9473 13.9979 64.7688 14.0429 64.6532 14.1584L64.7989 14.3041C64.8572 14.2458 64.9683 14.2039 65.1606 14.2039V13.9979ZM64.6532 14.1584C64.5358 14.2759 64.4927 14.4718 64.4927 14.7092H64.6987C64.6987 14.4832 64.7425 14.3604 64.7989 14.3041L64.6532 14.1584ZM64.4927 14.7092C64.4927 16.7209 64.6136 19.6152 64.855 23.3911L65.0606 23.378C64.8192 19.6034 64.6987 16.7142 64.6987 14.7092H64.4927ZM64.855 23.3911C65.0964 27.1658 65.2169 30.0549 65.2169 32.0599H65.4229C65.4229 30.0483 65.302 27.1539 65.0606 23.378L64.855 23.3911ZM65.2169 32.0599V33.2041H65.4229V32.0599H65.2169ZM65.3344 33.3061C65.5324 33.2778 65.7303 33.2636 65.9282 33.2636V33.0577C65.7205 33.0577 65.5128 33.0725 65.3053 33.1021L65.3344 33.3061ZM65.9282 33.2636C66.3264 33.2636 66.6059 33.3483 66.7849 33.4999C66.9606 33.6487 67.0562 33.8766 67.0562 34.2034H67.2622C67.2622 33.8351 67.1527 33.5415 66.918 33.3428C66.6866 33.1468 66.3506 33.0577 65.9282 33.0577V33.2636ZM72.1148 33.3779L72.2177 33.3753L72.2177 33.3753L72.1148 33.3779ZM72.0858 32.2482L71.9827 32.2438L71.9828 32.2509L72.0858 32.2482ZM72.1292 31.2344L72.2321 31.2388L72.2329 31.2198L72.2269 31.2018L72.1292 31.2344ZM71.6658 24.688L71.563 24.6938L71.563 24.6938L71.6658 24.688ZM71.2747 16.8237L71.3777 16.821L71.3751 16.7233L71.2774 16.7208L71.2747 16.8237ZM69.0588 16.4472L69.0017 16.5329L69.0023 16.5332L69.0588 16.4472ZM71.7092 15.4334L71.7207 15.331L71.7192 15.3309L71.7092 15.4334ZM73.9541 15.5637V15.4607H73.9468L73.9395 15.4618L73.9541 15.5637ZM74.8231 16.8527L74.7607 16.7708L74.7588 16.7723L74.8231 16.8527ZM73.3748 16.9831L73.3968 16.8823L73.3921 16.8815L73.3748 16.9831ZM72.781 16.8817L72.7983 16.7801L72.7017 16.7637L72.6804 16.8593L72.781 16.8817ZM72.752 17.012L72.6513 16.9896L72.6504 16.9951L72.752 17.012ZM72.723 17.1858L72.6215 17.1689L72.6201 17.1773V17.1858H72.723ZM73.3893 34.6524L73.4563 34.7306L73.4566 34.7304L73.3893 34.6524ZM72.6941 34.9131L72.6344 34.9971L72.6612 35.0161H72.6941V34.9131ZM72.1437 34.5221L72.0408 34.5247L72.0421 34.5762L72.0841 34.606L72.1437 34.5221ZM72.2177 33.3753L72.1887 32.2456L71.9828 32.2509L72.0118 33.3805L72.2177 33.3753ZM72.1887 32.2526L72.2321 31.2388L72.0263 31.23L71.9829 32.2438L72.1887 32.2526ZM72.2269 31.2018C72.2209 31.1836 72.211 31.1339 72.1987 31.0424C72.1869 30.9543 72.1738 30.8354 72.1593 30.6851C72.1305 30.3846 72.0968 29.962 72.0582 29.4167C71.981 28.3264 71.8845 26.7484 71.7686 24.6823L71.563 24.6938C71.6788 26.7602 71.7754 28.3395 71.8527 29.4313C71.8914 29.9771 71.9252 30.4017 71.9543 30.7047C71.9688 30.8562 71.9823 30.978 71.9946 31.0698C72.0064 31.1581 72.0183 31.2273 72.0315 31.267L72.2269 31.2018ZM71.7686 24.6823C71.5369 20.5396 71.4066 17.9199 71.3777 16.821L71.1718 16.8264C71.2008 17.929 71.3313 20.5521 71.563 24.6938L71.7686 24.6823ZM71.2774 16.7208C70.7103 16.7064 70.2462 16.668 69.8835 16.6063C69.5183 16.5443 69.2662 16.4602 69.1154 16.3611L69.0023 16.5332C69.1894 16.6562 69.4756 16.746 69.849 16.8094C70.225 16.8733 70.6998 16.9121 71.2721 16.9267L71.2774 16.7208ZM69.116 16.3615C68.9352 16.241 68.8577 16.1013 68.8577 15.9403H68.6517C68.6517 16.1848 68.7769 16.383 69.0017 16.5329L69.116 16.3615ZM68.8577 15.9403C68.8577 15.8148 68.9281 15.6934 69.113 15.5789L69.0046 15.4037C68.7841 15.5403 68.6517 15.7182 68.6517 15.9403H68.8577ZM69.113 15.5789C69.3008 15.4627 69.4946 15.406 69.6961 15.406V15.2C69.4534 15.2 69.2224 15.2689 69.0046 15.4037L69.113 15.5789ZM69.6961 15.406C70.135 15.406 70.802 15.449 71.6993 15.5359L71.7192 15.3309C70.8205 15.2439 70.1454 15.2 69.6961 15.2V15.406ZM71.6977 15.5357C72.5584 15.6324 73.2339 15.6812 73.7224 15.6812V15.4752C73.2453 15.4752 72.5787 15.4274 71.7207 15.331L71.6977 15.5357ZM73.7224 15.6812C73.8129 15.6812 73.8952 15.6762 73.9687 15.6657L73.9395 15.4618C73.8779 15.4706 73.8056 15.4752 73.7224 15.4752V15.6812ZM73.9541 15.6667H74.2003V15.4607H73.9541V15.6667ZM74.2003 15.6667C74.4991 15.6667 74.7042 15.7244 74.8329 15.8229C74.9564 15.9174 75.0242 16.0612 75.0242 16.2734H75.2302C75.2302 16.0125 75.1436 15.8014 74.9581 15.6594C74.7778 15.5213 74.5195 15.4607 74.2003 15.4607V15.6667ZM75.0242 16.2734C75.0242 16.4694 74.9408 16.6335 74.7607 16.7708L74.8855 16.9346C75.1109 16.7629 75.2302 16.5408 75.2302 16.2734H75.0242ZM74.7588 16.7723C74.5849 16.9113 74.3811 16.9814 74.1424 16.9814V17.1874C74.4251 17.1874 74.675 17.1031 74.8874 16.9331L74.7588 16.7723ZM74.1424 16.9814C73.9499 16.9814 73.7021 16.9492 73.3968 16.8824L73.3528 17.0837C73.6654 17.1521 73.9293 17.1874 74.1424 17.1874V16.9814ZM73.3921 16.8815L72.7983 16.7801L72.7636 16.9832L73.3575 17.0846L73.3921 16.8815ZM72.6804 16.8593L72.6515 16.9897L72.8526 17.0344L72.8815 16.904L72.6804 16.8593ZM72.6504 16.9951L72.6215 17.1689L72.8246 17.2027L72.8536 17.0289L72.6504 16.9951ZM72.6201 17.1858C72.6201 19.1216 72.7845 21.9301 73.1129 25.6096L73.3181 25.5913C72.9898 21.9135 72.826 19.1122 72.826 17.1858H72.6201ZM73.1129 25.6096C73.4411 29.2875 73.6049 32.0936 73.6049 34.0296H73.8109C73.8109 32.0842 73.6464 29.2709 73.3181 25.5913L73.1129 25.6096ZM73.6049 34.0296C73.6049 34.2252 73.5169 34.4061 73.322 34.5745L73.4566 34.7304C73.6864 34.5319 73.8109 34.2976 73.8109 34.0296H73.6049ZM73.3222 34.5742C73.1376 34.7324 72.9295 34.8101 72.6941 34.8101V35.0161C72.98 35.0161 73.2354 34.92 73.4563 34.7306L73.3222 34.5742ZM72.7537 34.8291L72.2034 34.4381L72.0841 34.606L72.6344 34.9971L72.7537 34.8291ZM72.2467 34.5195L72.2177 33.3753L72.0118 33.3805L72.0408 34.5247L72.2467 34.5195ZM84.9514 14.2168H85.0544V14.1778L85.0286 14.1486L84.9514 14.2168ZM84.9804 12.9712L84.9056 12.9004L84.9036 12.9026L84.9804 12.9712ZM86.8052 19.9521L86.9081 19.9482L86.9081 19.9475L86.8052 19.9521ZM86.9356 25.1225H86.8326V25.1442L86.8413 25.164L86.9356 25.1225ZM88.1522 32.1179L88.0555 32.1534L88.0559 32.1545L88.1522 32.1179ZM89.166 33.8269L89.09 33.8964L89.0915 33.8981L89.166 33.8269ZM91.1791 34.2324L91.25 34.3072L91.2519 34.3052L91.1791 34.2324ZM91.5557 33.4503L91.4548 33.4295L91.4547 33.4301L91.5557 33.4503ZM91.686 32.6393L91.7886 32.6486L91.7886 32.6482L91.686 32.6393ZM91.3384 20.2417H91.4415L91.4414 20.2383L91.3384 20.2417ZM91.3095 19.3728L91.4124 19.3693L91.4124 19.3693L91.3095 19.3728ZM91.2805 18.5183H91.1774L91.1776 18.5217L91.2805 18.5183ZM91.1791 15.9837L91.0763 15.9903L91.0763 15.9903L91.1791 15.9837ZM92.1784 12.6236L92.2498 12.5493L92.2199 12.5207H92.1784V12.6236ZM92.9026 13.3188H93.0056V13.2749L92.9739 13.2445L92.9026 13.3188ZM92.8012 14.6947L92.6999 14.6761L92.6998 14.6767L92.8012 14.6947ZM92.9605 23.0804L93.0634 23.075L93.0634 23.0746L92.9605 23.0804ZM92.9461 33.4213L92.8463 33.3958L92.8463 33.3959L92.9461 33.4213ZM92.4536 34.5365L92.3706 34.4756L92.3702 34.4761L92.4536 34.5365ZM91.6136 35.2462L91.6597 35.3384L91.6626 35.3368L91.6136 35.2462ZM87.3846 33.9427L87.4695 33.8845L87.4691 33.8839L87.3846 33.9427ZM86.4142 32.1613L86.3192 32.201L86.4142 32.1613ZM85.7624 29.9309L85.8635 29.9112L85.8635 29.9109L85.7624 29.9309ZM85.3135 27.295L85.2113 27.3079L85.2115 27.3092L85.3135 27.295ZM85.0673 24.5432L84.9644 24.5489L84.9644 24.5492L85.0673 24.5432ZM85.0399 16.4052C85.0496 15.7095 85.0544 14.98 85.0544 14.2168H84.8484C84.8484 14.9791 84.8436 15.7076 84.8339 16.4023L85.0399 16.4052ZM85.0286 14.1486C84.9021 14.0053 84.8371 13.8276 84.8371 13.6085H84.6312C84.6312 13.8722 84.711 14.1 84.8742 14.2849L85.0286 14.1486ZM84.8371 13.6085C84.8371 13.393 84.9095 13.2049 85.0571 13.0399L84.9036 12.9026C84.7229 13.1045 84.6312 13.3412 84.6312 13.6085H84.8371ZM85.0551 13.0421C85.2114 12.8771 85.3879 12.7991 85.5886 12.7991V12.5931C85.3259 12.5931 85.0969 12.6985 84.9056 12.9004L85.0551 13.0421ZM85.5886 12.7991C85.7495 12.7991 85.8857 12.8385 86.0009 12.9143C86.1168 12.9905 86.2175 13.1074 86.3006 13.2713C86.4682 13.602 86.5574 14.1111 86.5574 14.8106H86.7634C86.7634 14.1004 86.6739 13.5522 86.4843 13.1781C86.3888 12.9896 86.2662 12.8422 86.1141 12.7422C85.9615 12.6418 85.785 12.5931 85.5886 12.5931V12.7991ZM86.5574 14.8106C86.5574 16.0584 86.6058 17.7739 86.7023 19.9566L86.9081 19.9475C86.8116 17.766 86.7634 16.0539 86.7634 14.8106H86.5574ZM86.7023 19.956C86.7892 22.2537 86.8326 23.9756 86.8326 25.1225H87.0386C87.0386 23.9715 86.9951 22.2465 86.9081 19.9482L86.7023 19.956ZM86.8413 25.164C86.9402 25.3887 87.0357 25.8798 87.1229 26.6548L87.3276 26.6318C87.241 25.8619 87.1434 25.3392 87.0298 25.0811L86.8413 25.164ZM87.1229 26.6548C87.2096 27.4251 87.2526 28.0631 87.2526 28.5695H87.4586C87.4586 28.0525 87.4147 27.4063 87.3276 26.6318L87.1229 26.6548ZM87.2526 28.5695C87.2526 29.0145 87.3266 29.5586 87.4724 30.2L87.6733 30.1543C87.5294 29.5212 87.4586 28.9935 87.4586 28.5695H87.2526ZM87.4724 30.2C87.6183 30.8418 87.8127 31.493 88.0555 32.1534L88.2488 32.0823C88.0089 31.4296 87.817 30.787 87.6733 30.1543L87.4724 30.2ZM88.0559 32.1545C88.3203 32.8499 88.6645 33.4313 89.09 33.8964L89.242 33.7574C88.8371 33.3148 88.5054 32.7569 88.2484 32.0813L88.0559 32.1545ZM89.0915 33.8981C89.5287 34.3551 89.9932 34.5961 90.4839 34.5961V34.3901C90.0671 34.3901 89.6529 34.187 89.2404 33.7557L89.0915 33.8981ZM90.4839 34.5961C90.7872 34.5961 91.0452 34.5011 91.2499 34.3072L91.1083 34.1576C90.9461 34.3113 90.7407 34.3901 90.4839 34.3901V34.5961ZM91.2519 34.3052C91.4538 34.1034 91.5864 33.822 91.6567 33.4705L91.4547 33.4301C91.3898 33.7545 91.2713 33.9945 91.1063 34.1596L91.2519 34.3052ZM91.6566 33.4711C91.7245 33.1409 91.7688 32.8664 91.7886 32.6486L91.5835 32.6299C91.5646 32.837 91.522 33.1032 91.4548 33.4295L91.6566 33.4711ZM91.7886 32.6482C91.8083 32.4222 91.818 32.1487 91.818 31.8282H91.612C91.612 32.145 91.6024 32.4122 91.5834 32.6303L91.7886 32.6482ZM91.818 31.8282V26.035H91.612V31.8282H91.818ZM91.818 26.035C91.818 25.3538 91.7548 24.4179 91.6291 23.2289L91.4243 23.2506C91.5497 24.4369 91.612 25.3644 91.612 26.035H91.818ZM91.6291 23.2289C91.5038 22.0426 91.4414 21.115 91.4414 20.4445H91.2354C91.2354 21.1257 91.2986 22.0616 91.4243 23.2506L91.6291 23.2289ZM91.4414 20.4445V20.2417H91.2354V20.4445H91.4414ZM91.4414 20.2383L91.4124 19.3693L91.2065 19.3762L91.2355 20.2452L91.4414 20.2383ZM91.4124 19.3693L91.3834 18.5148L91.1776 18.5217L91.2065 19.3762L91.4124 19.3693ZM91.3835 18.5183C91.3835 17.8778 91.3495 17.0305 91.2819 15.9771L91.0763 15.9903C91.1439 17.0418 91.1775 17.8842 91.1775 18.5183H91.3835ZM91.2819 15.9771C91.2047 14.7702 91.1662 13.9235 91.1662 13.4347H90.9603C90.9603 13.9308 90.9991 14.7834 91.0763 15.9903L91.2819 15.9771ZM91.1662 13.4347C91.1662 13.2447 91.2583 13.0809 91.468 12.9411L91.3537 12.7697C91.1 12.9388 90.9603 13.1613 90.9603 13.4347H91.1662ZM91.468 12.9411C91.6827 12.7979 91.9187 12.7266 92.1784 12.7266V12.5207C91.8782 12.5207 91.6025 12.6039 91.3537 12.7697L91.468 12.9411ZM92.1071 12.6979L92.8313 13.3931L92.9739 13.2445L92.2498 12.5493L92.1071 12.6979ZM92.7996 13.3188V13.8113H93.0056V13.3188H92.7996ZM92.7996 13.8113C92.7996 14.0243 92.767 14.3118 92.6999 14.6761L92.9025 14.7134C92.9706 14.3439 93.0056 14.0424 93.0056 13.8113H92.7996ZM92.6998 14.6767C92.6226 15.1112 92.5824 15.4282 92.5824 15.6216H92.7883C92.7883 15.4482 92.8254 15.1472 92.9026 14.7128L92.6998 14.6767ZM92.5824 15.6216C92.5824 17.3626 92.6742 19.8511 92.8577 23.0863L93.0634 23.0746C92.8799 19.8406 92.7883 17.3567 92.7883 15.6216H92.5824ZM92.8577 23.0858C93.0315 26.397 93.1182 28.9777 93.1182 30.8289H93.3242C93.3242 28.9724 93.2372 26.3875 93.0634 23.075L92.8577 23.0858ZM93.1182 30.8289C93.1182 31.3674 93.099 31.8272 93.0608 32.209L93.2658 32.2295C93.3048 31.8388 93.3242 31.3718 93.3242 30.8289H93.1182ZM93.0608 32.209C93.0228 32.5896 92.9513 32.9851 92.8463 33.3958L93.0458 33.4469C93.1532 33.0272 93.2266 32.6214 93.2658 32.2295L93.0608 32.209ZM92.8463 33.3959C92.7327 33.8406 92.5732 34.1993 92.3706 34.4756L92.5367 34.5974C92.7589 34.2945 92.9277 33.9097 93.0458 33.4468L92.8463 33.3959ZM92.3702 34.4761C92.178 34.7416 91.9106 34.9686 91.5646 35.1556L91.6626 35.3368C92.0311 35.1376 92.3238 34.8915 92.537 34.5969L92.3702 34.4761ZM91.5676 35.1541C91.1975 35.3391 90.7743 35.4329 90.2956 35.4329V35.6389C90.8018 35.6389 91.2573 35.5395 91.6597 35.3383L91.5676 35.1541ZM90.2956 35.4329C89.7132 35.4329 89.1849 35.3015 88.7086 35.0401L88.6095 35.2206C89.1181 35.4999 89.6809 35.6389 90.2956 35.6389V35.4329ZM88.7086 35.0401C88.232 34.7784 87.8188 34.3943 87.4695 33.8845L87.2996 34.0009C87.6648 34.534 88.1012 34.9416 88.6095 35.2206L88.7086 35.0401ZM87.4691 33.8839C87.0969 33.3495 86.7769 32.7622 86.5092 32.1216L86.3192 32.201C86.5921 32.8542 86.919 33.4545 87.3 34.0016L87.4691 33.8839ZM86.5092 32.1216C86.2421 31.4823 86.0266 30.7458 85.8635 29.9112L85.6614 29.9507C85.8266 30.7961 86.0456 31.5465 86.3192 32.201L86.5092 32.1216ZM85.8635 29.9109C85.6804 28.9857 85.531 28.109 85.4155 27.2808L85.2115 27.3092C85.3276 28.1418 85.4776 29.0223 85.6614 29.9509L85.8635 29.9109ZM85.4156 27.2821C85.3098 26.4447 85.2279 25.5298 85.1701 24.5372L84.9644 24.5492C85.0225 25.5456 85.1047 26.4652 85.2113 27.3079L85.4156 27.2821ZM85.1701 24.5375C85.0737 22.8017 85.0254 20.9064 85.0254 18.8514H84.8194C84.8194 20.9095 84.8678 22.8088 84.9644 24.5489L85.1701 24.5375ZM85.0254 18.8514C85.0254 17.9151 85.0302 17.0997 85.0399 16.4052L84.8339 16.4023C84.8243 17.0981 84.8194 17.9145 84.8194 18.8514H85.0254ZM96.1926 16.6065L96.0917 16.5856L96.0869 16.6089L96.0928 16.6318L96.1926 16.6065ZM96.4822 15.8823L96.3971 15.8243L96.3965 15.8252L96.4822 15.8823ZM100.697 16.9831L100.79 16.9387L100.79 16.9386L100.697 16.9831ZM101.262 21.748L101.159 21.7416L101.159 21.7419L101.262 21.748ZM101.175 22.5446L101.276 22.5648L101.276 22.5638L101.175 22.5446ZM100.986 23.3122L101.085 23.3414L101.086 23.3393L100.986 23.3122ZM100.711 23.9639L100.623 23.9102L100.623 23.9117L100.711 23.9639ZM100.277 24.5577L100.198 24.4918L100.197 24.4929L100.277 24.5577ZM99.6975 25.0791L99.6412 24.9928L99.6395 24.994L99.6975 25.0791ZM98.9009 25.5136L98.8583 25.4198L98.8572 25.4203L98.9009 25.5136ZM97.9016 25.9046L97.8698 25.8067L97.7986 25.8298V25.9046H97.9016ZM97.134 35.5648L97.0822 35.6539L97.1062 35.6678H97.134V35.5648ZM96.5112 35.2028L96.4108 35.2256L96.4207 35.2693L96.4594 35.2918L96.5112 35.2028ZM96.265 25.557H96.368V25.5352L96.3591 25.5152L96.265 25.557ZM96.0912 24.7315L95.9982 24.6872L95.9882 24.7082V24.7315H96.0912ZM96.3809 22.1825L96.2779 22.1803V22.1825H96.3809ZM96.4098 20.8211L96.3069 20.8187L96.3069 20.8189L96.4098 20.8211ZM98.1768 17.2148H98.0738V17.3178H98.1768V17.2148ZM97.8581 17.1713V17.0683H97.7551V17.1713H97.8581ZM97.8581 18.8514H97.7551L97.7551 18.8523L97.8581 18.8514ZM97.8871 21.9652L97.7841 21.9662L97.7841 21.9663L97.8871 21.9652ZM97.9161 24.6301H98.0191L98.0191 24.629L97.9161 24.6301ZM97.9161 24.6736H97.8131V24.7919L97.9303 24.7756L97.9161 24.6736ZM99.654 18.9238L99.551 18.9295L99.5518 18.9358L99.654 18.9238ZM99.5671 18.33L99.6678 18.3081L99.6673 18.3059L99.5671 18.33ZM99.3209 17.7507L99.2351 17.8078L99.2379 17.8116L99.3209 17.7507ZM96.5273 19.3583C96.5273 18.13 96.4501 17.2023 96.2924 16.5811L96.0928 16.6318C96.244 17.2273 96.3213 18.1341 96.3213 19.3583H96.5273ZM96.2934 16.6274C96.3491 16.3581 96.4413 16.1295 96.5679 15.9395L96.3965 15.8252C96.2529 16.0407 96.1519 16.2949 96.0917 16.5856L96.2934 16.6274ZM96.5673 15.9404C96.7 15.7458 96.8409 15.6667 96.9892 15.6667V15.4607C96.7512 15.4607 96.5541 15.5941 96.3971 15.8243L96.5673 15.9404ZM96.9892 15.6667H98.2926V15.4607H96.9892V15.6667ZM98.2926 15.6667C98.8368 15.6667 99.3054 15.7885 99.7021 16.0284L99.8087 15.8521C99.3751 15.59 98.8685 15.4607 98.2926 15.4607V15.6667ZM99.7021 16.0284C100.1 16.2689 100.4 16.6012 100.604 17.0275L100.79 16.9386C100.569 16.4766 100.241 16.1137 99.8087 15.8521L99.7021 16.0284ZM100.604 17.0274C101.002 17.8613 101.202 18.8113 101.202 19.8797H101.408C101.408 18.7852 101.203 17.8041 100.79 16.9387L100.604 17.0274ZM101.202 19.8797C101.202 20.6608 101.188 21.2812 101.159 21.7416L101.364 21.7544C101.394 21.2879 101.408 20.6627 101.408 19.8797H101.202ZM101.159 21.7419C101.14 22.0681 101.111 22.3287 101.074 22.5253L101.276 22.5638C101.316 22.3549 101.345 22.0845 101.364 21.754L101.159 21.7419ZM101.074 22.5244C101.036 22.7141 100.974 22.9674 100.887 23.2851L101.086 23.3393C101.173 23.0196 101.236 22.7612 101.276 22.5648L101.074 22.5244ZM100.888 23.2829C100.812 23.5377 100.724 23.7461 100.623 23.9102L100.799 24.0176C100.911 23.8341 101.006 23.608 101.085 23.3414L100.888 23.2829ZM100.623 23.9117C100.53 24.069 100.389 24.2622 100.198 24.4918L100.356 24.6236C100.551 24.3898 100.7 24.187 100.8 24.0161L100.623 23.9117ZM100.197 24.4929C100.039 24.6872 99.8544 24.8538 99.6412 24.9928L99.7537 25.1654C99.9847 25.0148 100.186 24.8338 100.357 24.6225L100.197 24.4929ZM99.6395 24.994C99.4333 25.1346 99.1733 25.2766 98.8583 25.4198L98.9435 25.6073C99.2658 25.4609 99.5368 25.3133 99.7555 25.1642L99.6395 24.994ZM98.8572 25.4203C98.5525 25.5632 98.2234 25.692 97.8698 25.8067L97.9334 26.0026C98.2943 25.8855 98.6314 25.7537 98.9446 25.6068L98.8572 25.4203ZM97.7986 25.9046V29.0764H98.0046V25.9046H97.7986ZM97.7986 29.0764C97.7986 29.6204 97.8374 30.5597 97.9146 31.8921L98.1203 31.8802C98.043 30.5477 98.0046 29.6138 98.0046 29.0764H97.7986ZM97.9146 31.8921C97.9919 33.2246 98.0303 34.1585 98.0303 34.6959H98.2363C98.2363 34.1518 98.1975 33.2126 98.1203 31.8802L97.9146 31.8921ZM98.0303 34.6959C98.0303 34.8928 97.9459 35.0684 97.7621 35.2259L97.8962 35.3823C98.1179 35.1923 98.2363 34.9624 98.2363 34.6959H98.0303ZM97.7621 35.2259C97.5775 35.3842 97.3694 35.4618 97.134 35.4618V35.6678C97.4199 35.6678 97.6753 35.5717 97.8962 35.3823L97.7621 35.2259ZM97.1857 35.4758L96.563 35.1137L96.4594 35.2918L97.0822 35.6539L97.1857 35.4758ZM96.6116 35.1799C96.3727 34.1287 96.2521 32.6844 96.2521 30.8434H96.0461C96.0461 32.6907 96.1669 34.1526 96.4108 35.2256L96.6116 35.1799ZM96.2521 30.8434C96.2521 30.1209 96.2714 29.2388 96.31 28.1968L96.1041 28.1891C96.0655 29.2327 96.0461 30.1175 96.0461 30.8434H96.2521ZM96.31 28.1968C96.3486 27.1532 96.368 26.2732 96.368 25.557H96.162C96.162 26.2698 96.1427 27.1471 96.1041 28.1891L96.31 28.1968ZM96.3591 25.5152C96.2475 25.2641 96.1942 25.0371 96.1942 24.8329H95.9882C95.9882 25.0728 96.0508 25.3286 96.1709 25.5989L96.3591 25.5152ZM96.1942 24.8329V24.7315H95.9882V24.8329H96.1942ZM96.1842 24.7758C96.2883 24.5572 96.3622 24.2296 96.4108 23.8017C96.4597 23.3716 96.4839 22.8315 96.4839 22.1825H96.2779C96.2779 22.8273 96.2538 23.3589 96.2061 23.7785C96.1582 24.2003 96.0872 24.5003 95.9982 24.6872L96.1842 24.7758ZM96.4838 22.1847L96.5128 20.8233L96.3069 20.8189L96.2779 22.1803L96.4838 22.1847ZM96.5128 20.8234C96.5225 20.3976 96.5273 19.9092 96.5273 19.3583H96.3213C96.3213 19.9081 96.3165 20.3949 96.3069 20.8187L96.5128 20.8234ZM98.9361 17.2839C98.7242 17.1673 98.4695 17.1118 98.1768 17.1118V17.3178C98.444 17.3178 98.6625 17.3685 98.8368 17.4643L98.9361 17.2839ZM98.2798 17.2148C98.2798 17.1759 98.2608 17.1472 98.2429 17.1301C98.2265 17.1145 98.2084 17.1056 98.1958 17.1004C98.1703 17.09 98.1401 17.0841 98.111 17.0801C98.0508 17.0719 97.9654 17.0683 97.8581 17.0683V17.2743C97.9633 17.2743 98.0372 17.278 98.0832 17.2842C98.0943 17.2858 98.1029 17.2873 98.1091 17.2887C98.1157 17.2902 98.1181 17.2912 98.1179 17.2911C98.1176 17.291 98.1159 17.2903 98.1132 17.2887C98.1106 17.2871 98.1059 17.2841 98.1007 17.2791C98.0894 17.2683 98.0738 17.2464 98.0738 17.2148H98.2798ZM97.7551 17.1713V18.8514H97.9611V17.1713H97.7551ZM97.7551 18.8523L97.7841 21.9662L97.9901 21.9643L97.9611 18.8504L97.7551 18.8523ZM97.7841 21.9663L97.8131 24.6312L98.0191 24.629L97.9901 21.9641L97.7841 21.9663ZM97.8131 24.6301V24.6736H98.0191V24.6301H97.8131ZM97.9303 24.7756C98.5744 24.6858 99.0381 24.1837 99.3384 23.3319C99.6387 22.4803 99.786 21.2547 99.786 19.6624H99.58C99.58 21.2468 99.4328 22.4447 99.1441 23.2634C98.8555 24.0821 98.4356 24.4972 97.9019 24.5716L97.9303 24.7756ZM99.786 19.6624C99.786 19.3332 99.7764 19.0821 99.7563 18.9118L99.5518 18.9358C99.5703 19.0938 99.58 19.3351 99.58 19.6624H99.786ZM99.7569 18.9181C99.7468 18.7375 99.7169 18.534 99.6678 18.3081L99.4665 18.3519C99.5139 18.5701 99.5419 18.7625 99.5512 18.9295L99.7569 18.9181ZM99.6673 18.3059C99.6073 18.056 99.5207 17.849 99.404 17.6897L99.2379 17.8116C99.3335 17.942 99.4111 18.1212 99.467 18.354L99.6673 18.3059ZM99.4066 17.6935C99.2988 17.5317 99.1399 17.396 98.9361 17.2839L98.8368 17.4643C99.0192 17.5646 99.15 17.6799 99.2352 17.8078L99.4066 17.6935Z" fill="white" mask="url(#path-1-outside-1_1608_2870)"/>
<path d="M8.80745 35.2228C4.64662 35.264 3.09146 33.8324 2.83398 33.1115V22.9669C4.00121 23.3102 6.83003 23.9041 8.80745 23.9453C10.7849 23.9865 14.06 23.3446 15.4504 22.9669L15.1929 33.472C14.7981 34.0384 12.9683 35.1816 8.80745 35.2228Z" fill="#063535"/>
<path d="M15.4502 14.5234C15.4502 15.5673 15.5017 16.8259 15.5017 17.8582C15.5017 18.5999 15.5017 19.1316 15.5017 19.8673C15.5017 20.7198 15.6047 21.5379 15.6047 22.3993C15.6047 23.4427 15.5532 24.4931 15.5532 25.5434" stroke="white" stroke-width="1.54486" stroke-linecap="round" stroke-linejoin="round"/>
<path d="M15.5408 24.668C15.5408 25.9675 15.6201 28.1566 15.5408 29.4417C15.4923 30.2272 15.478 31.0211 15.478 31.8021C15.478 32.4792 15.478 33.3174 15.0247 34.0055C14.1223 34.9029 12.8553 35.0229 11.6805 35.2579C11.0973 35.3745 10.1899 35.4305 9.58 35.4305C9.13925 35.4305 8.95117 35.4305 8.5072 35.4305C8.03178 35.4305 7.55637 35.4305 7.08096 35.4305C5.86606 35.4305 4.66212 35.052 3.69146 34.4135C3.52945 34.307 3.14672 34.0536 3.04008 33.8856C2.6586 33.4844 2.47363 33.2205 2.47363 32.7012" stroke="white" stroke-width="1.54486" stroke-linecap="round" stroke-linejoin="round"/>
<path d="M2.47337 32.6499C2.47337 31.4434 2.42188 30.2931 2.42188 29.0866C2.42188 27.7268 2.42188 26.3862 2.42188 25.0384C2.42188 23.8752 2.42188 22.7121 2.42188 21.5489C2.42188 21.0315 2.47337 20.5013 2.47337 19.9959C2.47337 19.6593 2.56326 18.0969 2.62786 17.7677C2.62786 17.5599 2.67935 16.6863 2.67935 16.6863" stroke="white" stroke-width="1.54486" stroke-linecap="round" stroke-linejoin="round"/>
<path d="M2.65662 16.6608C2.65662 16.6608 2.62783 16.0665 2.11288 15.9635C1.59793 15.8605 1.27075 15.9443 1.01917 15.8844C0.872035 15.8495 1.18486 15.4987 1.20866 15.4591C1.54732 14.8955 1.95839 14.6761 2.56793 14.2889C3.55475 13.8007 4.32982 13.7456 4.32982 13.7456C5.87204 13.6462 7.21343 13.6385 8.67371 13.6385C9.57404 13.6385 10.4484 13.7456 11.3444 13.7456C11.8417 13.7456 12.3332 13.7878 12.8245 13.7992C13.3446 13.8112 13.8421 14.0134 14.369 14.0134C14.7237 14.0134 15.3987 14.358 15.3987 14.6827C15.3987 15.2497 14.3314 15.4055 13.7898 15.4055C12.9784 15.5515 12.8245 15.6545 11.897 15.6545C11.5864 15.6681 10.7073 15.7268 10.3791 15.7268C9.03646 15.7268 8.6013 15.7593 7.21092 15.6732C6.57224 15.6732 4.99236 15.4655 4.362 15.349C4.08011 15.2969 3.7736 15.2188 3.49322 15.1913C3.36505 15.1788 3.16531 15.0374 3.04275 14.9891C2.89293 14.93 2.73879 15.003 2.60657 15.0426C2.363 15.1156 2.03551 15.2132 1.83432 15.3639C1.68867 15.4729 1.42166 15.6516 1.24084 15.7268" stroke="white" stroke-width="1.54486" stroke-linecap="round" stroke-linejoin="round"/>
<path d="M8.55002 27.9122C8.55002 28.6251 8.70451 28.8906 8.49853 30.6414C8.29255 31.4138 8.23468 31.3803 8.03507 31.6713C7.89625 31.8737 7.78643 32.131 7.29376 32.5191C6.80109 32.9072 6.09397 32.8509 5.71913 32.8509C5.10469 32.8509 4.9578 32.1487 4.85462 31.7275C4.39188 29.8384 7.2659 28.4396 8.49853 27.3457" stroke="white" stroke-width="1.54486" stroke-linecap="round" stroke-linejoin="round"/>
<path d="M8.56055 28.217C8.56055 27.9242 8.60138 27.6761 8.64793 27.3865C8.84132 27.0771 9.88232 24.0779 10.0074 23.7446C10.3876 22.7309 10.882 21.7817 11.2534 20.7547C11.4814 20.1244 11.7472 19.4922 12.0495 18.8876C12.3349 18.317 12.4791 17.6737 12.766 17.1128C13.0096 16.6366 14.6329 13.3729 14.8837 12.9271" stroke="white" stroke-width="1.54486" stroke-linecap="round" stroke-linejoin="round"/>
<path d="M19.5696 3.50347C19.5696 3.70942 19.2092 4.48185 18.6942 4.94531C18.2817 5.45576 18.1064 5.48415 18.0725 5.47118C18.0627 5.46743 18.0647 5.46022 18.0763 5.46022C18.2684 4.89373 18.2185 2.50903 18.9952 2.80615C19.2644 2.90916 19.5181 3.04001 19.5696 3.50347Z" fill="white"/>
<path d="M18.0763 5.46022C18.2684 4.89373 18.2185 2.50903 18.9952 2.80615C19.2644 2.90916 19.5181 3.04001 19.5696 3.50347C19.5696 3.70942 19.2092 4.48185 18.6942 4.94531C18.1623 5.60345 18.0248 5.46022 18.0763 5.46022ZM18.0763 5.46022C17.9479 5.83878 16.6926 8.72667 16.5314 9.16788C16.3702 9.60909 15.0764 12.459 14.9351 12.8241" stroke="white" stroke-width="1.54486" stroke-linecap="round" stroke-linejoin="round"/>
</svg>
