<svg width="122" height="52" viewBox="0 0 122 52" fill="none" xmlns="http://www.w3.org/2000/svg">
<path d="M10.2008 41.9003C5.31023 41.9487 3.48232 40.2661 3.17969 39.4187V27.4949C4.55163 27.8984 7.87656 28.5965 10.2008 28.6449C12.525 28.6934 16.3745 27.9388 18.0087 27.4949L17.7061 39.8424C17.2421 40.5082 15.0914 41.8519 10.2008 41.9003Z" fill="#FFD53F"/>
<path d="M18.0078 17.5705C18.0078 18.7975 18.0683 20.2768 18.0683 21.4902C18.0683 22.362 18.0683 22.9868 18.0683 23.8516C18.0683 24.8537 18.1894 25.8152 18.1894 26.8276C18.1894 28.0541 18.1289 29.2887 18.1289 30.5233" stroke="#061017" stroke-width="1.8158" stroke-linecap="round" stroke-linejoin="round"/>
<path d="M18.1128 29.4944C18.1128 31.0218 18.206 33.5949 18.1128 35.1054C18.0558 36.0286 18.039 36.9618 18.039 37.8797C18.039 38.6755 18.039 39.6607 17.5062 40.4695C16.4456 41.5243 14.9563 41.6654 13.5755 41.9415C12.89 42.0787 11.8235 42.1445 11.1066 42.1445C10.5886 42.1445 10.3675 42.1445 9.84565 42.1445C9.28686 42.1445 8.72806 42.1445 8.16927 42.1445C6.74131 42.1445 5.32622 41.6996 4.18531 40.9491C3.9949 40.8239 3.54504 40.5261 3.4197 40.3287C2.97131 39.857 2.75391 39.5468 2.75391 38.9365" stroke="#061017" stroke-width="1.8158" stroke-linecap="round" stroke-linejoin="round"/>
<path d="M2.75584 38.8761C2.75584 37.458 2.69531 36.106 2.69531 34.688C2.69531 33.0897 2.69531 31.5139 2.69531 29.9298C2.69531 28.5626 2.69531 27.1954 2.69531 25.8282C2.69531 25.2202 2.75584 24.5969 2.75584 24.0029C2.75584 23.6073 2.86149 21.7708 2.93742 21.3839C2.93742 21.1397 2.99795 20.1128 2.99795 20.1128" stroke="#061017" stroke-width="1.8158" stroke-linecap="round" stroke-linejoin="round"/>
<path d="M2.9707 20.0829C2.9707 20.0829 2.93686 19.3843 2.33159 19.2633C1.72632 19.1422 1.34177 19.2407 1.04607 19.1704C0.873123 19.1292 1.24081 18.7169 1.26879 18.6704C1.66685 18.008 2.15001 17.7501 2.86645 17.295C4.02634 16.7211 4.93735 16.6564 4.93735 16.6564C6.75004 16.5396 8.32669 16.5306 10.0431 16.5306C11.1013 16.5306 12.129 16.6564 13.1822 16.6564C13.7667 16.6564 14.3444 16.706 14.9219 16.7194C15.5332 16.7335 16.1179 16.9711 16.7372 16.9711C17.1541 16.9711 17.9475 17.3762 17.9475 17.7578C17.9475 18.4243 16.6931 18.6074 16.0565 18.6074C15.1027 18.7791 14.9219 18.9001 13.8317 18.9001C13.4666 18.9161 12.4334 18.9851 12.0475 18.9851C10.4694 18.9851 9.95796 19.0233 8.32374 18.9221C7.57305 18.9221 5.71608 18.678 4.97517 18.541C4.64384 18.4797 4.28358 18.388 3.95402 18.3557C3.80337 18.341 3.5686 18.1747 3.42454 18.1179C3.24844 18.0485 3.06727 18.1343 2.91186 18.1809C2.62557 18.2666 2.24065 18.3814 2.00418 18.5585C1.83298 18.6867 1.51914 18.8966 1.30661 18.9851" stroke="#061017" stroke-width="1.8158" stroke-linecap="round" stroke-linejoin="round"/>
<path d="M9.89634 33.3075C9.89634 34.1455 10.0779 34.4575 9.83581 36.5155C9.59371 37.4234 9.52569 37.3839 9.29107 37.726C9.12791 37.9639 8.99883 38.2662 8.41975 38.7224C7.84067 39.1786 7.00954 39.1125 6.56895 39.1125C5.84676 39.1125 5.6741 38.2871 5.55283 37.792C5.00893 35.5716 8.387 33.9275 9.83581 32.6417" stroke="#061017" stroke-width="1.8158" stroke-linecap="round" stroke-linejoin="round"/>
<path d="M9.91016 33.6657C9.91016 33.3216 9.95815 33.0299 10.0129 32.6896C10.2402 32.326 11.4637 28.8008 11.6107 28.4089C12.0576 27.2175 12.6387 26.1019 13.0753 24.8947C13.3433 24.1539 13.6556 23.4108 14.011 22.7002C14.3465 22.0294 14.516 21.2733 14.8532 20.6141C15.1395 20.0544 17.0475 16.2183 17.3422 15.6943" stroke="#061017" stroke-width="1.8158" stroke-linecap="round" stroke-linejoin="round"/>
<path d="M22.8498 4.61791C22.8498 4.85998 22.4261 5.76788 21.8208 6.31262C21.3359 6.9126 21.1299 6.94597 21.09 6.93073C21.0785 6.92632 21.0809 6.91784 21.0945 6.91784C21.3203 6.25199 21.2617 3.44906 22.1745 3.7983C22.491 3.91937 22.7892 4.07317 22.8498 4.61791Z" fill="#061017"/>
<path d="M21.0945 6.91784C21.3203 6.25199 21.2617 3.44906 22.1745 3.7983C22.491 3.91937 22.7892 4.07317 22.8498 4.61791C22.8498 4.85998 22.4261 5.76788 21.8208 6.31262C21.1956 7.0862 21.034 6.91784 21.0945 6.91784ZM21.0945 6.91784C20.9436 7.36279 19.4681 10.7572 19.2787 11.2758C19.0892 11.7943 17.5685 15.1441 17.4023 15.5732" stroke="#061017" stroke-width="1.8158" stroke-linecap="round" stroke-linejoin="round"/>
<mask id="path-10-outside-1_1603_6220" maskUnits="userSpaceOnUse" x="28.9043" y="14.5" width="91" height="30" fill="black">
<rect fill="white" x="28.9043" y="14.5" width="91" height="30"/>
<path d="M38.2928 21.0168C38.5198 19.4961 38.6786 18.0491 38.7694 16.6759V16.4716C38.8148 16.1765 38.951 15.9382 39.178 15.7566C39.4163 15.5751 39.6944 15.4843 40.0121 15.4843C40.2164 15.4843 40.4037 15.5807 40.5739 15.7737C40.7441 15.9552 40.8292 16.1538 40.8292 16.3695C40.8292 19.2974 40.9371 23.4624 41.1527 28.8645C41.357 34.414 41.4591 38.579 41.4591 41.3595C41.4591 41.7113 41.391 42.0461 41.2548 42.3638C41.1186 42.6816 40.9427 42.9369 40.7271 43.1299C40.5115 43.3228 40.2958 43.4193 40.0802 43.4193C39.8532 43.4193 39.666 43.2944 39.5185 43.0447C39.3823 42.8064 39.3142 42.4716 39.3142 42.0404C39.3142 40.0543 39.2915 37.6087 39.2461 34.7034C39.2007 31.7981 39.178 29.3525 39.178 27.3664V25.596C39.0305 26.4926 38.673 28.0587 38.1055 30.2944C37.5381 32.5415 37.1806 34.2608 37.0331 35.4524V35.6737L36.9309 36.3206C36.8855 36.6611 36.8345 36.9448 36.7777 37.1718C36.7323 37.3874 36.6586 37.6257 36.5564 37.8867C36.3521 38.4428 35.9947 38.7209 35.484 38.7209C34.6555 38.7209 34.2413 37.6371 34.2413 35.4694C34.2413 34.2665 34.1164 32.9727 33.8668 31.5882C33.6284 30.2036 33.2369 28.4956 32.6922 26.4642C32.1474 24.4895 31.807 23.1844 31.6708 22.5489C31.6254 24.1944 31.6027 25.596 31.6027 26.7536C31.6027 28.3424 31.6538 30.7313 31.7559 33.9203C31.8467 37.3136 31.8921 39.7025 31.8921 41.0871C31.8921 41.5978 31.7162 42.0347 31.3644 42.3979C30.7969 42.3979 30.3997 42.2163 30.1727 41.8531C29.9458 41.49 29.8323 40.9566 29.8323 40.253C29.8323 39.7536 29.8607 38.806 29.9174 37.4101C29.9741 36.0255 30.0025 35.0893 30.0025 34.6013C30.0025 33.0919 29.9855 30.8391 29.9514 27.8431C29.906 25.1761 29.8833 22.9291 29.8833 21.1019C29.8833 19.5925 29.9004 18.0888 29.9344 16.5908L30.9047 16.046C31.2452 16.0574 31.6311 16.5737 32.0623 17.5951C32.6865 19.1386 33.4412 22.0268 34.3264 26.2599C34.6555 27.826 34.9562 29.3468 35.2286 30.8221C35.5237 32.4223 35.6939 33.3189 35.7393 33.5118C35.8301 33.0465 36.0003 32.2748 36.25 31.1966C36.3181 30.8789 36.3805 30.5781 36.4373 30.2944C36.5054 30.0107 36.5678 29.744 36.6245 29.4943C37.0898 27.3948 37.4246 25.8343 37.6289 24.8129C37.8332 23.7916 38.0545 22.5262 38.2928 21.0168ZM48.5945 34.6183C48.6513 36.4568 48.6796 37.6881 48.6796 38.3123V39.3507V39.8444C48.6683 39.9919 48.6626 40.1508 48.6626 40.321H49.1222C49.2811 40.321 49.4343 40.3154 49.5819 40.304C49.7294 40.2927 49.911 40.287 50.1266 40.287C51.0799 40.287 51.5565 40.5764 51.5565 41.1552C51.5565 41.4502 51.4374 41.7056 51.1991 41.9212C50.9721 42.1255 50.7054 42.2276 50.399 42.2276H48.8669C47.7774 42.2276 47.1022 42.2049 46.8411 42.1595L46.4156 42.1936C45.5871 42.1936 45.1729 41.9326 45.1729 41.4105C45.1729 41.2062 45.241 41.0076 45.3771 40.8147C45.5133 40.6104 45.6495 40.5026 45.7857 40.4913H46.773L46.8071 40.27L46.8411 40.0317C46.8411 39.1011 46.8014 37.864 46.722 36.3206C46.6425 34.7772 46.6028 33.5458 46.6028 32.6266C46.6028 31.7527 46.6369 30.459 46.705 28.7453C46.7617 26.8387 46.7901 25.5449 46.7901 24.864C46.7901 23.4908 46.7333 22.2425 46.6198 21.1189H45.9559C45.8197 21.1189 45.6892 21.1246 45.5644 21.1359C45.4396 21.1473 45.3034 21.153 45.1558 21.153C44.7927 21.153 44.5203 21.0849 44.3387 20.9487C44.1572 20.8125 44.0664 20.5685 44.0664 20.2167C44.0664 19.6833 44.6395 19.4166 45.7857 19.4166H49.9393C50.4387 19.4166 50.7962 19.4847 51.0118 19.6209C51.2388 19.7798 51.3523 19.9557 51.3523 20.1486C51.3523 20.3642 51.2501 20.5628 51.0459 20.7444C50.8416 20.926 50.6089 21.0168 50.3479 21.0168H48.5605C48.6513 22.0382 48.6967 23.1163 48.6967 24.2512C48.6967 24.8186 48.6683 25.9251 48.6115 27.5707C48.5435 29.046 48.5094 30.1582 48.5094 30.9072C48.5094 31.5428 48.5378 32.7798 48.5945 34.6183ZM57.4152 25.9705L57.6365 27.2813C57.6592 27.1224 57.7103 26.833 57.7897 26.4131C57.8011 26.3337 57.8124 26.2656 57.8238 26.2088C57.8351 26.1521 57.8465 26.101 57.8578 26.0556C57.9713 25.4315 58.0451 24.9548 58.0791 24.6257C58.1699 23.8767 58.2153 23.2638 58.2153 22.7872V22.1914C58.204 22.0212 58.1983 21.8396 58.1983 21.6466C58.1983 20.9998 58.3061 20.5061 58.5217 20.1656C58.7374 19.8138 59.1516 19.5585 59.7644 19.3996L60.4113 20.2167C60.2411 20.4777 60.1049 20.7898 60.0028 21.153C59.9006 21.5161 59.8439 21.8396 59.8325 22.1233C59.8212 22.2935 59.8155 22.6567 59.8155 23.2128V23.6213C59.5431 24.3476 59.2537 25.6357 58.9473 27.4856C58.6409 29.3354 58.4877 30.6746 58.4877 31.503C58.4877 32.184 58.6352 33.0635 58.9303 34.1416C59.2254 35.2198 59.6566 36.6213 60.2241 38.3464L60.3773 38.823C60.7972 40.0827 61.0071 41.002 61.0071 41.5808C61.0071 41.8191 60.9107 42.0234 60.7177 42.1936C60.5361 42.3638 60.3205 42.4489 60.0709 42.4489C59.8779 42.4489 59.685 42.3411 59.4921 42.1255C59.3105 41.9099 59.1459 41.6091 58.9984 41.2233C58.6693 40.3721 58.4139 39.4869 58.2323 38.5677C57.994 37.376 57.8295 36.5079 57.7387 35.9631L57.5855 35.129C57.5287 35.4694 57.4266 36.3376 57.2791 37.7335C57.1315 39.0613 56.9386 40.1224 56.7003 40.9169C56.7116 40.9736 56.7173 41.1098 56.7173 41.3254C56.7173 42.1879 56.4165 42.6192 55.8151 42.6192C55.5313 42.6192 55.2817 42.5454 55.066 42.3979C54.8618 42.2503 54.7596 42.0574 54.7596 41.8191C54.7596 41.0587 54.8561 40.2359 55.049 39.3507C55.2419 38.4655 55.5313 37.3079 55.9172 35.878L56.2406 34.6523C56.5698 33.3926 56.7343 32.2634 56.7343 31.2647C56.7343 30.8335 56.5868 29.8858 56.2917 28.4219C56.008 26.9579 55.6902 25.5393 55.3384 24.1661C54.998 22.7929 54.7426 21.9871 54.5724 21.7488V21.3743C54.3567 21.1586 54.2489 20.8693 54.2489 20.5061C54.2489 20.2905 54.3511 20.1202 54.5553 19.9954C54.771 19.8592 55.015 19.7911 55.2873 19.7911C55.537 19.7911 55.7697 19.9954 55.9853 20.404C56.1782 20.7671 56.3541 21.2381 56.513 21.8169C56.6719 22.3843 56.8478 23.1106 57.0407 23.9958L57.1258 24.4214C57.2507 25.0456 57.3471 25.562 57.4152 25.9705ZM78.7847 41.5637V41.768L77.9166 42.3638L76.9973 42.3979C76.4412 42.4319 75.9589 42.4489 75.5503 42.4489C73.5416 42.4489 72.5372 42.1028 72.5372 41.4105C72.5372 40.8544 72.8891 40.5764 73.5927 40.5764C73.7516 40.5764 73.8878 40.5821 74.0012 40.5934L74.3247 40.6275C74.5063 40.6275 74.6368 40.5707 74.7162 40.4572C74.7957 40.3324 74.8354 40.1168 74.8354 39.8103C74.8354 37.9265 74.7276 35.2368 74.5119 31.7414C74.2963 28.2573 74.1885 25.5733 74.1885 23.6894L74.2225 21.902L74.2566 20.1316C74.2566 19.4393 74.2282 18.7924 74.1715 18.1909C73.8651 18.2931 73.5927 18.3442 73.3544 18.3442C72.8096 18.3442 72.5372 18.0661 72.5372 17.51C72.5372 17.2376 72.7075 16.9993 73.0479 16.795C73.3884 16.5794 73.831 16.4205 74.3757 16.3184C75.3177 16.1482 76.1405 16.063 76.8441 16.063C77.1165 16.063 77.3548 16.1595 77.5591 16.3524C77.7634 16.534 77.8655 16.7553 77.8655 17.0163C77.8655 17.266 77.7861 17.4873 77.6272 17.6802C77.4796 17.8618 77.2867 17.9526 77.0484 17.9526C76.9122 17.9526 76.7987 17.9469 76.7079 17.9356H76.4356C76.1972 17.9356 76.027 17.9867 75.9249 18.0888C75.8227 18.1909 75.7716 18.3782 75.7716 18.6506C75.7716 21.0111 75.9135 24.4101 76.1972 28.8474C76.4809 33.2848 76.6228 36.6838 76.6228 39.0443V40.3891C76.8611 40.3551 77.0995 40.3381 77.3378 40.3381C78.3024 40.3381 78.7847 40.7466 78.7847 41.5637ZM84.6094 40.5934L84.5753 39.2656L84.6264 38.074C84.5356 37.8016 84.354 35.2368 84.0817 30.3795C83.8093 25.5109 83.6561 22.4297 83.622 21.1359C82.2829 21.1019 81.4147 20.9544 81.0175 20.6933C80.7792 20.5345 80.66 20.3359 80.66 20.0975C80.66 19.8933 80.7792 19.7174 81.0175 19.5698C81.2558 19.4223 81.5055 19.3485 81.7665 19.3485C82.2886 19.3485 83.0773 19.3996 84.1327 19.5017C85.1428 19.6152 85.9315 19.672 86.499 19.672C86.6011 19.672 86.6919 19.6663 86.7713 19.6549H87.0607C87.787 19.6549 88.1502 19.933 88.1502 20.4891C88.1502 20.7614 88.031 20.9884 87.7927 21.17C87.5657 21.3516 87.299 21.4424 86.9926 21.4424C86.7543 21.4424 86.4536 21.4026 86.0904 21.3232L85.3925 21.204L85.3584 21.3572L85.3244 21.5615C85.3244 23.8313 85.5173 27.1281 85.9031 31.452C86.289 35.7759 86.4819 39.0784 86.4819 41.3595C86.4819 41.6318 86.3571 41.8758 86.1074 42.0915C85.8691 42.2957 85.5967 42.3979 85.2903 42.3979L84.6434 41.9382L84.6094 40.5934ZM99.6803 20.6423C99.6917 19.8252 99.6974 18.9683 99.6974 18.0718C99.5271 17.8789 99.442 17.6405 99.442 17.3568C99.442 17.0731 99.5385 16.8234 99.7314 16.6078C99.9357 16.3922 100.174 16.2843 100.446 16.2843C101.286 16.2843 101.706 17.1128 101.706 18.7697C101.706 20.2337 101.763 22.2481 101.876 24.8129C101.978 27.514 102.03 29.5397 102.03 30.8902C102.154 31.1739 102.268 31.7697 102.37 32.6776C102.472 33.5855 102.523 34.3402 102.523 34.9417C102.523 35.4524 102.608 36.0823 102.779 36.8313C102.949 37.5803 103.176 38.3407 103.459 39.1124C103.766 39.9182 104.163 40.5877 104.651 41.1211C105.15 41.6432 105.667 41.9042 106.2 41.9042C106.529 41.9042 106.802 41.8021 107.017 41.5978C107.233 41.3822 107.38 41.0757 107.46 40.6785C107.539 40.2927 107.59 39.9749 107.613 39.7252C107.636 39.4642 107.647 39.1464 107.647 38.7719V31.9627C107.647 31.1683 107.573 30.0731 107.426 28.6772C107.278 27.2813 107.205 26.1862 107.205 25.3917V25.1534L107.171 24.132L107.136 23.1277C107.136 22.3786 107.097 21.3856 107.017 20.1486C106.927 18.73 106.881 17.7313 106.881 17.1525C106.881 16.8802 107.017 16.6532 107.29 16.4716C107.562 16.29 107.863 16.1992 108.192 16.1992L109.043 17.0163V17.5951C109.043 17.8562 109.003 18.2023 108.924 18.6335C108.833 19.1442 108.788 19.5074 108.788 19.723C108.788 21.7658 108.896 24.6881 109.111 28.49C109.315 32.3826 109.418 35.4184 109.418 37.5973C109.418 38.2329 109.395 38.7776 109.349 39.2316C109.304 39.6855 109.219 40.1565 109.094 40.6445C108.958 41.1779 108.765 41.6148 108.515 41.9553C108.277 42.2844 107.948 42.5624 107.528 42.7894C107.074 43.0164 106.558 43.1299 105.979 43.1299C105.275 43.1299 104.634 42.971 104.055 42.6532C103.476 42.3355 102.977 41.8702 102.557 41.2573C102.115 40.6218 101.734 39.9238 101.417 39.1635C101.099 38.4031 100.844 37.5292 100.651 36.5419C100.435 35.4524 100.259 34.4197 100.123 33.4437C99.9981 32.4563 99.9016 31.3782 99.8335 30.2093C99.72 28.1665 99.6633 25.9365 99.6633 23.5192C99.6633 22.4184 99.669 21.4594 99.6803 20.6423ZM113.182 24.115C113.182 22.6737 113.092 21.5956 112.91 20.8806C112.978 20.5515 113.092 20.2678 113.251 20.0294C113.421 19.7798 113.619 19.6549 113.846 19.6549H115.378C116.037 19.6549 116.61 19.8025 117.098 20.0975C117.586 20.3926 117.955 20.8012 118.204 21.3232C118.681 22.3219 118.919 23.4568 118.919 24.7278C118.919 25.6471 118.902 26.3791 118.868 26.9238C118.845 27.3097 118.811 27.6218 118.766 27.8601C118.721 28.0871 118.647 28.3878 118.545 28.7623C118.454 29.0687 118.346 29.3241 118.221 29.5284C118.108 29.7213 117.938 29.9539 117.711 30.2263C117.518 30.4646 117.291 30.6689 117.03 30.8391C116.78 31.0094 116.468 31.1796 116.093 31.3498C115.73 31.5201 115.339 31.6733 114.919 31.8095V35.5375C114.919 36.1731 114.964 37.2739 115.055 38.84C115.146 40.4062 115.191 41.507 115.191 42.1425C115.191 42.4149 115.072 42.6532 114.834 42.8575C114.595 43.0618 114.323 43.1639 114.017 43.1639L113.285 42.7383C113.001 41.49 112.859 39.782 112.859 37.6144C112.859 36.7632 112.882 35.7248 112.927 34.4991C112.972 33.2735 112.995 32.2407 112.995 31.4009C112.859 31.0945 112.791 30.8108 112.791 30.5498V30.4306C113.018 29.9539 113.131 28.9553 113.131 27.4345L113.165 25.8343C113.177 25.335 113.182 24.7619 113.182 24.115ZM116.076 21.7828C115.849 21.658 115.571 21.5956 115.242 21.5956C115.242 21.5615 115.117 21.5445 114.868 21.5445V23.5192L114.902 27.1792L114.936 30.3114V30.3625C116.32 30.1696 117.013 28.2062 117.013 24.4725C117.013 24.0866 117.001 23.7972 116.979 23.6043C116.967 23.4 116.933 23.1674 116.876 22.9064C116.808 22.6226 116.712 22.3957 116.587 22.2254C116.474 22.0552 116.303 21.9077 116.076 21.7828Z"/>
</mask>
<path d="M38.2928 21.0168C38.5198 19.4961 38.6786 18.0491 38.7694 16.6759V16.4716C38.8148 16.1765 38.951 15.9382 39.178 15.7566C39.4163 15.5751 39.6944 15.4843 40.0121 15.4843C40.2164 15.4843 40.4037 15.5807 40.5739 15.7737C40.7441 15.9552 40.8292 16.1538 40.8292 16.3695C40.8292 19.2974 40.9371 23.4624 41.1527 28.8645C41.357 34.414 41.4591 38.579 41.4591 41.3595C41.4591 41.7113 41.391 42.0461 41.2548 42.3638C41.1186 42.6816 40.9427 42.9369 40.7271 43.1299C40.5115 43.3228 40.2958 43.4193 40.0802 43.4193C39.8532 43.4193 39.666 43.2944 39.5185 43.0447C39.3823 42.8064 39.3142 42.4716 39.3142 42.0404C39.3142 40.0543 39.2915 37.6087 39.2461 34.7034C39.2007 31.7981 39.178 29.3525 39.178 27.3664V25.596C39.0305 26.4926 38.673 28.0587 38.1055 30.2944C37.5381 32.5415 37.1806 34.2608 37.0331 35.4524V35.6737L36.9309 36.3206C36.8855 36.6611 36.8345 36.9448 36.7777 37.1718C36.7323 37.3874 36.6586 37.6257 36.5564 37.8867C36.3521 38.4428 35.9947 38.7209 35.484 38.7209C34.6555 38.7209 34.2413 37.6371 34.2413 35.4694C34.2413 34.2665 34.1164 32.9727 33.8668 31.5882C33.6284 30.2036 33.2369 28.4956 32.6922 26.4642C32.1474 24.4895 31.807 23.1844 31.6708 22.5489C31.6254 24.1944 31.6027 25.596 31.6027 26.7536C31.6027 28.3424 31.6538 30.7313 31.7559 33.9203C31.8467 37.3136 31.8921 39.7025 31.8921 41.0871C31.8921 41.5978 31.7162 42.0347 31.3644 42.3979C30.7969 42.3979 30.3997 42.2163 30.1727 41.8531C29.9458 41.49 29.8323 40.9566 29.8323 40.253C29.8323 39.7536 29.8607 38.806 29.9174 37.4101C29.9741 36.0255 30.0025 35.0893 30.0025 34.6013C30.0025 33.0919 29.9855 30.8391 29.9514 27.8431C29.906 25.1761 29.8833 22.9291 29.8833 21.1019C29.8833 19.5925 29.9004 18.0888 29.9344 16.5908L30.9047 16.046C31.2452 16.0574 31.6311 16.5737 32.0623 17.5951C32.6865 19.1386 33.4412 22.0268 34.3264 26.2599C34.6555 27.826 34.9562 29.3468 35.2286 30.8221C35.5237 32.4223 35.6939 33.3189 35.7393 33.5118C35.8301 33.0465 36.0003 32.2748 36.25 31.1966C36.3181 30.8789 36.3805 30.5781 36.4373 30.2944C36.5054 30.0107 36.5678 29.744 36.6245 29.4943C37.0898 27.3948 37.4246 25.8343 37.6289 24.8129C37.8332 23.7916 38.0545 22.5262 38.2928 21.0168ZM48.5945 34.6183C48.6513 36.4568 48.6796 37.6881 48.6796 38.3123V39.3507V39.8444C48.6683 39.9919 48.6626 40.1508 48.6626 40.321H49.1222C49.2811 40.321 49.4343 40.3154 49.5819 40.304C49.7294 40.2927 49.911 40.287 50.1266 40.287C51.0799 40.287 51.5565 40.5764 51.5565 41.1552C51.5565 41.4502 51.4374 41.7056 51.1991 41.9212C50.9721 42.1255 50.7054 42.2276 50.399 42.2276H48.8669C47.7774 42.2276 47.1022 42.2049 46.8411 42.1595L46.4156 42.1936C45.5871 42.1936 45.1729 41.9326 45.1729 41.4105C45.1729 41.2062 45.241 41.0076 45.3771 40.8147C45.5133 40.6104 45.6495 40.5026 45.7857 40.4913H46.773L46.8071 40.27L46.8411 40.0317C46.8411 39.1011 46.8014 37.864 46.722 36.3206C46.6425 34.7772 46.6028 33.5458 46.6028 32.6266C46.6028 31.7527 46.6369 30.459 46.705 28.7453C46.7617 26.8387 46.7901 25.5449 46.7901 24.864C46.7901 23.4908 46.7333 22.2425 46.6198 21.1189H45.9559C45.8197 21.1189 45.6892 21.1246 45.5644 21.1359C45.4396 21.1473 45.3034 21.153 45.1558 21.153C44.7927 21.153 44.5203 21.0849 44.3387 20.9487C44.1572 20.8125 44.0664 20.5685 44.0664 20.2167C44.0664 19.6833 44.6395 19.4166 45.7857 19.4166H49.9393C50.4387 19.4166 50.7962 19.4847 51.0118 19.6209C51.2388 19.7798 51.3523 19.9557 51.3523 20.1486C51.3523 20.3642 51.2501 20.5628 51.0459 20.7444C50.8416 20.926 50.6089 21.0168 50.3479 21.0168H48.5605C48.6513 22.0382 48.6967 23.1163 48.6967 24.2512C48.6967 24.8186 48.6683 25.9251 48.6115 27.5707C48.5435 29.046 48.5094 30.1582 48.5094 30.9072C48.5094 31.5428 48.5378 32.7798 48.5945 34.6183ZM57.4152 25.9705L57.6365 27.2813C57.6592 27.1224 57.7103 26.833 57.7897 26.4131C57.8011 26.3337 57.8124 26.2656 57.8238 26.2088C57.8351 26.1521 57.8465 26.101 57.8578 26.0556C57.9713 25.4315 58.0451 24.9548 58.0791 24.6257C58.1699 23.8767 58.2153 23.2638 58.2153 22.7872V22.1914C58.204 22.0212 58.1983 21.8396 58.1983 21.6466C58.1983 20.9998 58.3061 20.5061 58.5217 20.1656C58.7374 19.8138 59.1516 19.5585 59.7644 19.3996L60.4113 20.2167C60.2411 20.4777 60.1049 20.7898 60.0028 21.153C59.9006 21.5161 59.8439 21.8396 59.8325 22.1233C59.8212 22.2935 59.8155 22.6567 59.8155 23.2128V23.6213C59.5431 24.3476 59.2537 25.6357 58.9473 27.4856C58.6409 29.3354 58.4877 30.6746 58.4877 31.503C58.4877 32.184 58.6352 33.0635 58.9303 34.1416C59.2254 35.2198 59.6566 36.6213 60.2241 38.3464L60.3773 38.823C60.7972 40.0827 61.0071 41.002 61.0071 41.5808C61.0071 41.8191 60.9107 42.0234 60.7177 42.1936C60.5361 42.3638 60.3205 42.4489 60.0709 42.4489C59.8779 42.4489 59.685 42.3411 59.4921 42.1255C59.3105 41.9099 59.1459 41.6091 58.9984 41.2233C58.6693 40.3721 58.4139 39.4869 58.2323 38.5677C57.994 37.376 57.8295 36.5079 57.7387 35.9631L57.5855 35.129C57.5287 35.4694 57.4266 36.3376 57.2791 37.7335C57.1315 39.0613 56.9386 40.1224 56.7003 40.9169C56.7116 40.9736 56.7173 41.1098 56.7173 41.3254C56.7173 42.1879 56.4165 42.6192 55.8151 42.6192C55.5313 42.6192 55.2817 42.5454 55.066 42.3979C54.8618 42.2503 54.7596 42.0574 54.7596 41.8191C54.7596 41.0587 54.8561 40.2359 55.049 39.3507C55.2419 38.4655 55.5313 37.3079 55.9172 35.878L56.2406 34.6523C56.5698 33.3926 56.7343 32.2634 56.7343 31.2647C56.7343 30.8335 56.5868 29.8858 56.2917 28.4219C56.008 26.9579 55.6902 25.5393 55.3384 24.1661C54.998 22.7929 54.7426 21.9871 54.5724 21.7488V21.3743C54.3567 21.1586 54.2489 20.8693 54.2489 20.5061C54.2489 20.2905 54.3511 20.1202 54.5553 19.9954C54.771 19.8592 55.015 19.7911 55.2873 19.7911C55.537 19.7911 55.7697 19.9954 55.9853 20.404C56.1782 20.7671 56.3541 21.2381 56.513 21.8169C56.6719 22.3843 56.8478 23.1106 57.0407 23.9958L57.1258 24.4214C57.2507 25.0456 57.3471 25.562 57.4152 25.9705ZM78.7847 41.5637V41.768L77.9166 42.3638L76.9973 42.3979C76.4412 42.4319 75.9589 42.4489 75.5503 42.4489C73.5416 42.4489 72.5372 42.1028 72.5372 41.4105C72.5372 40.8544 72.8891 40.5764 73.5927 40.5764C73.7516 40.5764 73.8878 40.5821 74.0012 40.5934L74.3247 40.6275C74.5063 40.6275 74.6368 40.5707 74.7162 40.4572C74.7957 40.3324 74.8354 40.1168 74.8354 39.8103C74.8354 37.9265 74.7276 35.2368 74.5119 31.7414C74.2963 28.2573 74.1885 25.5733 74.1885 23.6894L74.2225 21.902L74.2566 20.1316C74.2566 19.4393 74.2282 18.7924 74.1715 18.1909C73.8651 18.2931 73.5927 18.3442 73.3544 18.3442C72.8096 18.3442 72.5372 18.0661 72.5372 17.51C72.5372 17.2376 72.7075 16.9993 73.0479 16.795C73.3884 16.5794 73.831 16.4205 74.3757 16.3184C75.3177 16.1482 76.1405 16.063 76.8441 16.063C77.1165 16.063 77.3548 16.1595 77.5591 16.3524C77.7634 16.534 77.8655 16.7553 77.8655 17.0163C77.8655 17.266 77.7861 17.4873 77.6272 17.6802C77.4796 17.8618 77.2867 17.9526 77.0484 17.9526C76.9122 17.9526 76.7987 17.9469 76.7079 17.9356H76.4356C76.1972 17.9356 76.027 17.9867 75.9249 18.0888C75.8227 18.1909 75.7716 18.3782 75.7716 18.6506C75.7716 21.0111 75.9135 24.4101 76.1972 28.8474C76.4809 33.2848 76.6228 36.6838 76.6228 39.0443V40.3891C76.8611 40.3551 77.0995 40.3381 77.3378 40.3381C78.3024 40.3381 78.7847 40.7466 78.7847 41.5637ZM84.6094 40.5934L84.5753 39.2656L84.6264 38.074C84.5356 37.8016 84.354 35.2368 84.0817 30.3795C83.8093 25.5109 83.6561 22.4297 83.622 21.1359C82.2829 21.1019 81.4147 20.9544 81.0175 20.6933C80.7792 20.5345 80.66 20.3359 80.66 20.0975C80.66 19.8933 80.7792 19.7174 81.0175 19.5698C81.2558 19.4223 81.5055 19.3485 81.7665 19.3485C82.2886 19.3485 83.0773 19.3996 84.1327 19.5017C85.1428 19.6152 85.9315 19.672 86.499 19.672C86.6011 19.672 86.6919 19.6663 86.7713 19.6549H87.0607C87.787 19.6549 88.1502 19.933 88.1502 20.4891C88.1502 20.7614 88.031 20.9884 87.7927 21.17C87.5657 21.3516 87.299 21.4424 86.9926 21.4424C86.7543 21.4424 86.4536 21.4026 86.0904 21.3232L85.3925 21.204L85.3584 21.3572L85.3244 21.5615C85.3244 23.8313 85.5173 27.1281 85.9031 31.452C86.289 35.7759 86.4819 39.0784 86.4819 41.3595C86.4819 41.6318 86.3571 41.8758 86.1074 42.0915C85.8691 42.2957 85.5967 42.3979 85.2903 42.3979L84.6434 41.9382L84.6094 40.5934ZM99.6803 20.6423C99.6917 19.8252 99.6974 18.9683 99.6974 18.0718C99.5271 17.8789 99.442 17.6405 99.442 17.3568C99.442 17.0731 99.5385 16.8234 99.7314 16.6078C99.9357 16.3922 100.174 16.2843 100.446 16.2843C101.286 16.2843 101.706 17.1128 101.706 18.7697C101.706 20.2337 101.763 22.2481 101.876 24.8129C101.978 27.514 102.03 29.5397 102.03 30.8902C102.154 31.1739 102.268 31.7697 102.37 32.6776C102.472 33.5855 102.523 34.3402 102.523 34.9417C102.523 35.4524 102.608 36.0823 102.779 36.8313C102.949 37.5803 103.176 38.3407 103.459 39.1124C103.766 39.9182 104.163 40.5877 104.651 41.1211C105.15 41.6432 105.667 41.9042 106.2 41.9042C106.529 41.9042 106.802 41.8021 107.017 41.5978C107.233 41.3822 107.38 41.0757 107.46 40.6785C107.539 40.2927 107.59 39.9749 107.613 39.7252C107.636 39.4642 107.647 39.1464 107.647 38.7719V31.9627C107.647 31.1683 107.573 30.0731 107.426 28.6772C107.278 27.2813 107.205 26.1862 107.205 25.3917V25.1534L107.171 24.132L107.136 23.1277C107.136 22.3786 107.097 21.3856 107.017 20.1486C106.927 18.73 106.881 17.7313 106.881 17.1525C106.881 16.8802 107.017 16.6532 107.29 16.4716C107.562 16.29 107.863 16.1992 108.192 16.1992L109.043 17.0163V17.5951C109.043 17.8562 109.003 18.2023 108.924 18.6335C108.833 19.1442 108.788 19.5074 108.788 19.723C108.788 21.7658 108.896 24.6881 109.111 28.49C109.315 32.3826 109.418 35.4184 109.418 37.5973C109.418 38.2329 109.395 38.7776 109.349 39.2316C109.304 39.6855 109.219 40.1565 109.094 40.6445C108.958 41.1779 108.765 41.6148 108.515 41.9553C108.277 42.2844 107.948 42.5624 107.528 42.7894C107.074 43.0164 106.558 43.1299 105.979 43.1299C105.275 43.1299 104.634 42.971 104.055 42.6532C103.476 42.3355 102.977 41.8702 102.557 41.2573C102.115 40.6218 101.734 39.9238 101.417 39.1635C101.099 38.4031 100.844 37.5292 100.651 36.5419C100.435 35.4524 100.259 34.4197 100.123 33.4437C99.9981 32.4563 99.9016 31.3782 99.8335 30.2093C99.72 28.1665 99.6633 25.9365 99.6633 23.5192C99.6633 22.4184 99.669 21.4594 99.6803 20.6423ZM113.182 24.115C113.182 22.6737 113.092 21.5956 112.91 20.8806C112.978 20.5515 113.092 20.2678 113.251 20.0294C113.421 19.7798 113.619 19.6549 113.846 19.6549H115.378C116.037 19.6549 116.61 19.8025 117.098 20.0975C117.586 20.3926 117.955 20.8012 118.204 21.3232C118.681 22.3219 118.919 23.4568 118.919 24.7278C118.919 25.6471 118.902 26.3791 118.868 26.9238C118.845 27.3097 118.811 27.6218 118.766 27.8601C118.721 28.0871 118.647 28.3878 118.545 28.7623C118.454 29.0687 118.346 29.3241 118.221 29.5284C118.108 29.7213 117.938 29.9539 117.711 30.2263C117.518 30.4646 117.291 30.6689 117.03 30.8391C116.78 31.0094 116.468 31.1796 116.093 31.3498C115.73 31.5201 115.339 31.6733 114.919 31.8095V35.5375C114.919 36.1731 114.964 37.2739 115.055 38.84C115.146 40.4062 115.191 41.507 115.191 42.1425C115.191 42.4149 115.072 42.6532 114.834 42.8575C114.595 43.0618 114.323 43.1639 114.017 43.1639L113.285 42.7383C113.001 41.49 112.859 39.782 112.859 37.6144C112.859 36.7632 112.882 35.7248 112.927 34.4991C112.972 33.2735 112.995 32.2407 112.995 31.4009C112.859 31.0945 112.791 30.8108 112.791 30.5498V30.4306C113.018 29.9539 113.131 28.9553 113.131 27.4345L113.165 25.8343C113.177 25.335 113.182 24.7619 113.182 24.115ZM116.076 21.7828C115.849 21.658 115.571 21.5956 115.242 21.5956C115.242 21.5615 115.117 21.5445 114.868 21.5445V23.5192L114.902 27.1792L114.936 30.3114V30.3625C116.32 30.1696 117.013 28.2062 117.013 24.4725C117.013 24.0866 117.001 23.7972 116.979 23.6043C116.967 23.4 116.933 23.1674 116.876 22.9064C116.808 22.6226 116.712 22.3957 116.587 22.2254C116.474 22.0552 116.303 21.9077 116.076 21.7828Z" fill="#061017"/>
<path d="M38.2928 21.0168L38.4124 21.0357L38.4125 21.0347L38.2928 21.0168ZM38.7694 16.6759L38.8905 16.6839V16.6759H38.7694ZM38.7694 16.4716L38.6498 16.4532L38.6484 16.4623V16.4716H38.7694ZM39.178 15.7566L39.1046 15.6603L39.1024 15.6621L39.178 15.7566ZM40.5739 15.7737L40.4831 15.8538L40.4856 15.8564L40.5739 15.7737ZM41.1527 28.8645L41.2737 28.86L41.2736 28.8596L41.1527 28.8645ZM40.7271 43.1299L40.6464 43.0397L40.7271 43.1299ZM39.5185 43.0447L39.4133 43.1048L39.4142 43.1063L39.5185 43.0447ZM39.178 25.596H39.299L39.0585 25.5764L39.178 25.596ZM38.1055 30.2944L37.9882 30.2646L37.9882 30.2648L38.1055 30.2944ZM37.0331 35.4524L36.9129 35.4375L36.912 35.445V35.4524H37.0331ZM37.0331 35.6737L37.1526 35.6926L37.1541 35.6832V35.6737H37.0331ZM36.9309 36.3206L36.8113 36.3017L36.8109 36.3046L36.9309 36.3206ZM36.7777 37.1718L36.6602 37.1424L36.6593 37.1468L36.7777 37.1718ZM36.5564 37.8867L36.4437 37.8426L36.4428 37.845L36.5564 37.8867ZM33.8668 31.5882L33.7475 31.6087L33.7476 31.6096L33.8668 31.5882ZM32.6922 26.4642L32.8091 26.4328L32.8089 26.432L32.6922 26.4642ZM31.6708 22.5489L31.7891 22.5235L31.5498 22.5455L31.6708 22.5489ZM31.7559 33.9203L31.8769 33.9171L31.8769 33.9165L31.7559 33.9203ZM31.3644 42.3979V42.5189H31.4156L31.4513 42.4821L31.3644 42.3979ZM30.1727 41.8531L30.0701 41.9173L30.1727 41.8531ZM29.9174 37.4101L29.7964 37.4051L29.7964 37.4052L29.9174 37.4101ZM29.9514 27.8431L30.0725 27.8417L30.0725 27.841L29.9514 27.8431ZM29.9344 16.5908L29.8752 16.4852L29.815 16.519L29.8134 16.588L29.9344 16.5908ZM30.9047 16.046L30.9088 15.925L30.875 15.9239L30.8455 15.9405L30.9047 16.046ZM32.0623 17.5951L32.1745 17.5497L32.1738 17.548L32.0623 17.5951ZM34.3264 26.2599L34.2079 26.2847L34.2079 26.2848L34.3264 26.2599ZM35.2286 30.8221L35.3477 30.8002L35.3477 30.8001L35.2286 30.8221ZM35.7393 33.5118L35.6215 33.5395L35.8581 33.535L35.7393 33.5118ZM36.25 31.1966L36.368 31.2239L36.3684 31.222L36.25 31.1966ZM36.4373 30.2944L36.3195 30.2661L36.3186 30.2707L36.4373 30.2944ZM36.6245 29.4943L36.7426 29.5211L36.7427 29.5205L36.6245 29.4943ZM38.4125 21.0347C38.6399 19.511 38.7992 18.0607 38.8902 16.6839L38.6486 16.6679C38.5581 18.0374 38.3996 19.4811 38.1731 20.9989L38.4125 21.0347ZM38.8905 16.6759V16.4716H38.6484V16.6759H38.8905ZM38.8891 16.49C38.93 16.224 39.051 16.0132 39.2536 15.8512L39.1024 15.6621C38.851 15.8632 38.6997 16.129 38.6498 16.4532L38.8891 16.49ZM39.2514 15.8529C39.4673 15.6884 39.7192 15.6053 40.0121 15.6053V15.3632C39.6696 15.3632 39.3654 15.4617 39.1046 15.6603L39.2514 15.8529ZM40.0121 15.6053C40.173 15.6053 40.3295 15.6796 40.4831 15.8537L40.6647 15.6936C40.4779 15.4819 40.2598 15.3632 40.0121 15.3632V15.6053ZM40.4856 15.8564C40.6383 16.0193 40.7082 16.1893 40.7082 16.3695H40.9503C40.9503 16.1183 40.85 15.8912 40.6622 15.6909L40.4856 15.8564ZM40.7082 16.3695C40.7082 19.2999 40.8161 23.4668 41.0317 28.8693L41.2736 28.8596C41.058 23.4581 40.9503 19.295 40.9503 16.3695H40.7082ZM41.0317 28.8689C41.236 34.4181 41.338 38.5813 41.338 41.3595H41.5801C41.5801 38.5767 41.4779 34.4099 41.2736 28.86L41.0317 28.8689ZM41.338 41.3595C41.338 41.6952 41.2732 42.0137 41.1436 42.3161L41.3661 42.4115C41.5088 42.0784 41.5801 41.7274 41.5801 41.3595H41.338ZM41.1436 42.3161C41.013 42.6208 40.8465 42.8606 40.6464 43.0397L40.8078 43.2201C41.0389 43.0133 41.2243 42.7424 41.3661 42.4115L41.1436 42.3161ZM40.6464 43.0397C40.4453 43.2196 40.2571 43.2982 40.0802 43.2982V43.5403C40.3345 43.5403 40.5777 43.426 40.8078 43.2201L40.6464 43.0397ZM40.0802 43.2982C39.9082 43.2982 39.7554 43.2078 39.6227 42.9832L39.4142 43.1063C39.5766 43.3811 39.7983 43.5403 40.0802 43.5403V43.2982ZM39.6236 42.9847C39.5022 42.7722 39.4352 42.4615 39.4352 42.0404H39.1931C39.1931 42.4818 39.2624 42.8406 39.4134 43.1048L39.6236 42.9847ZM39.4352 42.0404C39.4352 40.0535 39.4125 37.6072 39.3671 34.7015L39.125 34.7053C39.1704 37.6102 39.1931 40.0552 39.1931 42.0404H39.4352ZM39.3671 34.7015C39.3217 31.7966 39.299 29.3516 39.299 27.3664H39.0569C39.0569 29.3533 39.0796 31.7996 39.125 34.7053L39.3671 34.7015ZM39.299 27.3664V25.596H39.0569V27.3664H39.299ZM39.0585 25.5764C38.912 26.4672 38.5557 28.0287 37.9882 30.2646L38.2229 30.3242C38.7903 28.0887 39.149 26.5179 39.2974 25.6157L39.0585 25.5764ZM37.9882 30.2648C37.4204 32.5131 37.0614 34.2383 36.9129 35.4375L37.1532 35.4673C37.2998 34.2833 37.6558 32.5698 38.2229 30.324L37.9882 30.2648ZM36.912 35.4524V35.6737H37.1541V35.4524H36.912ZM36.9135 35.6548L36.8114 36.3017L37.0505 36.3395L37.1526 35.6926L36.9135 35.6548ZM36.8109 36.3046C36.7659 36.6424 36.7156 36.9213 36.6603 37.1424L36.8952 37.2011C36.9534 36.9682 37.0052 36.6797 37.0509 36.3366L36.8109 36.3046ZM36.6593 37.1468C36.6156 37.3544 36.544 37.5862 36.4437 37.8426L36.6692 37.9308C36.7731 37.6652 36.8491 37.4203 36.8962 37.1967L36.6593 37.1468ZM36.4428 37.845C36.3461 38.1082 36.2169 38.2953 36.0608 38.4168C35.906 38.5372 35.716 38.5998 35.484 38.5998V38.8419C35.7626 38.8419 36.0067 38.7655 36.2094 38.6079C36.4108 38.4513 36.5625 38.2214 36.6701 37.9285L36.4428 37.845ZM35.484 38.5998C35.306 38.5998 35.153 38.5426 35.0199 38.4264C34.8843 38.3082 34.7642 38.1243 34.665 37.8648C34.466 37.3439 34.3623 36.549 34.3623 35.4694H34.1202C34.1202 36.5575 34.2237 37.3883 34.4389 37.9512C34.5468 38.2336 34.6856 38.4562 34.8607 38.6089C35.0382 38.7637 35.2478 38.8419 35.484 38.8419V38.5998ZM34.3623 35.4694C34.3623 34.2582 34.2366 32.9572 33.9859 31.5667L33.7476 31.6096C33.9962 32.9883 34.1202 34.2748 34.1202 35.4694H34.3623ZM33.9861 31.5676C33.7469 30.1781 33.3544 28.4663 32.8091 26.4328L32.5752 26.4955C33.1195 28.525 33.51 30.2291 33.7475 31.6087L33.9861 31.5676ZM32.8089 26.432C32.2639 24.4566 31.9245 23.155 31.7891 22.5235L31.5524 22.5742C31.6895 23.2138 32.0309 24.5224 32.5755 26.4964L32.8089 26.432ZM31.5498 22.5455C31.5044 24.1918 31.4816 25.5945 31.4816 26.7536H31.7237C31.7237 25.5975 31.7464 24.1971 31.7918 22.5522L31.5498 22.5455ZM31.4816 26.7536C31.4816 28.3444 31.5328 30.7349 31.6349 33.9242L31.8769 33.9165C31.7748 30.7277 31.7237 28.3404 31.7237 26.7536H31.4816ZM31.6349 33.9236C31.7257 37.3169 31.771 39.7043 31.771 41.0871H32.0131C32.0131 39.7007 31.9677 37.3104 31.8769 33.9171L31.6349 33.9236ZM31.771 41.0871C31.771 41.5667 31.6071 41.9733 31.2774 42.3136L31.4513 42.4821C31.8252 42.0961 32.0131 41.6289 32.0131 41.0871H31.771ZM31.3644 42.2768C30.8234 42.2768 30.4732 42.1055 30.2754 41.789L30.0701 41.9173C30.3262 42.3271 30.7704 42.5189 31.3644 42.5189V42.2768ZM30.2754 41.789C30.0659 41.4538 29.9533 40.947 29.9533 40.253H29.7112C29.7112 40.9662 29.8256 41.5262 30.0701 41.9173L30.2754 41.789ZM29.9533 40.253C29.9533 39.7564 29.9816 38.8112 30.0383 37.415L29.7964 37.4052C29.7397 38.8008 29.7112 39.7508 29.7112 40.253H29.9533ZM30.0383 37.415C30.0951 36.0308 30.1236 35.0921 30.1236 34.6013H29.8815C29.8815 35.0864 29.8532 36.0203 29.7964 37.4051L30.0383 37.415ZM30.1236 34.6013C30.1236 33.0912 30.1065 30.8379 30.0725 27.8417L29.8304 27.8444C29.8644 30.8404 29.8815 33.0926 29.8815 34.6013H30.1236ZM30.0725 27.841C30.0271 25.1745 30.0044 22.9281 30.0044 21.1019H29.7623C29.7623 22.93 29.785 25.1778 29.8304 27.8451L30.0725 27.841ZM30.0044 21.1019C30.0044 19.5934 30.0214 18.0906 30.0554 16.5935L29.8134 16.588C29.7793 18.087 29.7623 19.5916 29.7623 21.1019H30.0044ZM29.9937 16.6963L30.964 16.1516L30.8455 15.9405L29.8752 16.4852L29.9937 16.6963ZM30.9007 16.167C31.012 16.1707 31.1635 16.2613 31.3525 16.5143C31.5369 16.761 31.7367 17.1351 31.9508 17.6422L32.1738 17.548C31.9567 17.0338 31.748 16.639 31.5464 16.3694C31.3496 16.106 31.138 15.9327 30.9088 15.925L30.9007 16.167ZM31.9501 17.6405C32.5697 19.1726 33.3226 22.051 34.2079 26.2847L34.4449 26.2351C33.5598 22.0027 32.8033 19.1045 32.1745 17.5497L31.9501 17.6405ZM34.2079 26.2848C34.5369 27.85 34.8374 29.3698 35.1096 30.8441L35.3477 30.8001C35.0751 29.3238 34.7742 27.8021 34.4449 26.235L34.2079 26.2848ZM35.1096 30.8441C35.4042 32.442 35.5752 33.3428 35.6215 33.5395L35.8572 33.4841C35.8126 33.2949 35.6432 32.4026 35.3477 30.8002L35.1096 30.8441ZM35.8581 33.535C35.9485 33.0719 36.1183 32.302 36.3679 31.2239L36.1321 31.1693C35.8824 32.2475 35.7117 33.021 35.6205 33.4886L35.8581 33.535ZM36.3684 31.222C36.4366 30.9038 36.4991 30.6025 36.556 30.3181L36.3186 30.2707C36.2619 30.5538 36.1996 30.854 36.1316 31.1713L36.3684 31.222ZM36.555 30.3227C36.6232 30.0385 36.6857 29.7714 36.7426 29.5211L36.5065 29.4675C36.4499 29.7166 36.3875 29.9828 36.3196 30.2662L36.555 30.3227ZM36.7427 29.5205C37.208 27.4208 37.5431 25.8594 37.7476 24.8367L37.5102 24.7892C37.3062 25.8093 36.9716 27.3688 36.5063 29.4681L36.7427 29.5205ZM37.7476 24.8367C37.9523 23.8131 38.1739 22.546 38.4124 21.0357L38.1732 20.9979C37.935 22.5063 37.714 23.77 37.5102 24.7892L37.7476 24.8367ZM48.6796 39.8444L48.8007 39.8537V39.8444H48.6796ZM48.6626 40.321H48.5416V40.4421H48.6626V40.321ZM51.1991 41.9212L51.28 42.0112L51.2803 42.011L51.1991 41.9212ZM46.8411 42.1595L46.8619 42.0403L46.8468 42.0377L46.8315 42.0389L46.8411 42.1595ZM46.4156 42.1936V42.315L46.4252 42.3143L46.4156 42.1936ZM45.3771 40.8147L45.4761 40.8845L45.4779 40.8819L45.3771 40.8147ZM45.7857 40.4913V40.3698L45.7756 40.3706L45.7857 40.4913ZM46.773 40.4913V40.6123H46.8769L46.8927 40.5097L46.773 40.4913ZM46.8071 40.27L46.9267 40.2884L46.9269 40.2871L46.8071 40.27ZM46.8411 40.0317L46.961 40.0488L46.9622 40.0403V40.0317H46.8411ZM46.705 28.7453L46.8259 28.7501L46.826 28.7489L46.705 28.7453ZM46.6198 21.1189L46.7403 21.1068L46.7293 20.9979H46.6198V21.1189ZM51.0118 19.6209L51.0813 19.5216L51.0765 19.5185L51.0118 19.6209ZM48.5605 21.0168V20.8957H48.4282L48.4399 21.0275L48.5605 21.0168ZM48.6115 27.5707L48.7325 27.5763L48.7325 27.5749L48.6115 27.5707ZM48.4735 34.622C48.5303 36.4608 48.5586 37.6903 48.5586 38.3123H48.8007C48.8007 37.686 48.7723 36.4528 48.7155 34.6146L48.4735 34.622ZM48.5586 38.3123V39.3507H48.8007V38.3123H48.5586ZM48.5586 39.3507V39.8444H48.8007V39.3507H48.5586ZM48.5589 39.8351C48.5473 39.9862 48.5416 40.1482 48.5416 40.321H48.7837C48.7837 40.1535 48.7893 39.9977 48.8003 39.8537L48.5589 39.8351ZM48.6626 40.4421H49.1222V40.2H48.6626V40.4421ZM49.1222 40.4421C49.284 40.4421 49.4403 40.4363 49.5911 40.4247L49.5726 40.1833C49.4284 40.1944 49.2782 40.2 49.1222 40.2V40.4421ZM49.5911 40.4247C49.7345 40.4137 49.9128 40.4081 50.1266 40.4081V40.1659C49.9091 40.1659 49.7242 40.1717 49.5726 40.1833L49.5911 40.4247ZM50.1266 40.4081C50.5949 40.4081 50.926 40.4798 51.1362 40.6075C51.3368 40.7293 51.4355 40.9061 51.4355 41.1552H51.6776C51.6776 40.8254 51.538 40.5682 51.2619 40.4006C50.9955 40.2388 50.6116 40.1659 50.1266 40.1659V40.4081ZM51.4355 41.1552C51.4355 41.4128 51.3333 41.6365 51.1178 41.8315L51.2803 42.011C51.5414 41.7747 51.6776 41.4877 51.6776 41.1552H51.4355ZM51.1181 41.8312C50.9134 42.0154 50.6756 42.1066 50.399 42.1066V42.3487C50.7352 42.3487 51.0308 42.2356 51.28 42.0112L51.1181 41.8312ZM50.399 42.1066H48.8669V42.3487H50.399V42.1066ZM48.8669 42.1066C47.7733 42.1066 47.1102 42.0835 46.8619 42.0403L46.8204 42.2788C47.0941 42.3264 47.7815 42.3487 48.8669 42.3487V42.1066ZM46.8315 42.0389L46.4059 42.0729L46.4252 42.3143L46.8508 42.2802L46.8315 42.0389ZM46.4156 42.0725C46.0101 42.0725 45.7267 42.008 45.5481 41.8954C45.3789 41.7888 45.2939 41.6333 45.2939 41.4105H45.0518C45.0518 41.7098 45.174 41.9459 45.419 42.1002C45.6546 42.2487 45.9925 42.3146 46.4156 42.3146V42.0725ZM45.2939 41.4105C45.2939 41.235 45.3519 41.0603 45.476 40.8845L45.2782 40.7449C45.13 40.955 45.0518 41.1775 45.0518 41.4105H45.2939ZM45.4779 40.8819C45.609 40.6851 45.7173 40.6185 45.7958 40.6119L45.7756 40.3706C45.5818 40.3868 45.4176 40.5358 45.2764 40.7476L45.4779 40.8819ZM45.7857 40.6123H46.773V40.3702H45.7857V40.6123ZM46.8927 40.5097L46.9267 40.2884L46.6874 40.2516L46.6534 40.4729L46.8927 40.5097ZM46.9269 40.2871L46.961 40.0488L46.7213 40.0145L46.6873 40.2529L46.9269 40.2871ZM46.9622 40.0317C46.9622 39.0981 46.9224 37.8587 46.8429 36.3144L46.6011 36.3268C46.6805 37.8693 46.7201 39.104 46.7201 40.0317H46.9622ZM46.8429 36.3144C46.7635 34.7718 46.7239 33.5428 46.7239 32.6266H46.4818C46.4818 33.5488 46.5216 34.7825 46.6011 36.3268L46.8429 36.3144ZM46.7239 32.6266C46.7239 31.7552 46.7578 30.4634 46.8259 28.7501L46.584 28.7405C46.5159 30.4545 46.4818 31.7502 46.4818 32.6266H46.7239ZM46.826 28.7489C46.8827 26.8425 46.9111 25.547 46.9111 24.864H46.669C46.669 25.5429 46.6407 26.8349 46.584 28.7417L46.826 28.7489ZM46.9111 24.864C46.9111 23.4876 46.8542 22.2351 46.7403 21.1068L46.4994 21.1311C46.6124 22.2498 46.669 23.494 46.669 24.864H46.9111ZM46.6198 20.9979H45.9559V21.24H46.6198V20.9979ZM45.9559 20.9979C45.8164 20.9979 45.6822 21.0037 45.5534 21.0154L45.5754 21.2565C45.6963 21.2455 45.8231 21.24 45.9559 21.24V20.9979ZM45.5534 21.0154C45.4328 21.0264 45.3003 21.0319 45.1558 21.0319V21.274C45.3064 21.274 45.4463 21.2682 45.5754 21.2565L45.5534 21.0154ZM45.1558 21.0319C44.8043 21.0319 44.5628 20.9654 44.4114 20.8518L44.2661 21.0455C44.4779 21.2044 44.781 21.274 45.1558 21.274V21.0319ZM44.4114 20.8518C44.2741 20.7489 44.1874 20.5518 44.1874 20.2167H43.9453C43.9453 20.5852 44.0402 20.8761 44.2661 21.0455L44.4114 20.8518ZM44.1874 20.2167C44.1874 20.1064 44.2166 20.0149 44.2722 19.9372C44.3288 19.8582 44.4176 19.7867 44.5473 19.7264C44.8096 19.6043 45.2182 19.5377 45.7857 19.5377V19.2956C45.207 19.2956 44.7559 19.3623 44.4451 19.5069C44.2882 19.5799 44.1622 19.6751 44.0754 19.7962C43.9878 19.9185 43.9453 20.0603 43.9453 20.2167H44.1874ZM45.7857 19.5377H49.9393V19.2956H45.7857V19.5377ZM49.9393 19.5377C50.434 19.5377 50.762 19.6063 50.9472 19.7232L51.0765 19.5185C50.8304 19.3631 50.4434 19.2956 49.9393 19.2956V19.5377ZM50.9424 19.7201C51.1521 19.8668 51.2312 20.0106 51.2312 20.1486H51.4733C51.4733 19.9008 51.3255 19.6927 51.0812 19.5217L50.9424 19.7201ZM51.2312 20.1486C51.2312 20.3208 51.1513 20.4887 50.9654 20.6539L51.1263 20.8349C51.349 20.6369 51.4733 20.4076 51.4733 20.1486H51.2312ZM50.9654 20.6539C50.7822 20.8168 50.5778 20.8957 50.3479 20.8957V21.1378C50.6401 21.1378 50.901 21.0352 51.1263 20.8349L50.9654 20.6539ZM50.3479 20.8957H48.5605V21.1378H50.3479V20.8957ZM48.4399 21.0275C48.5303 22.045 48.5756 23.1195 48.5756 24.2512H48.8177C48.8177 23.1131 48.7722 22.0314 48.6811 21.0061L48.4399 21.0275ZM48.5756 24.2512C48.5756 24.8162 48.5473 25.9207 48.4906 27.5665L48.7325 27.5749C48.7893 25.9296 48.8177 24.821 48.8177 24.2512H48.5756ZM48.4906 27.5651C48.4225 29.0409 48.3884 30.1553 48.3884 30.9072H48.6305C48.6305 30.1611 48.6644 29.0512 48.7325 27.5763L48.4906 27.5651ZM48.3884 30.9072C48.3884 31.5449 48.4168 32.7838 48.4735 34.622L48.7155 34.6146C48.6588 32.7758 48.6305 31.5406 48.6305 30.9072H48.3884ZM57.4152 25.9705L57.2958 25.9904L57.2959 25.9907L57.4152 25.9705ZM57.6365 27.2813L57.5172 27.3015L57.7564 27.2984L57.6365 27.2813ZM57.7897 26.4131L57.9088 26.4357L57.9096 26.4302L57.7897 26.4131ZM57.8578 26.0556L57.9755 26.0851L57.9769 26.0773L57.8578 26.0556ZM58.0791 24.6257L57.9589 24.6111L57.9587 24.6132L58.0791 24.6257ZM58.2153 22.1914H58.3366L58.3361 22.1833L58.2153 22.1914ZM58.5217 20.1656L58.624 20.2304L58.625 20.2289L58.5217 20.1656ZM59.7644 19.3996L59.8593 19.3244L59.8104 19.2626L59.7341 19.2824L59.7644 19.3996ZM60.4113 20.2167L60.5127 20.2828L60.5603 20.2099L60.5062 20.1416L60.4113 20.2167ZM59.8325 22.1233L59.9534 22.1313L59.9535 22.1281L59.8325 22.1233ZM59.8155 23.6213L59.9288 23.6638L59.9366 23.6433V23.6213H59.8155ZM58.9303 34.1416L58.8135 34.1736L58.9303 34.1416ZM60.2241 38.3464L60.3393 38.3093L60.3391 38.3085L60.2241 38.3464ZM60.3773 38.823L60.262 38.8601L60.2624 38.8613L60.3773 38.823ZM60.7177 42.1936L60.6376 42.1028L60.6349 42.1053L60.7177 42.1936ZM59.4921 42.1255L59.3994 42.2035L59.4018 42.2062L59.4921 42.1255ZM58.9984 41.2233L59.1115 41.18L59.1113 41.1796L58.9984 41.2233ZM58.2323 38.5677L58.3511 38.5442L58.3511 38.5439L58.2323 38.5677ZM57.7387 35.9631L57.8581 35.9432L57.8577 35.9412L57.7387 35.9631ZM57.5855 35.129L57.7045 35.1071L57.4661 35.1091L57.5855 35.129ZM57.2791 37.7335L57.3994 37.7469L57.3994 37.7462L57.2791 37.7335ZM56.7003 40.9169L56.5843 40.8821L56.5756 40.911L56.5816 40.9406L56.7003 40.9169ZM55.066 42.3979L54.9951 42.496L54.9977 42.4978L55.066 42.3979ZM55.9172 35.878L56.0341 35.9095L56.0342 35.9089L55.9172 35.878ZM56.2406 34.6523L56.3577 34.6832L56.3578 34.6829L56.2406 34.6523ZM56.2917 28.4219L56.1729 28.4449L56.173 28.4458L56.2917 28.4219ZM55.3384 24.1661L55.2209 24.1952L55.2211 24.1961L55.3384 24.1661ZM54.5724 21.7488H54.4513V21.7876L54.4739 21.8191L54.5724 21.7488ZM54.5724 21.3743H54.6934V21.3241L54.658 21.2887L54.5724 21.3743ZM54.5553 19.9954L54.6185 20.0987L54.62 20.0977L54.5553 19.9954ZM55.9853 20.404L55.8782 20.4605L55.8784 20.4607L55.9853 20.404ZM56.513 21.8169L56.3963 21.8489L56.3964 21.8495L56.513 21.8169ZM57.0407 23.9958L57.1594 23.9721L57.159 23.9701L57.0407 23.9958ZM57.1258 24.4214L57.2445 24.3977L57.1258 24.4214ZM57.2959 25.9907L57.5172 27.3015L57.7559 27.2612L57.5346 25.9504L57.2959 25.9907ZM57.7564 27.2984C57.7786 27.1426 57.8292 26.8557 57.9087 26.4356L57.6708 26.3906C57.5914 26.8103 57.5398 27.1022 57.5167 27.2642L57.7564 27.2984ZM57.9096 26.4302C57.9207 26.3522 57.9317 26.2865 57.9425 26.2326L57.7051 26.1851C57.6932 26.2447 57.6815 26.3151 57.6699 26.396L57.9096 26.4302ZM57.9425 26.2326C57.9536 26.1773 57.9645 26.1282 57.9753 26.085L57.7404 26.0263C57.7285 26.0739 57.7167 26.1269 57.7051 26.1851L57.9425 26.2326ZM57.9769 26.0773C58.0906 25.4523 58.165 24.972 58.1996 24.6382L57.9587 24.6132C57.9252 24.9376 57.8521 25.4106 57.7387 26.034L57.9769 26.0773ZM58.1993 24.6403C58.2904 23.8888 58.3364 23.2707 58.3364 22.7872H58.0943C58.0943 23.257 58.0495 23.8645 57.959 24.6111L58.1993 24.6403ZM58.3364 22.7872V22.1914H58.0943V22.7872H58.3364ZM58.3361 22.1833C58.325 22.0161 58.3194 21.8372 58.3194 21.6466H58.0772C58.0772 21.8419 58.083 22.0262 58.0945 22.1994L58.3361 22.1833ZM58.3194 21.6466C58.3194 21.0101 58.426 20.543 58.624 20.2304L58.4195 20.1009C58.1862 20.4691 58.0772 20.9894 58.0772 21.6466H58.3194ZM58.625 20.2289C58.8173 19.9151 59.1965 19.6719 59.7948 19.5168L59.7341 19.2824C59.1067 19.4451 58.6574 19.7126 58.4185 20.1024L58.625 20.2289ZM59.6695 19.4747L60.3164 20.2918L60.5062 20.1416L59.8593 19.3244L59.6695 19.4747ZM60.3099 20.1506C60.1317 20.4238 59.991 20.7476 59.8862 21.1202L60.1193 21.1857C60.2188 20.832 60.3504 20.5317 60.5127 20.2828L60.3099 20.1506ZM59.8862 21.1202C59.7823 21.4897 59.7234 21.8228 59.7116 22.1185L59.9535 22.1281C59.9644 21.8564 60.0189 21.5426 60.1193 21.1857L59.8862 21.1202ZM59.7117 22.1152C59.7001 22.2902 59.6944 22.6576 59.6944 23.2128H59.9366C59.9366 22.6558 59.9423 22.2968 59.9533 22.1313L59.7117 22.1152ZM59.6944 23.2128V23.6213H59.9366V23.2128H59.6944ZM59.7022 23.5788C59.4252 24.3174 59.1343 25.616 58.8279 27.4658L59.0667 27.5054C59.3732 25.6555 59.6611 24.3779 59.9288 23.6638L59.7022 23.5788ZM58.8279 27.4658C58.5214 29.3161 58.3666 30.6638 58.3666 31.503H58.6088C58.6088 30.6854 58.7604 29.3547 59.0667 27.5054L58.8279 27.4658ZM58.3666 31.503C58.3666 32.1994 58.5172 33.0908 58.8135 34.1736L59.0471 34.1097C58.7533 33.0362 58.6088 32.1685 58.6088 31.503H58.3666ZM58.8135 34.1736C59.1094 35.2545 59.5413 36.6583 60.1091 38.3842L60.3391 38.3085C59.7719 36.5844 59.3414 35.185 59.0471 34.1097L58.8135 34.1736ZM60.1088 38.3834L60.262 38.86L60.4925 38.786L60.3393 38.3093L60.1088 38.3834ZM60.2624 38.8613C60.6822 40.1205 60.8861 41.0233 60.8861 41.5808H61.1282C61.1282 40.9806 60.9122 40.045 60.4921 38.7847L60.2624 38.8613ZM60.8861 41.5808C60.8861 41.7813 60.8069 41.9535 60.6376 42.1028L60.7978 42.2844C61.0145 42.0932 61.1282 41.8568 61.1282 41.5808H60.8861ZM60.6349 42.1053C60.4759 42.2544 60.2899 42.3279 60.0709 42.3279V42.57C60.3512 42.57 60.5964 42.4732 60.8005 42.2819L60.6349 42.1053ZM60.0709 42.3279C59.9265 42.3279 59.7638 42.2476 59.5823 42.0448L59.4018 42.2062C59.6062 42.4346 59.8293 42.57 60.0709 42.57V42.3279ZM59.5847 42.0475C59.4148 41.8459 59.2562 41.5586 59.1115 41.18L58.8853 41.2665C59.0357 41.6597 59.2061 41.9739 59.3995 42.2035L59.5847 42.0475ZM59.1113 41.1796C58.7848 40.3352 58.5314 39.4567 58.3511 38.5442L58.1136 38.5911C58.2965 39.5171 58.5538 40.409 58.8855 41.2669L59.1113 41.1796ZM58.3511 38.5439C58.1128 37.3524 57.9485 36.4859 57.8581 35.9432L57.6193 35.983C57.7104 36.5298 57.8753 37.3996 58.1136 38.5914L58.3511 38.5439ZM57.8577 35.9412L57.7045 35.1071L57.4664 35.1508L57.6196 35.985L57.8577 35.9412ZM57.4661 35.1091C57.4086 35.4539 57.3061 36.3263 57.1587 37.7208L57.3994 37.7462C57.5471 36.349 57.6489 35.485 57.7049 35.1489L57.4661 35.1091ZM57.1587 37.7202C57.0116 39.0445 56.8197 40.0976 56.5843 40.8821L56.8162 40.9516C57.0575 40.1473 57.2514 39.0781 57.3994 37.7469L57.1587 37.7202ZM56.5816 40.9406C56.5901 40.9831 56.5962 41.1058 56.5962 41.3254H56.8383C56.8383 41.1137 56.8332 40.9641 56.819 40.8931L56.5816 40.9406ZM56.5962 41.3254C56.5962 41.7463 56.5222 42.0404 56.3924 42.2265C56.2682 42.4046 56.0828 42.4981 55.8151 42.4981V42.7402C56.1488 42.7402 56.4145 42.6181 56.591 42.365C56.762 42.1198 56.8383 41.767 56.8383 41.3254H56.5962ZM55.8151 42.4981C55.5535 42.4981 55.3282 42.4305 55.1344 42.298L54.9977 42.4978C55.2352 42.6603 55.5091 42.7402 55.8151 42.7402V42.4981ZM55.1369 42.2997C54.962 42.1734 54.8807 42.016 54.8807 41.8191H54.6386C54.6386 42.0988 54.7615 42.3272 54.9952 42.496L55.1369 42.2997ZM54.8807 41.8191C54.8807 41.0688 54.9759 40.2548 55.1673 39.3765L54.9307 39.3249C54.7363 40.2171 54.6386 41.0486 54.6386 41.8191H54.8807ZM55.1673 39.3765C55.3596 38.494 55.6485 37.3386 56.0341 35.9095L55.8003 35.8465C55.4142 37.2773 55.1243 38.437 54.9307 39.3249L55.1673 39.3765ZM56.0342 35.9089L56.3577 34.6832L56.1236 34.6214L55.8002 35.8471L56.0342 35.9089ZM56.3578 34.6829C56.6887 33.4161 56.8554 32.2763 56.8554 31.2647H56.6133C56.6133 32.2505 56.4508 33.3692 56.1235 34.6217L56.3578 34.6829ZM56.8554 31.2647C56.8554 30.819 56.7048 29.8587 56.4104 28.3979L56.173 28.4458C56.4688 29.913 56.6133 30.848 56.6133 31.2647H56.8554ZM56.4106 28.3988C56.1264 26.9326 55.8081 25.5117 55.4557 24.136L55.2211 24.1961C55.5723 25.5669 55.8896 26.9831 56.1729 28.4449L56.4106 28.3988ZM55.4559 24.1369C55.2854 23.4493 55.1357 22.9017 55.007 22.4953C54.8801 22.0951 54.7689 21.8156 54.6709 21.6784L54.4739 21.8191C54.5461 21.9203 54.6476 22.1628 54.7762 22.5684C54.9027 22.9678 55.051 23.5097 55.2209 24.1952L55.4559 24.1369ZM54.6934 21.7488V21.3743H54.4513V21.7488H54.6934ZM54.658 21.2887C54.4693 21.1 54.37 20.8437 54.37 20.5061H54.1279C54.1279 20.8948 54.2442 21.2173 54.4868 21.4599L54.658 21.2887ZM54.37 20.5061C54.37 20.3379 54.4454 20.2044 54.6185 20.0987L54.4922 19.8921C54.2567 20.036 54.1279 20.243 54.1279 20.5061H54.37ZM54.62 20.0977C54.8149 19.9746 55.0362 19.9122 55.2873 19.9122V19.6701C54.9937 19.6701 54.727 19.7438 54.4907 19.893L54.62 20.0977ZM55.2873 19.9122C55.4637 19.9122 55.6657 20.0577 55.8782 20.4605L56.0924 20.3474C55.8736 19.9331 55.6103 19.6701 55.2873 19.6701V19.9122ZM55.8784 20.4607C56.0657 20.8134 56.2388 21.2752 56.3963 21.8489L56.6297 21.7848C56.4695 21.201 56.2907 20.7209 56.0922 20.3472L55.8784 20.4607ZM56.3964 21.8495C56.5544 22.4138 56.7298 23.1376 56.9225 24.0216L57.159 23.9701C56.9658 23.0836 56.7893 22.3548 56.6296 21.7842L56.3964 21.8495ZM56.922 24.0196L57.0071 24.4452L57.2445 24.3977L57.1594 23.9721L56.922 24.0196ZM57.0071 24.4452C57.1318 25.0687 57.228 25.5836 57.2958 25.9904L57.5346 25.9506C57.4663 25.5403 57.3695 25.0225 57.2445 24.3977L57.0071 24.4452ZM78.7847 41.768L78.8532 41.8678L78.9058 41.8318V41.768H78.7847ZM77.9166 42.3638L77.921 42.4848L77.9561 42.4835L77.9851 42.4636L77.9166 42.3638ZM76.9973 42.3979L76.9928 42.2769L76.9899 42.277L76.9973 42.3979ZM74.0012 40.5934L74.0139 40.473L74.0133 40.473L74.0012 40.5934ZM74.3247 40.6275L74.3119 40.7485H74.3247V40.6275ZM74.7162 40.4572L74.8155 40.5267L74.8183 40.5222L74.7162 40.4572ZM74.5119 31.7414L74.6328 31.7339L74.6328 31.7339L74.5119 31.7414ZM74.1885 23.6894L74.0674 23.6871V23.6894H74.1885ZM74.2225 21.902L74.1015 21.8997L74.1015 21.8997L74.2225 21.902ZM74.2566 20.1316L74.3776 20.1339V20.1316H74.2566ZM74.1715 18.1909L74.292 18.1796L74.2777 18.0279L74.1332 18.0761L74.1715 18.1909ZM73.0479 16.795L73.1102 16.8989L73.1127 16.8973L73.0479 16.795ZM74.3757 16.3184L74.3542 16.1993L74.3534 16.1994L74.3757 16.3184ZM77.5591 16.3524L77.4759 16.4405L77.4787 16.4429L77.5591 16.3524ZM77.6272 17.6802L77.5337 17.6033L77.5332 17.6039L77.6272 17.6802ZM76.7079 17.9356L76.7229 17.8155L76.7155 17.8145H76.7079V17.9356ZM76.6228 40.3891H76.5018V40.5287L76.6399 40.509L76.6228 40.3891ZM78.6637 41.5637V41.768H78.9058V41.5637H78.6637ZM78.7162 41.6682L77.8481 42.264L77.9851 42.4636L78.8532 41.8678L78.7162 41.6682ZM77.9121 42.2429L76.9928 42.2769L77.0018 42.5188L77.921 42.4848L77.9121 42.2429ZM76.9899 42.277C76.4355 42.311 75.9557 42.3279 75.5503 42.3279V42.57C75.9621 42.57 76.447 42.5528 77.0047 42.5187L76.9899 42.277ZM75.5503 42.3279C74.5497 42.3279 73.8127 42.2413 73.33 42.0749C72.8458 41.908 72.6583 41.6786 72.6583 41.4105H72.4162C72.4162 41.8347 72.7309 42.1245 73.2511 42.3038C73.7727 42.4836 74.5423 42.57 75.5503 42.57V42.3279ZM72.6583 41.4105C72.6583 41.1597 72.7362 40.9905 72.8762 40.8799C73.0216 40.765 73.2536 40.6974 73.5927 40.6974V40.4553C73.2282 40.4553 72.9325 40.5268 72.726 40.69C72.5142 40.8574 72.4162 41.1052 72.4162 41.4105H72.6583ZM73.5927 40.6974C73.749 40.6974 73.8809 40.703 73.9892 40.7139L74.0133 40.473C73.8946 40.4611 73.7542 40.4553 73.5927 40.4553V40.6974ZM73.9886 40.7138L74.312 40.7478L74.3374 40.5071L74.0139 40.473L73.9886 40.7138ZM74.3247 40.7485C74.5322 40.7485 74.7065 40.6822 74.8154 40.5266L74.617 40.3878C74.5671 40.4592 74.4803 40.5064 74.3247 40.5064V40.7485ZM74.8183 40.5222C74.9177 40.3661 74.9564 40.1199 74.9564 39.8103H74.7143C74.7143 40.1137 74.6736 40.2987 74.6141 40.3922L74.8183 40.5222ZM74.9564 39.8103C74.9564 37.9227 74.8484 35.2301 74.6328 31.7339L74.3911 31.7488C74.6067 35.2435 74.7143 37.9302 74.7143 39.8103H74.9564ZM74.6328 31.7339C74.4172 28.2506 74.3095 25.5696 74.3095 23.6894H74.0674C74.0674 25.5771 74.1754 28.264 74.3911 31.7489L74.6328 31.7339ZM74.3095 23.6917L74.3436 21.9043L74.1015 21.8997L74.0675 23.6871L74.3095 23.6917ZM74.3436 21.9043L74.3776 20.1339L74.1356 20.1293L74.1015 21.8997L74.3436 21.9043ZM74.3776 20.1316C74.3776 19.436 74.3491 18.7853 74.292 18.1796L74.051 18.2023C74.1073 18.7995 74.1355 19.4426 74.1355 20.1316H74.3776ZM74.1332 18.0761C73.835 18.1755 73.576 18.2231 73.3544 18.2231V18.4652C73.6094 18.4652 73.8951 18.4107 74.2098 18.3058L74.1332 18.0761ZM73.3544 18.2231C73.1013 18.2231 72.9336 18.1587 72.828 18.0509C72.722 17.9427 72.6583 17.77 72.6583 17.51H72.4162C72.4162 17.8061 72.4887 18.0505 72.6551 18.2203C72.8218 18.3906 73.0627 18.4652 73.3544 18.4652V18.2231ZM72.6583 17.51C72.6583 17.2978 72.788 17.0922 73.1102 16.8988L72.9857 16.6912C72.627 16.9065 72.4162 17.1775 72.4162 17.51H72.6583ZM73.1127 16.8973C73.4363 16.6924 73.8631 16.5377 74.3981 16.4374L74.3534 16.1994C73.7989 16.3034 73.3405 16.4665 72.9832 16.6928L73.1127 16.8973ZM74.3973 16.4375C75.3345 16.2681 76.1498 16.1841 76.8441 16.1841V15.942C76.1312 15.942 75.3009 16.0282 74.3542 16.1993L74.3973 16.4375ZM76.8441 16.1841C77.0845 16.1841 77.2934 16.268 77.476 16.4404L77.6422 16.2644C77.4162 16.051 77.1485 15.942 76.8441 15.942V16.1841ZM77.4787 16.4429C77.6585 16.6028 77.7444 16.7917 77.7444 17.0163H77.9865C77.9865 16.7189 77.8682 16.4653 77.6395 16.262L77.4787 16.4429ZM77.7444 17.0163C77.7444 17.2379 77.6748 17.432 77.5337 17.6033L77.7206 17.7572C77.8973 17.5426 77.9865 17.2941 77.9865 17.0163H77.7444ZM77.5332 17.6039C77.4092 17.7566 77.251 17.8316 77.0484 17.8316V18.0737C77.3224 18.0737 77.5501 17.9671 77.7211 17.7566L77.5332 17.6039ZM77.0484 17.8316C76.915 17.8316 76.807 17.826 76.7229 17.8155L76.6929 18.0557C76.7904 18.0679 76.9094 18.0737 77.0484 18.0737V17.8316ZM76.7079 17.8145H76.4356V18.0566H76.7079V17.8145ZM76.4356 17.8145C76.1849 17.8145 75.9751 17.8674 75.8393 18.0032L76.0105 18.1744C76.0789 18.1059 76.2095 18.0566 76.4356 18.0566V17.8145ZM75.8393 18.0032C75.7012 18.1412 75.6506 18.3715 75.6506 18.6506H75.8927C75.8927 18.3849 75.9442 18.2406 76.0105 18.1744L75.8393 18.0032ZM75.6506 18.6506C75.6506 21.015 75.7927 24.417 76.0764 28.8552L76.318 28.8397C76.0344 24.4031 75.8927 21.0072 75.8927 18.6506H75.6506ZM76.0764 28.8552C76.3601 33.2918 76.5018 36.6877 76.5018 39.0443H76.7439C76.7439 36.6798 76.6018 33.2778 76.318 28.8397L76.0764 28.8552ZM76.5018 39.0443V40.3891H76.7439V39.0443H76.5018ZM76.6399 40.509C76.8726 40.4757 77.1052 40.4591 77.3378 40.4591V40.217C77.0937 40.217 76.8496 40.2345 76.6057 40.2693L76.6399 40.509ZM77.3378 40.4591C77.8059 40.4591 78.1344 40.5587 78.3448 40.7369C78.5513 40.9118 78.6637 41.1796 78.6637 41.5637H78.9058C78.9058 41.1308 78.7771 40.7858 78.5012 40.5521C78.2293 40.3217 77.8343 40.217 77.3378 40.217V40.4591ZM84.6094 40.5934L84.7304 40.5904L84.7304 40.5903L84.6094 40.5934ZM84.5753 39.2656L84.4541 39.2604L84.4543 39.2687L84.5753 39.2656ZM84.6264 38.074L84.7474 38.0792L84.7483 38.0569L84.7413 38.0357L84.6264 38.074ZM84.0817 30.3795L83.9608 30.3863L83.9608 30.3863L84.0817 30.3795ZM83.622 21.1359L83.7431 21.1328L83.74 21.0179L83.6251 21.0149L83.622 21.1359ZM81.0175 20.6933L80.9504 20.7941L80.951 20.7945L81.0175 20.6933ZM84.1327 19.5017L84.1463 19.3814L84.1444 19.3812L84.1327 19.5017ZM86.7713 19.6549V19.5339H86.7627L86.7542 19.5351L86.7713 19.6549ZM87.7927 21.17L87.7193 21.0737L87.7171 21.0755L87.7927 21.17ZM86.0904 21.3232L86.1163 21.2048L86.1108 21.2039L86.0904 21.3232ZM85.3925 21.204L85.4128 21.0847L85.2993 21.0653L85.2743 21.1778L85.3925 21.204ZM85.3584 21.3572L85.2401 21.331L85.239 21.3373L85.3584 21.3572ZM85.3244 21.5615L85.205 21.5416L85.2033 21.5515V21.5615H85.3244ZM86.1074 42.0915L86.1862 42.1834L86.1865 42.1831L86.1074 42.0915ZM85.2903 42.3979L85.2202 42.4965L85.2517 42.5189H85.2903V42.3979ZM84.6434 41.9382L84.5224 41.9413L84.524 42.0018L84.5733 42.0369L84.6434 41.9382ZM84.7304 40.5903L84.6964 39.2625L84.4543 39.2687L84.4884 40.5965L84.7304 40.5903ZM84.6963 39.2708L84.7474 38.0792L84.5055 38.0688L84.4544 39.2604L84.6963 39.2708ZM84.7413 38.0357C84.7341 38.0143 84.7225 37.9558 84.7081 37.8483C84.6942 37.7448 84.6788 37.605 84.6618 37.4283C84.6279 37.0752 84.5883 36.5784 84.5429 35.9375C84.4522 34.656 84.3387 32.8012 84.2025 30.3727L83.9608 30.3863C84.097 32.8151 84.2105 34.6713 84.3014 35.9546C84.3468 36.5962 84.3866 37.0953 84.4208 37.4514C84.4379 37.6294 84.4537 37.7726 84.4681 37.8805C84.4821 37.9843 84.496 38.0656 84.5116 38.1123L84.7413 38.0357ZM84.2025 30.3728C83.9301 25.5035 83.777 22.4243 83.7431 21.1328L83.501 21.1391C83.5351 22.4351 83.6885 25.5183 83.9608 30.3863L84.2025 30.3728ZM83.6251 21.0149C82.9587 20.998 82.4131 20.9529 81.9868 20.8804C81.5575 20.8075 81.2613 20.7087 81.084 20.5922L80.951 20.7945C81.1709 20.939 81.5074 21.0445 81.9463 21.1191C82.3882 21.1942 82.9463 21.2399 83.619 21.257L83.6251 21.0149ZM81.0847 20.5926C80.8722 20.451 80.7811 20.2868 80.7811 20.0975H80.539C80.539 20.3849 80.6862 20.6179 80.9504 20.7941L81.0847 20.5926ZM80.7811 20.0975C80.7811 19.95 80.8638 19.8073 81.0812 19.6727L80.9538 19.4669C80.6946 19.6274 80.539 19.8365 80.539 20.0975H80.7811ZM81.0812 19.6727C81.3019 19.5361 81.5297 19.4696 81.7665 19.4696V19.2275C81.4813 19.2275 81.2098 19.3084 80.9538 19.4669L81.0812 19.6727ZM81.7665 19.4696C82.2825 19.4696 83.0664 19.5202 84.1211 19.6222L84.1444 19.3812C83.0882 19.279 82.2947 19.2275 81.7665 19.2275V19.4696ZM84.1192 19.622C85.1308 19.7357 85.9248 19.793 86.499 19.793V19.5509C85.9382 19.5509 85.1547 19.4947 84.1463 19.3814L84.1192 19.622ZM86.499 19.793C86.6054 19.793 86.7021 19.7871 86.7884 19.7748L86.7542 19.5351C86.6817 19.5455 86.5968 19.5509 86.499 19.5509V19.793ZM86.7713 19.776H87.0607V19.5339H86.7713V19.776ZM87.0607 19.776C87.4118 19.776 87.653 19.8438 87.8042 19.9596C87.9494 20.0707 88.0292 20.2396 88.0292 20.4891H88.2713C88.2713 20.1824 88.1695 19.9343 87.9514 19.7673C87.7395 19.6051 87.4359 19.5339 87.0607 19.5339V19.776ZM88.0292 20.4891C88.0292 20.7195 87.9311 20.9124 87.7194 21.0737L87.8661 21.2663C88.131 21.0644 88.2713 20.8034 88.2713 20.4891H88.0292ZM87.7171 21.0755C87.5128 21.2389 87.2732 21.3213 86.9926 21.3213V21.5634C87.3249 21.5634 87.6187 21.4642 87.8683 21.2645L87.7171 21.0755ZM86.9926 21.3213C86.7664 21.3213 86.4751 21.2834 86.1163 21.2049L86.0645 21.4415C86.432 21.5219 86.7422 21.5634 86.9926 21.5634V21.3213ZM86.1108 21.2039L85.4128 21.0847L85.3721 21.3234L86.07 21.4425L86.1108 21.2039ZM85.2743 21.1778L85.2402 21.331L85.4766 21.3835L85.5106 21.2303L85.2743 21.1778ZM85.239 21.3373L85.205 21.5416L85.4438 21.5814L85.4778 21.3771L85.239 21.3373ZM85.2033 21.5615C85.2033 23.8368 85.3966 27.1379 85.7826 31.4627L86.0237 31.4412C85.638 27.1183 85.4454 23.8258 85.4454 21.5615H85.2033ZM85.7826 31.4627C86.1683 35.7856 86.3609 39.0838 86.3609 41.3595H86.603C86.603 39.0729 86.4097 35.7661 86.0237 31.4412L85.7826 31.4627ZM86.3609 41.3595C86.3609 41.5893 86.2575 41.8019 86.0283 41.9998L86.1865 42.1831C86.4567 41.9498 86.603 41.6744 86.603 41.3595H86.3609ZM86.0286 41.9995C85.8117 42.1855 85.5671 42.2768 85.2903 42.2768V42.5189C85.6264 42.5189 85.9265 42.4059 86.1862 42.1834L86.0286 41.9995ZM85.3604 42.2992L84.7135 41.8396L84.5733 42.0369L85.2202 42.4965L85.3604 42.2992ZM84.7644 41.9352L84.7304 40.5904L84.4884 40.5965L84.5224 41.9413L84.7644 41.9352ZM99.6974 18.0718H99.8184V18.026L99.7881 17.9917L99.6974 18.0718ZM99.7314 16.6078L99.6435 16.5245L99.6412 16.5271L99.7314 16.6078ZM101.876 24.8129L101.997 24.8084L101.997 24.8076L101.876 24.8129ZM102.03 30.8902H101.908V30.9157L101.919 30.939L102.03 30.8902ZM103.459 39.1124L103.346 39.1542L103.346 39.1554L103.459 39.1124ZM104.651 41.1211L104.562 41.2029L104.564 41.2048L104.651 41.1211ZM107.017 41.5978L107.101 41.6857L107.103 41.6834L107.017 41.5978ZM107.46 40.6785L107.341 40.6541L107.341 40.6548L107.46 40.6785ZM107.613 39.7252L107.734 39.7362L107.734 39.7357L107.613 39.7252ZM107.205 25.1534H107.326L107.326 25.1494L107.205 25.1534ZM107.171 24.132L107.292 24.128L107.292 24.1279L107.171 24.132ZM107.136 23.1277H107.015L107.015 23.1318L107.136 23.1277ZM107.017 20.1486L106.897 20.1563L106.897 20.1564L107.017 20.1486ZM108.192 16.1992L108.276 16.1119L108.241 16.0782H108.192V16.1992ZM109.043 17.0163H109.164V16.9647L109.127 16.929L109.043 17.0163ZM108.924 18.6335L108.805 18.6116L108.805 18.6124L108.924 18.6335ZM109.111 28.49L109.232 28.4836L109.232 28.4831L109.111 28.49ZM109.094 40.6445L108.977 40.6145L108.977 40.6145L109.094 40.6445ZM108.515 41.9553L108.418 41.8837L108.417 41.8843L108.515 41.9553ZM107.528 42.7894L107.582 42.8977L107.586 42.8959L107.528 42.7894ZM102.557 41.2573L102.657 41.1889L102.657 41.1881L102.557 41.2573ZM101.417 39.1635L101.305 39.2101L101.417 39.1635ZM100.651 36.5419L100.769 36.5187L100.769 36.5184L100.651 36.5419ZM100.123 33.4437L100.003 33.4589L100.003 33.4604L100.123 33.4437ZM99.8335 30.2093L99.7127 30.216L99.7127 30.2163L99.8335 30.2093ZM99.8014 20.644C99.8127 19.8262 99.8184 18.9688 99.8184 18.0718H99.5763C99.5763 18.9678 99.5706 19.8241 99.5593 20.6406L99.8014 20.644ZM99.7881 17.9917C99.6395 17.8232 99.5631 17.6143 99.5631 17.3568H99.321C99.321 17.6668 99.4148 17.9345 99.6066 18.1519L99.7881 17.9917ZM99.5631 17.3568C99.5631 17.1035 99.6481 16.8824 99.8216 16.6885L99.6412 16.5271C99.4288 16.7644 99.321 17.0427 99.321 17.3568H99.5631ZM99.8193 16.691C100.003 16.4971 100.21 16.4054 100.446 16.4054V16.1633C100.138 16.1633 99.8684 16.2872 99.6435 16.5245L99.8193 16.691ZM100.446 16.4054C100.635 16.4054 100.795 16.4517 100.931 16.5408C101.067 16.6304 101.186 16.7678 101.283 16.9604C101.48 17.3491 101.585 17.9476 101.585 18.7697H101.827C101.827 17.935 101.722 17.2907 101.499 16.851C101.387 16.6294 101.243 16.4561 101.064 16.3385C100.885 16.2205 100.677 16.1633 100.446 16.1633V16.4054ZM101.585 18.7697C101.585 20.2363 101.642 22.2528 101.755 24.8183L101.997 24.8076C101.884 22.2434 101.827 20.2311 101.827 18.7697H101.585ZM101.755 24.8175C101.857 27.5182 101.908 29.5421 101.908 30.8902H102.151C102.151 29.5373 102.099 27.5097 101.997 24.8084L101.755 24.8175ZM101.919 30.939C102.035 31.2031 102.147 31.7803 102.25 32.6912L102.49 32.6641C102.388 31.7592 102.274 31.1448 102.14 30.8415L101.919 30.939ZM102.25 32.6912C102.352 33.5966 102.402 34.3464 102.402 34.9417H102.644C102.644 34.334 102.593 33.5745 102.49 32.6641L102.25 32.6912ZM102.402 34.9417C102.402 35.4647 102.489 36.1042 102.66 36.8581L102.897 36.8045C102.727 36.0603 102.644 35.4401 102.644 34.9417H102.402ZM102.66 36.8581C102.832 37.6126 103.06 38.3779 103.346 39.1542L103.573 39.0706C103.291 38.3035 103.066 37.5481 102.897 36.8045L102.66 36.8581ZM103.346 39.1554C103.657 39.9728 104.062 40.6562 104.562 41.2028L104.74 41.0394C104.264 40.5192 103.875 39.8635 103.573 39.0694L103.346 39.1554ZM104.564 41.2048C105.077 41.742 105.623 42.0253 106.2 42.0253V41.7831C105.71 41.7831 105.223 41.5444 104.739 41.0375L104.564 41.2048ZM106.2 42.0253C106.557 42.0253 106.86 41.9136 107.101 41.6857L106.934 41.5099C106.743 41.6905 106.502 41.7831 106.2 41.7831V42.0253ZM107.103 41.6834C107.34 41.4461 107.496 41.1154 107.579 40.7023L107.341 40.6548C107.265 41.0361 107.126 41.3182 106.932 41.5122L107.103 41.6834ZM107.578 40.7029C107.658 40.3148 107.71 39.9922 107.734 39.7362L107.493 39.7143C107.47 39.9576 107.42 40.2705 107.341 40.6541L107.578 40.7029ZM107.734 39.7357C107.757 39.4701 107.768 39.1486 107.768 38.7719H107.526C107.526 39.1443 107.515 39.4583 107.493 39.7147L107.734 39.7357ZM107.768 38.7719V31.9627H107.526V38.7719H107.768ZM107.768 31.9627C107.768 31.162 107.694 30.0619 107.546 28.6645L107.305 28.6899C107.453 30.0843 107.526 31.1745 107.526 31.9627H107.768ZM107.546 28.6645C107.399 27.2701 107.326 26.1799 107.326 25.3917H107.084C107.084 26.1924 107.158 27.2925 107.305 28.6899L107.546 28.6645ZM107.326 25.3917V25.1534H107.084V25.3917H107.326ZM107.326 25.1494L107.292 24.128L107.05 24.1361L107.084 25.1574L107.326 25.1494ZM107.292 24.1279L107.257 23.1236L107.015 23.1318L107.05 24.1361L107.292 24.1279ZM107.258 23.1277C107.258 22.3749 107.218 21.379 107.138 20.1408L106.897 20.1564C106.976 21.3922 107.015 22.3823 107.015 23.1277H107.258ZM107.138 20.1409C107.047 18.7222 107.002 17.727 107.002 17.1525H106.76C106.76 17.7356 106.806 18.7378 106.897 20.1563L107.138 20.1409ZM107.002 17.1525C107.002 16.9292 107.11 16.7367 107.357 16.5723L107.223 16.3709C106.924 16.5697 106.76 16.8311 106.76 17.1525H107.002ZM107.357 16.5723C107.609 16.4041 107.887 16.3203 108.192 16.3203V16.0782C107.839 16.0782 107.515 16.176 107.223 16.3709L107.357 16.5723ZM108.108 16.2866L108.959 17.1037L109.127 16.929L108.276 16.1119L108.108 16.2866ZM108.922 17.0163V17.5951H109.164V17.0163H108.922ZM108.922 17.5951C108.922 17.8455 108.884 18.1834 108.805 18.6116L109.043 18.6555C109.123 18.2211 109.164 17.8668 109.164 17.5951H108.922ZM108.805 18.6124C108.714 19.123 108.667 19.4956 108.667 19.723H108.909C108.909 19.5192 108.952 19.1654 109.043 18.6547L108.805 18.6124ZM108.667 19.723C108.667 21.7693 108.775 24.6943 108.99 28.4968L109.232 28.4831C109.016 24.682 108.909 21.7623 108.909 19.723H108.667ZM108.99 28.4963C109.195 32.3882 109.297 35.4215 109.297 37.5973H109.539C109.539 35.4152 109.436 32.377 109.232 28.4836L108.99 28.4963ZM109.297 37.5973C109.297 38.2303 109.274 38.7708 109.229 39.2195L109.47 39.2436C109.516 38.7844 109.539 38.2355 109.539 37.5973H109.297ZM109.229 39.2195C109.184 39.6668 109.1 40.1318 108.977 40.6145L109.211 40.6745C109.338 40.1812 109.424 39.7042 109.47 39.2436L109.229 39.2195ZM108.977 40.6145C108.843 41.1373 108.656 41.5589 108.418 41.8837L108.613 42.0269C108.874 41.6707 109.073 41.2185 109.211 40.6744L108.977 40.6145ZM108.417 41.8843C108.191 42.1963 107.877 42.4631 107.47 42.6829L107.586 42.8959C108.019 42.6618 108.363 42.3725 108.613 42.0263L108.417 41.8843ZM107.474 42.6811C107.039 42.8986 106.542 43.0088 105.979 43.0088V43.2509C106.574 43.2509 107.109 43.1342 107.582 42.8977L107.474 42.6811ZM105.979 43.0088C105.294 43.0088 104.673 42.8544 104.114 42.5471L103.997 42.7593C104.595 43.0875 105.256 43.2509 105.979 43.2509V43.0088ZM104.114 42.5471C103.553 42.2396 103.068 41.7881 102.657 41.1889L102.457 41.3257C102.887 41.9522 103.4 42.4313 103.997 42.7593L104.114 42.5471ZM102.657 41.1881C102.219 40.5601 101.843 39.8697 101.528 39.1168L101.305 39.2101C101.626 39.9779 102.01 40.6835 102.458 41.3265L102.657 41.1881ZM101.528 39.1168C101.214 38.3654 100.961 37.4997 100.769 36.5187L100.532 36.5651C100.726 37.5588 100.983 38.4408 101.305 39.2101L101.528 39.1168ZM100.769 36.5184C100.554 35.4309 100.379 34.4004 100.243 33.427L100.003 33.4604C100.14 34.4389 100.316 35.474 100.532 36.5654L100.769 36.5184ZM100.243 33.4285C100.119 32.4443 100.022 31.3689 99.9544 30.2022L99.7127 30.2163C99.7809 31.3875 99.8776 32.4684 100.003 33.4589L100.243 33.4285ZM99.9544 30.2026C99.8411 28.1624 99.7844 25.9346 99.7844 23.5192H99.5423C99.5423 25.9383 99.599 28.1706 99.7127 30.216L99.9544 30.2026ZM99.7844 23.5192C99.7844 22.4187 99.79 21.4604 99.8014 20.644L99.5593 20.6406C99.5479 21.4584 99.5423 22.418 99.5423 23.5192H99.7844ZM112.91 20.8806L112.792 20.8561L112.786 20.8834L112.793 20.9104L112.91 20.8806ZM113.251 20.0294L113.15 19.9612L113.15 19.9623L113.251 20.0294ZM118.204 21.3232L118.313 21.2711L118.313 21.271L118.204 21.3232ZM118.868 26.9238L118.747 26.9163L118.747 26.9167L118.868 26.9238ZM118.766 27.8601L118.885 27.8838L118.885 27.8827L118.766 27.8601ZM118.545 28.7623L118.661 28.7967L118.661 28.7942L118.545 28.7623ZM118.221 29.5284L118.118 29.4652L118.117 29.467L118.221 29.5284ZM117.711 30.2263L117.618 30.1488L117.616 30.1501L117.711 30.2263ZM117.03 30.8391L116.964 30.7377L116.961 30.7391L117.03 30.8391ZM116.093 31.3498L116.043 31.2396L116.042 31.2402L116.093 31.3498ZM114.919 31.8095L114.881 31.6943L114.798 31.7215V31.8095H114.919ZM114.017 43.1639L113.956 43.2686L113.984 43.285H114.017V43.1639ZM113.285 42.7383L113.167 42.7652L113.178 42.8165L113.224 42.843L113.285 42.7383ZM112.995 31.4009H113.116V31.3752L113.106 31.3517L112.995 31.4009ZM112.791 30.4306L112.682 30.3785L112.67 30.4032V30.4306H112.791ZM113.131 27.4345L113.01 27.4319V27.4345H113.131ZM113.165 25.8343L113.044 25.8316L113.044 25.8318L113.165 25.8343ZM115.242 21.5956H115.121V21.7166H115.242V21.5956ZM114.868 21.5445V21.4234H114.747V21.5445H114.868ZM114.868 23.5192H114.747L114.747 23.5203L114.868 23.5192ZM114.902 27.1792L114.781 27.1803L114.781 27.1805L114.902 27.1792ZM114.936 30.3114H115.057L115.057 30.3101L114.936 30.3114ZM114.936 30.3625H114.815V30.5016L114.953 30.4824L114.936 30.3625ZM116.979 23.6043L116.857 23.611L116.858 23.6184L116.979 23.6043ZM116.876 22.9064L116.995 22.8806L116.994 22.8781L116.876 22.9064ZM116.587 22.2254L116.486 22.2926L116.489 22.297L116.587 22.2254ZM113.303 24.115C113.303 22.6713 113.213 21.5808 113.027 20.8508L112.793 20.9104C112.97 21.6103 113.061 22.6761 113.061 24.115H113.303ZM113.029 20.9051C113.094 20.5886 113.202 20.3199 113.351 20.0966L113.15 19.9623C112.981 20.2156 112.862 20.5143 112.792 20.8561L113.029 20.9051ZM113.351 20.0976C113.506 19.8689 113.672 19.776 113.846 19.776V19.5339C113.567 19.5339 113.335 19.6906 113.15 19.9612L113.351 20.0976ZM113.846 19.776H115.378V19.5339H113.846V19.776ZM115.378 19.776C116.018 19.776 116.569 19.9191 117.035 20.2011L117.16 19.9939C116.651 19.6858 116.055 19.5339 115.378 19.5339V19.776ZM117.035 20.2011C117.503 20.4838 117.855 20.8743 118.095 21.3754L118.313 21.271C118.054 20.728 117.669 20.3014 117.16 19.9939L117.035 20.2011ZM118.095 21.3753C118.563 22.3555 118.798 23.4721 118.798 24.7278H119.04C119.04 23.4414 118.799 22.2883 118.313 21.2711L118.095 21.3753ZM118.798 24.7278C118.798 25.646 118.781 26.3752 118.747 26.9163L118.989 26.9314C119.023 26.383 119.04 25.6482 119.04 24.7278H118.798ZM118.747 26.9167C118.725 27.3 118.691 27.6063 118.647 27.8374L118.885 27.8827C118.932 27.6372 118.966 27.3193 118.989 26.9309L118.747 26.9167ZM118.647 27.8364C118.603 28.0594 118.53 28.3571 118.428 28.7305L118.661 28.7942C118.764 28.4185 118.839 28.1147 118.885 27.8838L118.647 27.8364ZM118.429 28.7279C118.34 29.0274 118.236 29.2724 118.118 29.4652L118.325 29.5915C118.456 29.3758 118.568 29.1101 118.661 28.7967L118.429 28.7279ZM118.117 29.467C118.008 29.652 117.842 29.8789 117.618 30.1488L117.804 30.3038C118.033 30.0289 118.207 29.7906 118.326 29.5897L118.117 29.467ZM117.616 30.1501C117.432 30.3785 117.214 30.5743 116.964 30.7378L117.096 30.9405C117.367 30.7635 117.604 30.5508 117.805 30.3025L117.616 30.1501ZM116.961 30.7391C116.719 30.9043 116.414 31.0713 116.043 31.2396L116.143 31.46C116.522 31.2879 116.841 31.1144 117.098 30.9392L116.961 30.7391ZM116.042 31.2402C115.684 31.4081 115.297 31.5595 114.881 31.6943L114.956 31.9246C115.38 31.787 115.777 31.632 116.145 31.4594L116.042 31.2402ZM114.798 31.8095V35.5375H115.04V31.8095H114.798ZM114.798 35.5375C114.798 36.177 114.843 37.281 114.934 38.847L115.176 38.833C115.085 37.2668 115.04 36.1692 115.04 35.5375H114.798ZM114.934 38.847C115.025 40.4132 115.07 41.5109 115.07 42.1425H115.312C115.312 41.5031 115.267 40.3991 115.176 38.833L114.934 38.847ZM115.07 42.1425C115.07 42.374 114.971 42.5804 114.755 42.7656L114.912 42.9494C115.173 42.726 115.312 42.4558 115.312 42.1425H115.07ZM114.755 42.7656C114.538 42.9516 114.293 43.0429 114.017 43.0429V43.285C114.353 43.285 114.653 43.172 114.912 42.9494L114.755 42.7656ZM114.077 43.0593L113.345 42.6337L113.224 42.843L113.956 43.2686L114.077 43.0593ZM113.403 42.7115C113.122 41.4759 112.98 39.7782 112.98 37.6144H112.738C112.738 39.7857 112.88 41.504 113.167 42.7652L113.403 42.7115ZM112.98 37.6144C112.98 36.7652 113.003 35.7284 113.048 34.5036L112.806 34.4946C112.761 35.7212 112.738 36.7612 112.738 37.6144H112.98ZM113.048 34.5036C113.093 33.2771 113.116 32.2427 113.116 31.4009H112.874C112.874 32.2387 112.851 33.2699 112.806 34.4946L113.048 34.5036ZM113.106 31.3517C112.975 31.0566 112.912 30.7897 112.912 30.5498H112.67C112.67 30.8318 112.743 31.1324 112.885 31.4501L113.106 31.3517ZM112.912 30.5498V30.4306H112.67V30.5498H112.912ZM112.9 30.4826C113.023 30.2257 113.109 29.8406 113.167 29.3378C113.224 28.8322 113.252 28.1974 113.252 27.4345H113.01C113.01 28.1924 112.982 28.8173 112.926 29.3104C112.87 29.8062 112.786 30.1588 112.682 30.3785L112.9 30.4826ZM113.252 27.4371L113.286 25.8369L113.044 25.8318L113.01 27.4319L113.252 27.4371ZM113.286 25.8371C113.298 25.3366 113.303 24.7625 113.303 24.115H113.061C113.061 24.7612 113.056 25.3334 113.044 25.8316L113.286 25.8371ZM116.135 21.6768C115.886 21.5398 115.586 21.4745 115.242 21.4745V21.7166C115.556 21.7166 115.813 21.7762 116.018 21.8889L116.135 21.6768ZM115.363 21.5956C115.363 21.5499 115.341 21.5161 115.32 21.496C115.301 21.4777 115.279 21.4672 115.265 21.4612C115.235 21.4489 115.199 21.442 115.165 21.4373C115.094 21.4277 114.994 21.4234 114.868 21.4234V21.6656C114.991 21.6656 115.078 21.6698 115.132 21.6772C115.145 21.679 115.155 21.6808 115.163 21.6825C115.17 21.6842 115.173 21.6854 115.173 21.6853C115.173 21.6851 115.171 21.6843 115.167 21.6824C115.164 21.6806 115.159 21.6771 115.153 21.6712C115.14 21.6585 115.121 21.6327 115.121 21.5956H115.363ZM114.747 21.5445V23.5192H114.989V21.5445H114.747ZM114.747 23.5203L114.781 27.1803L115.023 27.178L114.989 23.5181L114.747 23.5203ZM114.781 27.1805L114.815 30.3127L115.057 30.3101L115.023 27.1779L114.781 27.1805ZM114.815 30.3114V30.3625H115.057V30.3114H114.815ZM114.953 30.4824C115.71 30.3769 116.255 29.7867 116.608 28.7856C116.961 27.7845 117.134 26.344 117.134 24.4725H116.892C116.892 26.3347 116.719 27.7427 116.379 28.705C116.04 29.6673 115.547 30.1552 114.919 30.2426L114.953 30.4824ZM117.134 24.4725C117.134 24.0855 117.122 23.7904 117.099 23.5902L116.858 23.6184C116.88 23.8041 116.892 24.0877 116.892 24.4725H117.134ZM117.099 23.5976C117.088 23.3853 117.052 23.1461 116.995 22.8806L116.758 22.9321C116.814 23.1886 116.847 23.4147 116.858 23.611L117.099 23.5976ZM116.994 22.8781C116.924 22.5843 116.822 22.341 116.685 22.1538L116.489 22.297C116.602 22.4503 116.693 22.6609 116.759 22.9346L116.994 22.8781ZM116.688 22.1583C116.561 21.9681 116.374 21.8085 116.135 21.6768L116.018 21.8889C116.232 22.0068 116.386 22.1423 116.486 22.2926L116.688 22.1583Z" fill="#061017" mask="url(#path-10-outside-1_1603_6220)"/>
</svg>
