<svg width="21" height="21" viewBox="0 0 21 21" fill="none" xmlns="http://www.w3.org/2000/svg">
<path d="M8.57093 6.03211C8.37566 6.22737 8.37566 6.54395 8.57093 6.73921L12.2929 10.4612L8.57093 14.1831C8.37566 14.3784 8.37566 14.695 8.57093 14.8902C8.76619 15.0855 9.08277 15.0855 9.27803 14.8902L13.7071 10.4612L9.27803 6.03211C9.08277 5.83685 8.76619 5.83685 8.57093 6.03211Z" fill="#000"/>
<path fill-rule="evenodd" clip-rule="evenodd" d="M10.5 20.4968C16.0228 20.4968 20.5 16.0197 20.5 10.4968C20.5 4.97398 16.0228 0.496826 10.5 0.496826C4.97715 0.496826 0.5 4.97398 0.5 10.4968C0.5 16.0197 4.97715 20.4968 10.5 20.4968ZM10.5 19.8302C15.6547 19.8302 19.8333 15.6515 19.8333 10.4968C19.8333 5.34217 15.6547 1.16349 10.5 1.16349C5.34534 1.16349 1.16667 5.34217 1.16667 10.4968C1.16667 15.6515 5.34534 19.8302 10.5 19.8302Z" fill="#000"/>
</svg>
