<svg width="21" height="21" viewBox="0 0 21 21" fill="none" xmlns="http://www.w3.org/2000/svg">
<path d="M12.4291 6.03211C12.6243 6.22737 12.6243 6.54395 12.4291 6.73921L8.70712 10.4612L12.4291 14.1831C12.6243 14.3784 12.6243 14.695 12.4291 14.8902C12.2338 15.0855 11.9172 15.0855 11.722 14.8902L7.29291 10.4612L11.722 6.03211C11.9172 5.83685 12.2338 5.83685 12.4291 6.03211Z" fill="#000"/>
<path fill-rule="evenodd" clip-rule="evenodd" d="M10.5 20.4968C4.97715 20.4968 0.499999 16.0197 0.499999 10.4968C0.499999 4.97398 4.97715 0.496826 10.5 0.496826C16.0228 0.496826 20.5 4.97398 20.5 10.4968C20.5 16.0197 16.0228 20.4968 10.5 20.4968ZM10.5 19.8302C5.34534 19.8302 1.16667 15.6515 1.16667 10.4968C1.16667 5.34217 5.34534 1.16349 10.5 1.16349C15.6547 1.16349 19.8333 5.34217 19.8333 10.4968C19.8333 15.6515 15.6547 19.8302 10.5 19.8302Z" fill="#000"/>
</svg>
