<svg width="15" height="15" viewBox="0 0 15 15" fill="none" xmlns="http://www.w3.org/2000/svg">
<path d="M6.42786 8.93692V3.28155H7.75395V7.61083H10.0031V8.93692H6.42786Z" fill="#878787"/>
<path fill-rule="evenodd" clip-rule="evenodd" d="M7.50703 14.5144C11.413 14.5144 14.5795 11.348 14.5795 7.44197C14.5795 3.53596 11.413 0.369507 7.50703 0.369507C3.60102 0.369507 0.43457 3.53596 0.43457 7.44197C0.43457 11.348 3.60102 14.5144 7.50703 14.5144ZM7.50703 13.1883C10.6807 13.1883 13.2534 10.6156 13.2534 7.44197C13.2534 4.26833 10.6807 1.69559 7.50703 1.69559C4.3334 1.69559 1.76066 4.26833 1.76066 7.44197C1.76066 10.6156 4.3334 13.1883 7.50703 13.1883Z" fill="#878787"/>
</svg>
