<svg width="28" height="28" viewBox="0 0 28 28" fill="none" xmlns="http://www.w3.org/2000/svg">
<path d="M0 4C0 3.44772 0.447715 3 1 3H27C27.5523 3 28 3.44772 28 4C28 4.55228 27.5523 5 27 5H1C0.447715 5 0 4.55228 0 4Z" fill="#212121"/>
<path d="M0 14C0 13.4477 0.447715 13 1 13H27C27.5523 13 28 13.4477 28 14C28 14.5523 27.5523 15 27 15H1C0.447715 15 0 14.5523 0 14Z" fill="#212121"/>
<path d="M1 23C0.447715 23 0 23.4477 0 24C0 24.5523 0.447715 25 1 25H27C27.5523 25 28 24.5523 28 24C28 23.4477 27.5523 23 27 23H1Z" fill="#212121"/>
</svg>
