<svg width="29" height="28" viewBox="0 0 29 28" fill="none" xmlns="http://www.w3.org/2000/svg">
<path fill-rule="evenodd" clip-rule="evenodd" d="M3.7666 11.4263C3.7666 17.1847 8.39044 21.8527 14.0942 21.8527C16.2262 21.8527 18.2073 21.2005 19.8525 20.0829L25.0432 26.6333C25.377 27.0546 25.986 27.1229 26.4034 26.7859C26.8207 26.4488 26.8884 25.834 26.5545 25.4127L21.3505 18.8455C23.2467 16.9551 24.4219 14.3293 24.4219 11.4263C24.4219 5.66803 19.798 1 14.0942 1C8.39044 1 3.7666 5.66803 3.7666 11.4263ZM5.70208 11.4263C5.70208 16.1055 9.45938 19.8987 14.0942 19.8987C18.7291 19.8987 22.4864 16.1055 22.4864 11.4263C22.4864 6.74718 18.7291 2.95397 14.0942 2.95397C9.45938 2.95397 5.70208 6.74718 5.70208 11.4263Z" fill="#161616"/>
</svg>
