<svg width="24" height="35" viewBox="0 0 24 35" fill="none" xmlns="http://www.w3.org/2000/svg">
<path d="M10.2 33.0647C5.30941 33.1051 3.4815 31.702 3.17886 30.9954V21.0528C4.5508 21.3892 7.87574 21.9713 10.2 22.0117C12.5242 22.0521 16.3737 21.4229 18.0079 21.0528L17.7053 31.3487C17.2412 31.9039 15.0905 33.0243 10.2 33.0647Z" fill="#FFD53F"/>
<path d="M18.0085 12.7773C18.0085 13.8004 18.069 15.034 18.069 16.0457C18.069 16.7727 18.069 17.2937 18.069 18.0148C18.069 18.8504 18.1901 19.6521 18.1901 20.4964C18.1901 21.519 18.1296 22.5485 18.1296 23.578" stroke="#061017" stroke-width="1.8158" stroke-linecap="round" stroke-linejoin="round"/>
<path d="M18.1137 22.72C18.1137 23.9937 18.2069 26.1392 18.1137 27.3988C18.0567 28.1686 18.0399 28.9467 18.0399 29.7121C18.0399 30.3757 18.0399 31.1973 17.5071 31.8717C16.4465 32.7512 14.9572 32.8688 13.5764 33.0991C12.8909 33.2134 11.8244 33.2683 11.1075 33.2683C10.5895 33.2683 10.3684 33.2683 9.84657 33.2683C9.28777 33.2683 8.72898 33.2683 8.17019 33.2683C6.74222 33.2683 5.32713 32.8974 4.18623 32.2716C3.99581 32.1672 3.54595 31.9188 3.42062 31.7542C2.97223 31.3609 2.75482 31.1023 2.75482 30.5934" stroke="#061017" stroke-width="1.8158" stroke-linecap="round" stroke-linejoin="round"/>
<path d="M2.75489 30.543C2.75489 29.3605 2.69437 28.2331 2.69437 27.0507C2.69437 25.718 2.69437 24.404 2.69437 23.0831C2.69437 21.9431 2.69437 20.803 2.69437 19.663C2.69437 19.156 2.75489 18.6363 2.75489 18.1409C2.75489 17.8111 2.86054 16.2797 2.93647 15.9571C2.93647 15.7534 2.997 14.8972 2.997 14.8972" stroke="#061017" stroke-width="1.8158" stroke-linecap="round" stroke-linejoin="round"/>
<path d="M2.9707 14.8723C2.9707 14.8723 2.93686 14.2897 2.33159 14.1888C1.72632 14.0879 1.34177 14.1699 1.04607 14.1113C0.873123 14.077 1.24081 13.7332 1.26879 13.6944C1.66685 13.1421 2.15001 12.927 2.86645 12.5475C4.02634 12.069 4.93735 12.0151 4.93735 12.0151C6.75004 11.9176 8.32669 11.9101 10.0431 11.9101C11.1013 11.9101 12.129 12.0151 13.1822 12.0151C13.7667 12.0151 14.3444 12.0565 14.9219 12.0676C15.5332 12.0794 16.1179 12.2775 16.7372 12.2775C17.1541 12.2775 17.9475 12.6153 17.9475 12.9335C17.9475 13.4892 16.6931 13.6419 16.0565 13.6419C15.1027 13.785 14.9219 13.886 13.8317 13.886C13.4666 13.8993 12.4334 13.9568 12.0475 13.9568C10.4694 13.9568 9.95796 13.9887 8.32374 13.9043C7.57305 13.9043 5.71608 13.7008 4.97517 13.5865C4.64384 13.5355 4.28358 13.4589 3.95402 13.432C3.80337 13.4197 3.5686 13.2811 3.42454 13.2338C3.24844 13.1759 3.06727 13.2474 2.91186 13.2863C2.62557 13.3578 2.24065 13.4535 2.00418 13.6011C1.83298 13.708 1.51914 13.8831 1.30661 13.9568" stroke="#061017" stroke-width="1.8158" stroke-linecap="round" stroke-linejoin="round"/>
<path d="M9.89658 25.8996C9.89658 26.5984 10.0782 26.8586 9.83606 28.5746C9.59395 29.3316 9.52593 29.2987 9.29132 29.584C9.12815 29.7823 8.99907 30.0345 8.42 30.4149C7.84092 30.7953 7.00978 30.7401 6.5692 30.7401C5.847 30.7401 5.67435 30.0519 5.55308 29.639C5.00918 27.7875 8.38724 26.4166 9.83606 25.3445" stroke="#061017" stroke-width="1.8158" stroke-linecap="round" stroke-linejoin="round"/>
<path d="M9.90988 26.1983C9.90988 25.9114 9.95787 25.6682 10.0126 25.3843C10.2399 25.0812 11.4635 22.1416 11.6104 21.8149C12.0573 20.8215 12.6384 19.8912 13.075 18.8846C13.343 18.2669 13.6554 17.6472 14.0108 17.0547C14.3462 16.4954 14.5157 15.8649 14.8529 15.3152C15.1392 14.8485 17.0472 11.6497 17.342 11.2128" stroke="#061017" stroke-width="1.8158" stroke-linecap="round" stroke-linejoin="round"/>
<path d="M22.8497 1.97675C22.8497 2.1786 22.426 2.93565 21.8207 3.38988C21.3358 3.89018 21.1298 3.918 21.0899 3.90529C21.0784 3.90162 21.0808 3.89455 21.0944 3.89455C21.3202 3.33933 21.2616 1.0021 22.1744 1.29331C22.4909 1.39427 22.7891 1.52252 22.8497 1.97675Z" fill="#061017"/>
<path d="M21.0944 3.89455C21.3202 3.33933 21.2616 1.0021 22.1744 1.29331C22.4909 1.39427 22.7891 1.52252 22.8497 1.97675C22.8497 2.1786 22.426 2.93565 21.8207 3.38989C21.1955 4.03493 21.0339 3.89455 21.0944 3.89455ZM21.0944 3.89455C20.9435 4.26557 19.4681 7.09598 19.2786 7.5284C19.0891 7.96083 17.5684 10.754 17.4023 11.1118" stroke="#061017" stroke-width="1.8158" stroke-linecap="round" stroke-linejoin="round"/>
</svg>
